<?xml version="1.0" standalone="no"?><!DOCTYPE svg PUBLIC "-//W3C//DTD SVG 1.1//EN" "http://www.w3.org/Graphics/SVG/1.1/DTD/svg11.dtd" ><svg xmlns="http://www.w3.org/2000/svg"><metadata></metadata><defs><font id="1.000;UKWN;Metal-Reg-3" horiz-adv-x="3415"><font-face font-family="Metal Reg-3" font-weight="400" font-stretch="normal" units-per-em="2048" panose-1="0 0 5 0 0 0 0 0 0 0" ascent="2168" descent="-290" x-height="0" bbox="-945 -443 3345 1567" underline-thickness="145" underline-position="-278" unicode-range="U+000d-fb02" /><missing-glyph horiz-adv-x="600"  /><glyph glyph-name="" unicode="" d="" /><glyph glyph-name="" unicode=" " d="" /><glyph glyph-name="" unicode="a" d="M1747 0 l-753 1097 l-220 0 l-754 -1097 l214 0 l166 248 l968 0 l165 -248 l214 0 ZM884 973 l370 -555 l-741 0 l371 555 Z" /><glyph glyph-name="" unicode="á" d="M952 1473 l-169 -251 l156 0 l251 251 l-238 0 ZM1747 0 l-753 1097 l-220 0 l-754 -1097 l214 0 l166 248 l968 0 l165 -248 l214 0 ZM884 973 l370 -555 l-741 0 l371 555 Z" /><glyph glyph-name="" unicode="&#x102;" d="M882 1223 q128 -2 221 49 q93 51 136 175 l-161 0 q-21 -41 -70 -65 q-49 -24 -126 -25 q-76 1 -124 25 q-48 24 -69 65 l-161 0 q42 -124 134 -175 q93 -51 220 -49 l0 0 ZM1747 0 l-753 1097 l-220 0 l-754 -1097 l214 0 l166 248 l968 0 l165 -248 l214 0 ZM884 973 l370 -555 l-741 0 l371 555 Z" /><glyph glyph-name="" unicode="â" d="M1134 1222 l186 0 l-334 251 l-203 0 l-336 -251 l186 0 l251 148 l250 -148 ZM1747 0 l-753 1097 l-220 0 l-754 -1097 l214 0 l166 248 l968 0 l165 -248 l214 0 ZM884 973 l370 -555 l-741 0 l371 555 Z" /><glyph glyph-name="" unicode="ä" d="M687 1223 q62 -1 88 23 q26 23 25 79 q1 56 -25 80 q-26 24 -88 23 q-63 1 -89 -23 q-26 -24 -25 -80 q-1 -56 25 -79 q26 -24 89 -23 l0 0 ZM1080 1223 q62 -1 88 23 q26 23 25 79 q1 56 -25 80 q-26 24 -88 23 q-63 1 -89 -23 q-26 -24 -25 -80 q-1 -56 25 -79 q26 -24 89 -23 l0 0 ZM1747 0 l-753 1097 l-220 0 l-754 -1097 l214 0 l166 248 l968 0 l165 -248 l214 0 ZM884 973 l370 -555 l-741 0 l371 555 Z" /><glyph glyph-name="" unicode="à" d="M829 1473 l-238 0 l251 -251 l156 0 l-169 251 ZM1747 0 l-753 1097 l-220 0 l-754 -1097 l214 0 l166 248 l968 0 l165 -248 l214 0 ZM884 973 l370 -555 l-741 0 l371 555 Z" /><glyph glyph-name="" unicode="&#x100;" d="M592 1368 l0 -145 l583 0 l0 145 l-583 0 ZM1747 0 l-753 1097 l-220 0 l-754 -1097 l214 0 l166 248 l968 0 l165 -248 l214 0 ZM884 973 l370 -555 l-741 0 l371 555 Z" /><glyph glyph-name="" unicode="&#x104;" d="M1612 -209 q-2 32 27 84 q29 51 108 125 l-753 1097 l-220 0 l-754 -1097 l214 0 l166 248 l968 0 l165 -248 l61 0 q-69 -58 -112 -126 q-44 -68 -45 -140 q-3 -78 57 -123 q61 -46 225 -41 l0 141 q-53 -6 -80 15 q-27 21 -27 65 l0 0 ZM884 973 l370 -555 l-741 0 l371 555 Z" /><glyph glyph-name="" unicode="å" d="M885 1223 q149 -2 224 33 q76 35 76 132 q4 74 -60 120 q-64 47 -240 48 q-149 2 -225 -34 q-76 -36 -76 -134 q-4 -72 60 -118 q64 -45 241 -47 l0 0 ZM885 1444 q108 1 144 -11 q36 -12 33 -44 q4 -23 -28 -38 q-32 -14 -149 -15 q-109 -1 -145 11 q-37 11 -34 42 q-4 24 28 39 q33 15 151 16 l0 0 ZM1747 0 l-753 1097 l-220 0 l-754 -1097 l214 0 l166 248 l968 0 l165 -248 l214 0 ZM884 973 l370 -555 l-741 0 l371 555 Z" /><glyph glyph-name="" unicode="ã" d="M733 1296 q72 -5 136 -37 q64 -32 147 -37 q112 2 177 60 q65 58 95 146 l-130 0 q-18 -27 -47 -49 q-29 -22 -75 -23 q-78 5 -140 37 q-61 31 -143 36 q-115 -2 -182 -59 q-66 -58 -92 -147 l131 0 q18 28 47 50 q29 22 76 23 l0 0 ZM1747 0 l-753 1097 l-220 0 l-754 -1097 l214 0 l166 248 l968 0 l165 -248 l214 0 ZM884 973 l370 -555 l-741 0 l371 555 Z" /><glyph glyph-name="" unicode="æ" d="M1413 487 l822 0 l0 171 l-940 0 l-184 269 l1164 0 l0 170 l-1501 0 l-754 -1097 l214 0 l166 248 l968 0 l165 -248 l753 0 l0 170 l-656 0 l-217 317 ZM884 973 l370 -555 l-741 0 l371 555 Z" /><glyph glyph-name="" unicode="b" d="M1394 559 q68 42 99 104 q30 62 29 142 q-2 161 -112 228 q-111 66 -307 64 l-986 0 l0 -1097 l1027 0 q196 -2 307 64 q111 66 113 229 q1 91 -39 159 q-40 68 -131 107 l0 0 ZM1143 927 q96 2 145 -30 q50 -32 50 -116 q0 -88 -50 -120 q-49 -33 -145 -31 l-842 0 l0 297 l842 0 ZM301 170 l0 297 l883 0 q96 2 146 -31 q50 -33 50 -119 q-1 -87 -52 -118 q-51 -31 -144 -29 l-883 0 Z" /><glyph glyph-name="" unicode="c" d="M955 149 q-382 -2 -540 93 q-158 94 -153 309 q-5 218 155 311 q159 93 538 91 q260 2 406 -47 q146 -49 149 -168 l183 0 q3 187 -174 286 q-177 98 -564 99 q-487 -1 -686 -147 q-198 -146 -191 -425 q-7 -279 191 -425 q199 -146 686 -147 q386 1 563 100 q177 99 175 286 l-183 0 q-2 -118 -148 -168 q-146 -49 -407 -48 l0 0 Z" /><glyph glyph-name="" unicode="&#x106;" d="M950 1482 l-169 -251 l156 0 l251 251 l-238 0 ZM955 149 q-382 -2 -540 93 q-158 94 -153 309 q-5 218 155 311 q159 93 538 91 q260 2 406 -47 q146 -49 149 -168 l183 0 q3 187 -174 286 q-177 98 -564 99 q-487 -1 -686 -147 q-198 -146 -191 -425 q-7 -279 191 -425 q199 -146 686 -147 q386 1 563 100 q177 99 175 286 l-183 0 q-2 -118 -148 -168 q-146 -49 -407 -48 l0 0 Z" /><glyph glyph-name="" unicode="&#x10c;" d="M1322 1480 l-186 0 l-250 -148 l-251 148 l-186 0 l336 -251 l203 0 l334 251 ZM955 149 q-382 -2 -540 93 q-158 94 -153 309 q-5 218 155 311 q159 93 538 91 q260 2 406 -47 q146 -49 149 -168 l183 0 q3 187 -174 286 q-177 98 -564 99 q-487 -1 -686 -147 q-198 -146 -191 -425 q-7 -279 191 -425 q199 -146 686 -147 q386 1 563 100 q177 99 175 286 l-183 0 q-2 -118 -148 -168 q-146 -49 -407 -48 l0 0 Z" /><glyph glyph-name="" unicode="ç" d="M955 149 q-382 -2 -540 93 q-158 94 -153 309 q-5 218 155 311 q159 93 538 91 q260 2 406 -47 q146 -49 149 -168 l183 0 q3 187 -174 286 q-177 98 -564 99 q-487 -1 -686 -147 q-198 -146 -191 -425 q-6 -269 177 -414 q184 -146 632 -157 l0 -173 q2 1 25 1 q23 0 82 0 q41 1 61 -11 q20 -11 20 -42 q1 -20 -14 -31 q-15 -10 -57 -10 q-32 0 -75 6 q-44 6 -117 21 l0 -90 q68 -17 115 -26 q47 -8 82 -8 q97 -2 144 29 q47 30 47 113 q1 78 -40 108 q-42 31 -136 30 l-17 0 l0 82 q359 8 523 107 q165 98 163 279 l-183 0 q-2 -118 -148 -168 q-146 -49 -407 -48 l0 0 Z" /><glyph glyph-name="" unicode="&#x10a;" d="M881 1232 q62 -1 88 23 q26 23 25 79 q1 56 -25 80 q-26 24 -88 23 q-63 1 -89 -23 q-26 -24 -25 -80 q-1 -56 25 -79 q26 -24 89 -23 l0 0 ZM955 149 q-382 -2 -540 93 q-158 94 -153 309 q-5 218 155 311 q159 93 538 91 q260 2 406 -47 q146 -49 149 -168 l183 0 q3 187 -174 286 q-177 98 -564 99 q-487 -1 -686 -147 q-198 -146 -191 -425 q-7 -279 191 -425 q199 -146 686 -147 q386 1 563 100 q177 99 175 286 l-183 0 q-2 -118 -148 -168 q-146 -49 -407 -48 l0 0 Z" /><glyph glyph-name="" unicode="d" d="M1678 549 q3 260 -120 406 q-123 147 -409 142 l-1032 0 l0 -1097 l1037 0 q281 3 404 146 q123 143 120 403 l0 0 ZM301 170 l0 757 l848 0 q190 3 269 -84 q78 -87 76 -294 q2 -208 -76 -295 q-78 -87 -265 -84 l-852 0 Z" /><glyph glyph-name="" unicode="ð" d="M1678 549 q3 260 -120 406 q-123 147 -409 142 l-1032 0 l0 -472 l-123 0 l0 -170 l123 0 l0 -455 l1037 0 q281 3 404 146 q123 143 120 403 l0 0 ZM301 170 l0 285 l487 0 l0 170 l-487 0 l0 302 l848 0 q190 3 269 -84 q78 -87 76 -294 q2 -208 -76 -295 q-78 -87 -265 -84 l-852 0 Z" /><glyph glyph-name="" unicode="&#x10e;" d="M1319 1480 l-186 0 l-250 -148 l-251 148 l-186 0 l336 -251 l203 0 l334 251 ZM1678 549 q3 260 -120 406 q-123 147 -409 142 l-1032 0 l0 -1097 l1037 0 q281 3 404 146 q123 143 120 403 l0 0 ZM301 170 l0 757 l848 0 q190 3 269 -84 q78 -87 76 -294 q2 -208 -76 -295 q-78 -87 -265 -84 l-852 0 Z" /><glyph glyph-name="" unicode="&#x110;" d="M1678 549 q3 260 -120 406 q-123 147 -409 142 l-1032 0 l0 -472 l-123 0 l0 -170 l123 0 l0 -455 l1037 0 q281 3 404 146 q123 143 120 403 l0 0 ZM301 170 l0 285 l487 0 l0 170 l-487 0 l0 302 l848 0 q190 3 269 -84 q78 -87 76 -294 q2 -208 -76 -295 q-78 -87 -265 -84 l-852 0 Z" /><glyph glyph-name="" unicode="e" d="M1458 0 l0 170 l-1157 0 l0 318 l1088 0 l0 170 l-1088 0 l0 269 l1143 0 l0 170 l-1327 0 l0 -1097 l1341 0 Z" /><glyph glyph-name="" unicode="é" d="M854 1231 l251 251 l-238 0 l-169 -251 l156 0 ZM1458 0 l0 170 l-1157 0 l0 318 l1088 0 l0 170 l-1088 0 l0 269 l1143 0 l0 170 l-1327 0 l0 -1097 l1341 0 Z" /><glyph glyph-name="" unicode="&#x11a;" d="M1239 1480 l-186 0 l-250 -148 l-251 148 l-186 0 l336 -251 l203 0 l334 251 ZM301 488 l1088 0 l0 170 l-1088 0 l0 269 l1143 0 l0 170 l-1327 0 l0 -1097 l1341 0 l0 170 l-1157 0 l0 318 Z" /><glyph glyph-name="" unicode="ê" d="M1049 1231 l186 0 l-334 251 l-203 0 l-336 -251 l186 0 l251 148 l250 -148 ZM301 488 l1088 0 l0 170 l-1088 0 l0 269 l1143 0 l0 170 l-1327 0 l0 -1097 l1341 0 l0 170 l-1157 0 l0 318 Z" /><glyph glyph-name="" unicode="ë" d="M602 1232 q62 -1 88 23 q26 23 25 79 q1 56 -25 80 q-26 24 -88 23 q-63 1 -89 -23 q-26 -24 -25 -80 q-1 -56 25 -79 q26 -24 89 -23 l0 0 ZM995 1232 q62 -1 88 23 q26 23 25 79 q1 56 -25 80 q-26 24 -88 23 q-63 1 -89 -23 q-26 -24 -25 -80 q-1 -56 25 -79 q26 -24 89 -23 l0 0 ZM1458 0 l0 170 l-1157 0 l0 318 l1088 0 l0 170 l-1088 0 l0 269 l1143 0 l0 170 l-1327 0 l0 -1097 l1341 0 Z" /><glyph glyph-name="" unicode="&#x116;" d="M798 1232 q62 -1 88 23 q26 23 25 79 q1 56 -25 80 q-26 24 -88 23 q-63 1 -89 -23 q-26 -24 -25 -80 q-1 -56 25 -79 q26 -24 89 -23 l0 0 ZM1458 0 l0 170 l-1157 0 l0 318 l1088 0 l0 170 l-1088 0 l0 269 l1143 0 l0 170 l-1327 0 l0 -1097 l1341 0 Z" /><glyph glyph-name="" unicode="è" d="M913 1231 l-169 251 l-238 0 l251 -251 l156 0 ZM1458 0 l0 170 l-1157 0 l0 318 l1088 0 l0 170 l-1088 0 l0 269 l1143 0 l0 170 l-1327 0 l0 -1097 l1341 0 Z" /><glyph glyph-name="" unicode="&#x112;" d="M1090 1232 l0 145 l-583 0 l0 -145 l583 0 ZM1458 0 l0 170 l-1157 0 l0 318 l1088 0 l0 170 l-1088 0 l0 269 l1143 0 l0 170 l-1327 0 l0 -1097 l1341 0 Z" /><glyph glyph-name="" unicode="&#x118;" d="M1324 -209 q-2 32 27 84 q29 51 108 125 l-1 0 l0 170 l-1157 0 l0 318 l1088 0 l0 170 l-1088 0 l0 269 l1143 0 l0 170 l-1327 0 l0 -1097 l1189 0 q-69 -58 -112 -126 q-44 -68 -45 -140 q-3 -78 57 -123 q61 -46 225 -41 l0 141 q-53 -6 -80 15 q-27 21 -27 65 l0 0 Z" /><glyph glyph-name="" unicode="f" d="M301 0 l0 480 l1095 0 l0 170 l-1095 0 l0 277 l1141 0 l0 170 l-1325 0 l0 -1097 l184 0 Z" /><glyph glyph-name="" unicode="g" d="M1502 419 l0 -59 q-15 -129 -186 -170 q-171 -42 -378 -39 q-338 -2 -507 90 q-169 92 -169 306 q0 215 169 311 q169 96 507 94 q258 1 408 -48 q150 -49 153 -166 l183 0 q1 185 -181 284 q-182 99 -563 100 q-479 -3 -673 -157 q-194 -154 -187 -418 q-7 -262 187 -413 q194 -151 673 -154 q246 2 379 55 q134 52 185 125 l0 -159 l180 0 l0 588 l-648 0 l0 -170 l468 0 Z" /><glyph glyph-name="" unicode="&#x11e;" d="M898 1232 q128 -2 221 49 q93 51 136 175 l-161 0 q-21 -41 -70 -65 q-49 -24 -126 -25 q-76 1 -124 25 q-48 24 -69 65 l-161 0 q42 -124 134 -175 q93 -51 220 -49 l0 0 ZM1502 419 l0 -59 q-15 -129 -186 -170 q-171 -42 -378 -39 q-338 -2 -507 90 q-169 92 -169 306 q0 215 169 311 q169 96 507 94 q258 1 408 -48 q150 -49 153 -166 l183 0 q1 185 -181 284 q-182 99 -563 100 q-479 -3 -673 -157 q-194 -154 -187 -418 q-7 -262 187 -413 q194 -151 673 -154 q246 2 379 55 q134 52 185 125 l0 -159 l180 0 l0 588 l-648 0 l0 -170 l468 0 Z" /><glyph glyph-name="" unicode="&#x122;" d="M1502 419 l0 -59 q-15 -129 -186 -170 q-171 -42 -378 -39 q-338 -2 -507 90 q-169 92 -169 306 q0 215 169 311 q169 96 507 94 q258 1 408 -48 q150 -49 153 -166 l183 0 q1 185 -181 284 q-182 99 -563 100 q-479 -3 -673 -157 q-194 -154 -187 -418 q-7 -262 187 -413 q194 -151 673 -154 q246 2 379 55 q134 52 185 125 l0 -159 l180 0 l0 588 l-648 0 l0 -170 l468 0 ZM816 -342 l251 251 l-238 0 l-169 -251 l156 0 Z" /><glyph glyph-name="" unicode="&#x120;" d="M900 1232 q62 -1 88 23 q26 23 25 79 q1 56 -25 80 q-26 24 -88 23 q-63 1 -89 -23 q-26 -24 -25 -80 q-1 -56 25 -79 q26 -24 89 -23 l0 0 ZM1502 419 l0 -59 q-15 -129 -186 -170 q-171 -42 -378 -39 q-338 -2 -507 90 q-169 92 -169 306 q0 215 169 311 q169 96 507 94 q258 1 408 -48 q150 -49 153 -166 l183 0 q1 185 -181 284 q-182 99 -563 100 q-479 -3 -673 -157 q-194 -154 -187 -418 q-7 -262 187 -413 q194 -151 673 -154 q246 2 379 55 q134 52 185 125 l0 -159 l180 0 l0 588 l-648 0 l0 -170 l468 0 Z" /><glyph glyph-name="" unicode="h" d="M301 0 l0 489 l1137 0 l0 -489 l185 0 l0 1097 l-185 0 l0 -438 l-1137 0 l0 438 l-184 0 l0 -1097 l184 0 Z" /><glyph glyph-name="" unicode="&#x126;" d="M1623 976 l0 121 l-185 0 l0 -121 l-1137 0 l0 121 l-184 0 l0 -121 l-113 0 l0 -170 l113 0 l0 -806 l184 0 l0 489 l1137 0 l0 -489 l185 0 l0 806 l120 0 l0 170 l-120 0 ZM301 659 l0 147 l1137 0 l0 -147 l-1137 0 Z" /><glyph glyph-name="" unicode="i" d="M301 0 l0 1097 l-184 0 l0 -1097 l184 0 Z" /><glyph glyph-name="" unicode="&#x132;" d="M1395 1097 l-947 0 l0 -170 l764 0 l1 -510 q3 -140 -102 -197 q-106 -58 -361 -56 l-633 0 l0 -170 l640 0 q388 1 519 106 q130 104 120 304 l-1 693 ZM117 1097 l0 -803 l184 0 l0 803 l-184 0 Z" /><glyph glyph-name="" unicode="í" d="M265 1231 l251 251 l-238 0 l-169 -251 l156 0 ZM301 0 l0 1097 l-184 0 l0 -1097 l184 0 Z" /><glyph glyph-name="" unicode="î" d="M109 1482 l-337 -251 l186 0 l252 148 l250 -148 l186 0 l-334 251 l-203 0 ZM301 0 l0 1097 l-184 0 l0 -1097 l184 0 Z" /><glyph glyph-name="" unicode="ï" d="M13 1232 q62 -1 88 23 q26 23 25 79 q1 56 -25 80 q-26 24 -88 23 q-64 1 -90 -23 q-26 -24 -25 -80 q-1 -56 25 -79 q26 -24 90 -23 l0 0 ZM406 1232 q62 -1 88 23 q26 23 25 79 q1 56 -25 80 q-26 24 -88 23 q-63 1 -89 -23 q-26 -24 -25 -80 q-1 -56 25 -79 q26 -24 89 -23 l0 0 ZM301 0 l0 1097 l-184 0 l0 -1097 l184 0 Z" /><glyph glyph-name="" unicode="&#x130;" d="M209 1232 q62 -1 88 23 q26 23 25 79 q1 56 -25 80 q-26 24 -88 23 q-63 1 -89 -23 q-26 -24 -25 -80 q-1 -56 25 -79 q26 -24 89 -23 l0 0 ZM301 0 l0 1097 l-184 0 l0 -1097 l184 0 Z" /><glyph glyph-name="" unicode="ì" d="M323 1231 l-169 251 l-239 0 l252 -251 l156 0 ZM301 0 l0 1097 l-184 0 l0 -1097 l184 0 Z" /><glyph glyph-name="" unicode="&#x12a;" d="M442 1232 l0 145 l-467 0 l0 -145 l467 0 ZM301 0 l0 1097 l-184 0 l0 -1097 l184 0 Z" /><glyph glyph-name="" unicode="&#x12e;" d="M301 1097 l-184 0 l0 -1097 l31 0 q-69 -58 -113 -126 q-44 -68 -45 -140 q-3 -78 58 -123 q61 -46 225 -41 l0 141 q-53 -6 -80 15 q-27 21 -27 65 q-2 32 27 84 q29 51 108 125 l0 1097 Z" /><glyph glyph-name="" unicode="j" d="M1460 1097 l-810 0 l0 -171 l627 0 l0 -479 q8 -152 -98 -225 q-106 -73 -416 -72 q-280 -2 -401 62 q-120 64 -117 224 l-184 0 q-4 -249 161 -354 q165 -105 541 -102 q386 -1 545 113 q158 113 153 349 l-1 655 Z" /><glyph glyph-name="" unicode="k" d="M1682 0 l-801 625 l767 472 l-314 0 l-1033 -627 l0 627 l-184 0 l0 -1097 l184 0 l0 268 l419 258 l678 -526 l284 0 Z" /><glyph glyph-name="" unicode="&#x136;" d="M1648 1097 l-314 0 l-1033 -627 l0 627 l-184 0 l0 -1097 l184 0 l0 268 l419 258 l678 -526 l284 0 l-801 625 l767 472 ZM715 -342 l251 251 l-238 0 l-169 -251 l156 0 Z" /><glyph glyph-name="" unicode="l" d="M1427 0 l0 170 l-1126 0 l0 927 l-184 0 l0 -1097 l1310 0 Z" /><glyph glyph-name="" unicode="&#x139;" d="M280 1231 l251 251 l-238 0 l-169 -251 l156 0 ZM1427 0 l0 170 l-1126 0 l0 927 l-184 0 l0 -1097 l1310 0 Z" /><glyph glyph-name="" unicode="&#x13d;" d="M1427 0 l0 170 l-1126 0 l0 927 l-184 0 l0 -1097 l1310 0 ZM692 846 l101 251 l-195 0 l-62 -251 l156 0 Z" /><glyph glyph-name="" unicode="&#x13b;" d="M1427 0 l0 170 l-1126 0 l0 927 l-184 0 l0 -1097 l1310 0 ZM672 -342 l251 251 l-238 0 l-169 -251 l156 0 Z" /><glyph glyph-name="" unicode="&#x13f;" d="M1427 0 l0 170 l-1126 0 l0 927 l-184 0 l0 -1097 l1310 0 ZM836 439 q62 -1 88 28 q26 28 25 97 q1 69 -25 97 q-26 29 -88 28 q-62 1 -87 -28 q-26 -28 -25 -97 q-1 -69 25 -97 q25 -29 87 -28 l0 0 Z" /><glyph glyph-name="" unicode="&#x141;" d="M355 532 l190 133 l-91 130 l-99 -69 l0 371 l-184 0 l0 -500 l-191 -134 l91 -129 l100 70 l0 -404 l1309 0 l0 170 l-1125 0 l0 362 Z" /><glyph glyph-name="" unicode="m" d="M955 432 l-578 665 l-260 0 l0 -1097 l184 0 l0 908 l535 -614 l237 0 l537 632 l0 -926 l184 0 l0 1097 l-269 0 l-570 -665 Z" /><glyph glyph-name="" unicode="n" d="M1452 172 l-1081 925 l-254 0 l0 -1097 l184 0 l0 913 l1068 -913 l267 0 l0 1097 l-184 0 l0 -925 Z" /><glyph glyph-name="" unicode="&#x143;" d="M945 1482 l-169 -251 l156 0 l251 251 l-238 0 ZM1452 172 l-1081 925 l-254 0 l0 -1097 l184 0 l0 913 l1068 -913 l267 0 l0 1097 l-184 0 l0 -925 Z" /><glyph glyph-name="" unicode="&#x147;" d="M1317 1480 l-186 0 l-250 -148 l-251 148 l-186 0 l336 -251 l203 0 l334 251 ZM1452 172 l-1081 925 l-254 0 l0 -1097 l184 0 l0 913 l1068 -913 l267 0 l0 1097 l-184 0 l0 -925 Z" /><glyph glyph-name="" unicode="&#x145;" d="M1452 172 l-1081 925 l-254 0 l0 -1097 l184 0 l0 913 l1068 -913 l267 0 l0 1097 l-184 0 l0 -925 ZM755 -342 l251 251 l-238 0 l-169 -251 l156 0 Z" /><glyph glyph-name="" unicode="&#x14a;" d="M1420 1100 l0 -688 q0 -10 0 -20 q-1 -10 -2 -20 l-1050 725 l-251 0 l0 -1097 l184 0 l0 934 l1022 -718 q-58 -34 -160 -49 q-102 -15 -257 -15 l-235 0 l0 -171 l235 0 q439 3 575 124 q136 121 123 330 l0 665 l-184 0 Z" /><glyph glyph-name="" unicode="ñ" d="M726 1305 q72 -5 136 -37 q64 -32 147 -37 q112 2 177 60 q65 58 95 146 l-130 0 q-18 -27 -47 -49 q-29 -22 -75 -23 q-78 5 -140 37 q-61 31 -143 36 q-115 -2 -182 -59 q-66 -58 -92 -147 l131 0 q18 28 47 50 q29 22 76 23 l0 0 ZM1452 172 l-1081 925 l-254 0 l0 -1097 l184 0 l0 913 l1068 -913 l267 0 l0 1097 l-184 0 l0 -925 Z" /><glyph glyph-name="" unicode="o" d="M916 1120 q-474 -1 -660 -145 q-186 -145 -178 -424 q-8 -278 178 -424 q186 -146 660 -147 q472 1 658 147 q186 146 178 424 q8 279 -178 424 q-186 144 -658 145 l0 0 ZM916 151 q-360 -2 -509 92 q-150 93 -145 308 q-5 215 145 308 q149 93 509 91 q358 2 508 -91 q149 -93 144 -308 q5 -215 -144 -308 q-150 -94 -508 -92 l0 0 Z" /><glyph glyph-name="" unicode="ó" d="M983 1482 l-169 -251 l156 0 l251 251 l-238 0 ZM916 1120 q-474 -1 -660 -145 q-186 -145 -178 -424 q-8 -278 178 -424 q186 -146 660 -147 q472 1 658 147 q186 146 178 424 q8 279 -178 424 q-186 144 -658 145 l0 0 ZM916 151 q-360 -2 -509 92 q-150 93 -145 308 q-5 215 145 308 q149 93 509 91 q358 2 508 -91 q149 -93 144 -308 q5 -215 -144 -308 q-150 -94 -508 -92 l0 0 Z" /><glyph glyph-name="" unicode="ô" d="M1166 1231 l186 0 l-334 251 l-203 0 l-336 -251 l186 0 l251 148 l250 -148 ZM916 1120 q-474 -1 -660 -145 q-186 -145 -178 -424 q-8 -278 178 -424 q186 -146 660 -147 q472 1 658 147 q186 146 178 424 q8 279 -178 424 q-186 144 -658 145 l0 0 ZM916 151 q-360 -2 -509 92 q-150 93 -145 308 q-5 215 145 308 q149 93 509 91 q358 2 508 -91 q149 -93 144 -308 q5 -215 -144 -308 q-150 -94 -508 -92 l0 0 Z" /><glyph glyph-name="" unicode="ö" d="M719 1232 q62 -1 88 23 q26 23 25 79 q1 56 -25 80 q-26 24 -88 23 q-63 1 -89 -23 q-26 -24 -25 -80 q-1 -56 25 -79 q26 -24 89 -23 l0 0 ZM1112 1232 q62 -1 88 23 q26 23 25 79 q1 56 -25 80 q-26 24 -88 23 q-63 1 -89 -23 q-26 -24 -25 -80 q-1 -56 25 -79 q26 -24 89 -23 l0 0 ZM916 1120 q-474 -1 -660 -145 q-186 -145 -178 -424 q-8 -278 178 -424 q186 -146 660 -147 q472 1 658 147 q186 146 178 424 q8 279 -178 424 q-186 144 -658 145 l0 0 ZM916 151 q-360 -2 -509 92 q-150 93 -145 308 q-5 215 145 308 q149 93 509 91 q358 2 508 -91 q149 -93 144 -308 q5 -215 -144 -308 q-150 -94 -508 -92 l0 0 Z" /><glyph glyph-name="" unicode="ò" d="M860 1482 l-238 0 l251 -251 l156 0 l-169 251 ZM916 1120 q-474 -1 -660 -145 q-186 -145 -178 -424 q-8 -278 178 -424 q186 -146 660 -147 q472 1 658 147 q186 146 178 424 q8 279 -178 424 q-186 144 -658 145 l0 0 ZM916 151 q-360 -2 -509 92 q-150 93 -145 308 q-5 215 145 308 q149 93 509 91 q358 2 508 -91 q149 -93 144 -308 q5 -215 -144 -308 q-150 -94 -508 -92 l0 0 Z" /><glyph glyph-name="" unicode="&#x150;" d="M1222 1484 l-169 -251 l156 0 l251 251 l-238 0 ZM798 1482 l-169 -251 l156 0 l251 251 l-238 0 ZM916 1120 q-474 -1 -660 -145 q-186 -145 -178 -424 q-8 -278 178 -424 q186 -146 660 -147 q472 1 658 147 q186 146 178 424 q8 279 -178 424 q-186 144 -658 145 l0 0 ZM916 151 q-360 -2 -509 92 q-150 93 -145 308 q-5 215 145 308 q149 93 509 91 q358 2 508 -91 q149 -93 144 -308 q5 -215 -144 -308 q-150 -94 -508 -92 l0 0 Z" /><glyph glyph-name="" unicode="&#x14c;" d="M624 1377 l0 -145 l583 0 l0 145 l-583 0 ZM916 1120 q-474 -1 -660 -145 q-186 -145 -178 -424 q-8 -278 178 -424 q186 -146 660 -147 q472 1 658 147 q186 146 178 424 q8 279 -178 424 q-186 144 -658 145 l0 0 ZM916 151 q-360 -2 -509 92 q-150 93 -145 308 q-5 215 145 308 q149 93 509 91 q358 2 508 -91 q149 -93 144 -308 q5 -215 -144 -308 q-150 -94 -508 -92 l0 0 Z" /><glyph glyph-name="" unicode="ø" d="M916 1120 q-474 -1 -660 -145 q-186 -145 -178 -424 q-8 -278 178 -424 q186 -146 660 -147 q472 1 658 147 q186 146 178 424 q8 279 -178 424 q-186 144 -658 145 l0 0 ZM262 551 q-5 215 145 308 q149 93 509 91 q116 0 207 -9 l-622 -742 q-128 43 -184 129 q-56 86 -55 223 l0 0 ZM916 151 q-112 0 -202 8 l622 740 q124 -42 179 -128 q54 -85 53 -220 q5 -215 -144 -308 q-150 -94 -508 -92 l0 0 Z" /><glyph glyph-name="" unicode="õ" d="M765 1305 q72 -5 136 -37 q64 -32 147 -37 q112 2 177 60 q65 58 95 146 l-130 0 q-18 -27 -47 -49 q-29 -22 -75 -23 q-78 5 -140 37 q-61 31 -143 36 q-115 -2 -182 -59 q-66 -58 -92 -147 l131 0 q18 28 47 50 q29 22 76 23 l0 0 ZM916 1120 q-474 -1 -660 -145 q-186 -145 -178 -424 q-8 -278 178 -424 q186 -146 660 -147 q472 1 658 147 q186 146 178 424 q8 279 -178 424 q-186 144 -658 145 l0 0 ZM916 151 q-360 -2 -509 92 q-150 93 -145 308 q-5 215 145 308 q149 93 509 91 q358 2 508 -91 q149 -93 144 -308 q5 -215 -144 -308 q-150 -94 -508 -92 l0 0 Z" /><glyph glyph-name="" unicode="&#x152;" d="M1747 455 l3 35 l1085 0 l0 170 l-1088 0 l0 269 l1143 0 l0 170 l-1327 0 l0 -117 q-97 68 -256 103 q-159 35 -391 35 q-474 -1 -660 -145 q-186 -145 -178 -424 q-8 -278 178 -424 q186 -146 660 -147 q232 0 391 35 q159 36 256 104 l0 -117 l1341 0 l0 170 l-1157 0 l0 283 ZM916 151 q-360 -2 -509 92 q-150 93 -145 308 q-5 215 145 308 q149 93 509 91 q324 2 475 -73 q152 -75 172 -246 l0 -160 q-20 -171 -172 -246 q-151 -76 -475 -74 l0 0 Z" /><glyph glyph-name="" unicode="p" d="M1027 1097 l-910 0 l0 -1097 l184 0 l0 338 l723 0 q265 -2 385 88 q120 90 118 292 q2 200 -117 290 q-119 90 -383 89 l0 0 ZM301 508 l0 419 l765 0 q150 1 214 -49 q65 -49 63 -160 q2 -112 -63 -161 q-64 -50 -214 -49 l-765 0 Z" /><glyph glyph-name="" unicode="þ" d="M301 928 l0 169 l-184 0 l0 -1097 l184 0 l0 169 l723 0 q265 -2 385 88 q120 90 118 292 q2 200 -117 290 q-119 91 -383 89 l-726 0 ZM301 339 l0 419 l765 0 q150 1 214 -49 q65 -49 63 -160 q2 -112 -63 -161 q-64 -50 -214 -49 l-765 0 Z" /><glyph glyph-name="" unicode="q" d="M1752 551 q8 279 -178 424 q-186 144 -658 145 q-474 -1 -660 -145 q-186 -145 -178 -424 q-8 -278 178 -424 q186 -146 660 -147 q157 0 280 16 q123 16 215 48 l171 -171 l125 125 l-130 131 q94 72 135 178 q41 106 40 244 l0 0 ZM916 151 q-360 -2 -509 92 q-150 93 -145 308 q-5 215 145 308 q149 93 509 91 q358 2 508 -91 q149 -93 144 -308 q1 -100 -28 -172 q-29 -72 -93 -120 l-179 180 l-128 -124 l132 -132 q-70 -16 -158 -24 q-89 -8 -198 -8 l0 0 Z" /><glyph glyph-name="" unicode="r" d="M1542 225 q1 119 -41 184 q-43 65 -142 89 q91 29 132 91 q42 62 41 164 q3 189 -107 267 q-110 79 -363 77 l-945 0 l0 -1097 l184 0 l0 399 l799 0 q143 2 202 -37 q59 -39 57 -137 q0 -72 4 -127 q4 -56 16 -98 l193 0 q-16 42 -23 98 q-7 55 -7 127 l0 0 ZM301 927 l799 0 q137 1 194 -38 q57 -40 55 -136 q2 -101 -55 -142 q-57 -42 -194 -41 l-799 0 l0 357 Z" /><glyph glyph-name="" unicode="&#x154;" d="M885 1482 l-169 -251 l156 0 l251 251 l-238 0 ZM1542 225 q1 119 -41 184 q-43 65 -142 89 q91 29 132 91 q42 62 41 164 q3 189 -107 267 q-110 79 -363 77 l-945 0 l0 -1097 l184 0 l0 399 l799 0 q143 2 202 -37 q59 -39 57 -137 q0 -72 4 -127 q4 -56 16 -98 l193 0 q-16 42 -23 98 q-7 55 -7 127 l0 0 ZM301 927 l799 0 q137 1 194 -38 q57 -40 55 -136 q2 -101 -55 -142 q-57 -42 -194 -41 l-799 0 l0 357 Z" /><glyph glyph-name="" unicode="&#x158;" d="M1257 1480 l-186 0 l-250 -148 l-251 148 l-186 0 l336 -251 l203 0 l334 251 ZM1542 225 q1 119 -41 184 q-43 65 -142 89 q91 29 132 91 q42 62 41 164 q3 189 -107 267 q-110 79 -363 77 l-945 0 l0 -1097 l184 0 l0 399 l799 0 q143 2 202 -37 q59 -39 57 -137 q0 -72 4 -127 q4 -56 16 -98 l193 0 q-16 42 -23 98 q-7 55 -7 127 l0 0 ZM301 927 l799 0 q137 1 194 -38 q57 -40 55 -136 q2 -101 -55 -142 q-57 -42 -194 -41 l-799 0 l0 357 Z" /><glyph glyph-name="" unicode="&#x156;" d="M1542 225 q1 119 -41 184 q-43 65 -142 89 q91 29 132 91 q42 62 41 164 q3 189 -107 267 q-110 79 -363 77 l-945 0 l0 -1097 l184 0 l0 399 l799 0 q143 2 202 -37 q59 -39 57 -137 q0 -72 4 -127 q4 -56 16 -98 l193 0 q-16 42 -23 98 q-7 55 -7 127 l0 0 ZM301 927 l799 0 q137 1 194 -38 q57 -40 55 -136 q2 -101 -55 -142 q-57 -42 -194 -41 l-799 0 l0 357 ZM694 -342 l251 251 l-238 0 l-169 -251 l156 0 Z" /><glyph glyph-name="" unicode="s" d="M811 -20 q349 -6 546 56 q197 63 200 266 q4 143 -69 229 q-73 85 -277 99 l-762 33 q-78 3 -120 33 q-42 30 -42 99 q-6 77 108 117 q114 40 423 40 q224 4 372 -38 q148 -43 153 -176 l184 0 q-3 212 -189 300 q-186 87 -520 84 q-329 5 -520 -62 q-191 -67 -195 -263 q-3 -147 76 -226 q78 -80 270 -92 l762 -33 q73 -2 118 -30 q44 -28 45 -99 q0 -102 -143 -135 q-142 -34 -420 -31 q-228 -4 -385 38 q-157 41 -164 174 l-184 0 q3 -213 194 -299 q191 -87 539 -84 l0 0 Z" /><glyph glyph-name="" unicode="&#x15a;" d="M873 1231 l251 251 l-238 0 l-169 -251 l156 0 ZM811 -20 q349 -6 546 56 q197 63 200 266 q4 143 -69 229 q-73 85 -277 99 l-762 33 q-78 3 -120 33 q-42 30 -42 99 q-6 77 108 117 q114 40 423 40 q224 4 372 -38 q148 -43 153 -176 l184 0 q-3 212 -189 300 q-186 87 -520 84 q-329 5 -520 -62 q-191 -67 -195 -263 q-3 -147 76 -226 q78 -80 270 -92 l762 -33 q73 -2 118 -30 q44 -28 45 -99 q0 -102 -143 -135 q-142 -34 -420 -31 q-228 -4 -385 38 q-157 41 -164 174 l-184 0 q3 -213 194 -299 q191 -87 539 -84 l0 0 Z" /><glyph glyph-name="" unicode="&#x160;" d="M1258 1480 l-186 0 l-250 -148 l-251 148 l-186 0 l336 -251 l203 0 l334 251 ZM449 663 q-78 3 -120 33 q-42 30 -42 99 q-6 77 108 117 q114 40 423 40 q224 4 372 -38 q148 -43 153 -176 l184 0 q-3 212 -189 300 q-186 87 -520 84 q-329 5 -520 -62 q-191 -67 -195 -263 q-3 -147 76 -226 q78 -80 270 -92 l762 -33 q73 -2 118 -30 q44 -28 45 -99 q0 -102 -143 -135 q-142 -34 -420 -31 q-228 -4 -385 38 q-157 41 -164 174 l-184 0 q3 -213 194 -299 q191 -87 539 -84 q349 -6 546 56 q197 63 200 266 q4 143 -69 229 q-73 85 -277 99 l-762 33 Z" /><glyph glyph-name="" unicode="&#x15e;" d="M1557 302 q4 143 -69 229 q-73 85 -277 99 l-762 33 q-78 3 -120 33 q-42 30 -42 99 q-6 77 108 117 q114 40 423 40 q224 4 372 -38 q148 -43 153 -176 l184 0 q-3 212 -189 300 q-186 87 -520 84 q-329 5 -520 -62 q-191 -67 -195 -263 q-3 -147 76 -226 q78 -80 270 -92 l762 -33 q73 -2 118 -30 q44 -28 45 -99 q0 -102 -143 -135 q-142 -34 -420 -31 q-228 -4 -385 38 q-157 41 -164 174 l-184 0 q2 -204 178 -291 q175 -88 495 -91 l0 -175 q2 1 25 1 q23 0 82 0 q41 1 61 -11 q20 -11 20 -42 q1 -20 -14 -31 q-15 -10 -57 -10 q-32 0 -75 6 q-44 6 -117 21 l0 -90 q68 -17 115 -26 q47 -8 82 -8 q97 -2 144 29 q47 30 47 113 q1 78 -40 108 q-42 31 -136 30 l-17 0 l0 84 q322 -2 503 62 q180 65 183 260 l0 0 Z" /><glyph glyph-name="" unicode="&#x218;" d="M811 -20 q349 -6 546 56 q197 63 200 266 q4 143 -69 229 q-73 85 -277 99 l-762 33 q-78 3 -120 33 q-42 30 -42 99 q-6 77 108 117 q114 40 423 40 q224 4 372 -38 q148 -43 153 -176 l184 0 q-3 212 -189 300 q-186 87 -520 84 q-329 5 -520 -62 q-191 -67 -195 -263 q-3 -147 76 -226 q78 -80 270 -92 l762 -33 q73 -2 118 -30 q44 -28 45 -99 q0 -102 -143 -135 q-142 -34 -420 -31 q-228 -4 -385 38 q-157 41 -164 174 l-184 0 q3 -213 194 -299 q191 -87 539 -84 l0 0 ZM696 -342 l251 251 l-238 0 l-169 -251 l156 0 Z" /><glyph glyph-name="" unicode="&#x1e9e;" d="M988 610 l397 190 q3 139 -138 221 q-142 82 -466 84 q-379 -2 -525 -123 q-146 -121 -139 -342 l0 -640 l184 0 l0 640 q-7 142 92 221 q99 79 388 80 q170 0 266 -24 q96 -23 132 -67 l-499 -240 l0 -158 l428 0 q118 0 172 -40 q54 -40 53 -120 q6 -71 -78 -107 q-84 -35 -327 -35 q-195 0 -262 16 q-68 17 -72 53 l-183 -8 q9 -123 114 -178 q106 -54 390 -53 q331 0 469 74 q137 74 133 240 q6 124 -89 218 q-94 93 -365 98 l-75 0 Z" /><glyph glyph-name="" unicode="&#x18f;" d="M824 1121 q-396 -3 -559 -108 q-163 -106 -187 -277 l185 0 q13 100 131 157 q118 57 430 58 q320 -2 447 -92 q128 -90 138 -241 l-1329 0 l0 -161 q-6 -182 158 -325 q163 -144 589 -152 q421 6 596 162 q175 156 170 394 q9 247 -156 413 q-165 166 -613 172 l0 0 ZM827 150 q-334 5 -451 97 q-118 91 -112 210 l1144 0 q-8 -143 -131 -224 q-123 -81 -450 -83 l0 0 Z" /><glyph glyph-name="" unicode="t" d="M857 0 l0 927 l656 0 l0 170 l-1494 0 l0 -170 l654 0 l0 -927 l184 0 Z" /><glyph glyph-name="" unicode="&#x166;" d="M1513 1097 l-1494 0 l0 -170 l654 0 l0 -260 l-289 0 l0 -170 l289 0 l0 -497 l184 0 l0 497 l288 0 l0 170 l-288 0 l0 260 l656 0 l0 170 Z" /><glyph glyph-name="" unicode="&#x164;" d="M1207 1480 l-186 0 l-250 -148 l-251 148 l-186 0 l336 -251 l203 0 l334 251 ZM19 927 l654 0 l0 -927 l184 0 l0 927 l656 0 l0 170 l-1494 0 l0 -170 Z" /><glyph glyph-name="" unicode="&#x162;" d="M857 927 l656 0 l0 170 l-1494 0 l0 -170 l654 0 l0 -927 l26 0 l0 -194 q2 1 25 1 q23 0 82 0 q41 1 61 -11 q20 -11 20 -42 q1 -20 -14 -31 q-15 -10 -57 -10 q-32 0 -75 6 q-44 6 -117 21 l0 -90 q68 -17 115 -26 q47 -8 82 -8 q97 -2 144 29 q47 30 47 113 q1 78 -40 108 q-42 31 -136 30 l-17 0 l0 104 l38 0 l0 927 Z" /><glyph glyph-name="" unicode="&#x21a;" d="M857 0 l0 927 l656 0 l0 170 l-1494 0 l0 -170 l654 0 l0 -927 l184 0 ZM644 -342 l251 251 l-238 0 l-169 -251 l156 0 Z" /><glyph glyph-name="" unicode="u" d="M826 -20 q440 2 591 123 q151 121 140 331 l-1 664 l-184 0 l1 -659 q5 -151 -120 -221 q-126 -69 -427 -68 q-302 -1 -427 68 q-125 69 -121 221 l1 659 l-184 0 l-1 -664 q-11 -210 140 -331 q151 -121 592 -123 l0 0 Z" /><glyph glyph-name="" unicode="ú" d="M879 1231 l251 251 l-238 0 l-169 -251 l156 0 ZM826 -20 q440 2 591 123 q151 121 140 331 l-1 664 l-184 0 l1 -659 q5 -151 -120 -221 q-126 -69 -427 -68 q-302 -1 -427 68 q-125 69 -121 221 l1 659 l-184 0 l-1 -664 q-11 -210 140 -331 q151 -121 592 -123 l0 0 Z" /><glyph glyph-name="" unicode="û" d="M1074 1231 l186 0 l-334 251 l-203 0 l-336 -251 l186 0 l251 148 l250 -148 ZM1372 1098 l1 -659 q5 -151 -120 -221 q-126 -69 -427 -68 q-302 -1 -427 68 q-125 69 -121 221 l1 659 l-184 0 l-1 -664 q-11 -210 140 -331 q151 -121 592 -123 q440 2 591 123 q151 121 140 331 l-1 664 l-184 0 Z" /><glyph glyph-name="" unicode="ü" d="M628 1232 q62 -1 88 23 q26 23 25 79 q1 56 -25 80 q-26 24 -88 23 q-63 1 -89 -23 q-26 -24 -25 -80 q-1 -56 25 -79 q26 -24 89 -23 l0 0 ZM1021 1232 q62 -1 88 23 q26 23 25 79 q1 56 -25 80 q-26 24 -88 23 q-63 1 -89 -23 q-26 -24 -25 -80 q-1 -56 25 -79 q26 -24 89 -23 l0 0 ZM826 -20 q440 2 591 123 q151 121 140 331 l-1 664 l-184 0 l1 -659 q5 -151 -120 -221 q-126 -69 -427 -68 q-302 -1 -427 68 q-125 69 -121 221 l1 659 l-184 0 l-1 -664 q-11 -210 140 -331 q151 -121 592 -123 l0 0 Z" /><glyph glyph-name="" unicode="ù" d="M938 1231 l-169 251 l-238 0 l251 -251 l156 0 ZM826 -20 q440 2 591 123 q151 121 140 331 l-1 664 l-184 0 l1 -659 q5 -151 -120 -221 q-126 -69 -427 -68 q-302 -1 -427 68 q-125 69 -121 221 l1 659 l-184 0 l-1 -664 q-11 -210 140 -331 q151 -121 592 -123 l0 0 Z" /><glyph glyph-name="" unicode="&#x170;" d="M1117 1233 l251 251 l-238 0 l-169 -251 l156 0 ZM693 1231 l251 251 l-238 0 l-169 -251 l156 0 ZM826 -20 q440 2 591 123 q151 121 140 331 l-1 664 l-184 0 l1 -659 q5 -151 -120 -221 q-126 -69 -427 -68 q-302 -1 -427 68 q-125 69 -121 221 l1 659 l-184 0 l-1 -664 q-11 -210 140 -331 q151 -121 592 -123 l0 0 Z" /><glyph glyph-name="" unicode="&#x16a;" d="M1115 1232 l0 145 l-583 0 l0 -145 l583 0 ZM826 -20 q440 2 591 123 q151 121 140 331 l-1 664 l-184 0 l1 -659 q5 -151 -120 -221 q-126 -69 -427 -68 q-302 -1 -427 68 q-125 69 -121 221 l1 659 l-184 0 l-1 -664 q-11 -210 140 -331 q151 -121 592 -123 l0 0 Z" /><glyph glyph-name="" unicode="&#x172;" d="M926 -18 q378 16 509 135 q131 119 122 317 l-1 664 l-184 0 l1 -659 q5 -151 -120 -221 q-126 -69 -427 -68 q-302 -1 -427 68 q-125 69 -121 221 l1 659 l-184 0 l-1 -664 q-10 -204 131 -324 q140 -120 549 -130 q-77 -63 -118 -124 q-40 -61 -40 -135 q-2 -77 61 -120 q64 -43 222 -44 l78 0 l0 159 l-60 0 q-60 0 -88 19 q-28 20 -28 63 q-2 30 25 73 q27 42 100 111 l0 0 Z" /><glyph glyph-name="" unicode="&#x16e;" d="M825 1232 q149 -2 224 33 q76 35 76 132 q4 74 -60 120 q-64 47 -240 48 q-149 2 -225 -34 q-76 -36 -76 -134 q-4 -72 60 -118 q64 -45 241 -47 l0 0 ZM825 1453 q108 1 144 -11 q36 -12 33 -44 q4 -23 -28 -38 q-32 -14 -149 -15 q-109 -1 -145 11 q-37 11 -34 42 q-4 24 28 39 q33 15 151 16 l0 0 ZM1372 1098 l1 -659 q5 -151 -120 -221 q-126 -69 -427 -68 q-302 -1 -427 68 q-125 69 -121 221 l1 659 l-184 0 l-1 -664 q-11 -210 140 -331 q151 -121 592 -123 q440 2 591 123 q151 121 140 331 l-1 664 l-184 0 Z" /><glyph glyph-name="" unicode="v" d="M817 140 l-570 957 l-227 0 l675 -1097 l244 0 l674 1097 l-225 0 l-571 -957 Z" /><glyph glyph-name="" unicode="w" d="M1694 184 l-389 913 l-256 0 l-389 -912 l-422 912 l-218 0 l526 -1097 l232 0 l399 925 l398 -925 l233 0 l526 1097 l-218 0 l-422 -913 Z" /><glyph glyph-name="" unicode="&#x1e82;" d="M1246 1482 l-169 -251 l156 0 l251 251 l-238 0 ZM1694 184 l-389 913 l-256 0 l-389 -912 l-422 912 l-218 0 l526 -1097 l232 0 l399 925 l398 -925 l233 0 l526 1097 l-218 0 l-422 -913 Z" /><glyph glyph-name="" unicode="&#x174;" d="M1428 1231 l186 0 l-334 251 l-203 0 l-336 -251 l186 0 l251 148 l250 -148 ZM1694 184 l-389 913 l-256 0 l-389 -912 l-422 912 l-218 0 l526 -1097 l232 0 l399 925 l398 -925 l233 0 l526 1097 l-218 0 l-422 -913 Z" /><glyph glyph-name="" unicode="&#x1e84;" d="M981 1232 q62 -1 88 23 q26 23 25 79 q1 56 -25 80 q-26 24 -88 23 q-63 1 -89 -23 q-26 -24 -25 -80 q-1 -56 25 -79 q26 -24 89 -23 l0 0 ZM1374 1232 q62 -1 88 23 q26 23 25 79 q1 56 -25 80 q-26 24 -88 23 q-63 1 -89 -23 q-26 -24 -25 -80 q-1 -56 25 -79 q26 -24 89 -23 l0 0 ZM1694 184 l-389 913 l-256 0 l-389 -912 l-422 912 l-218 0 l526 -1097 l232 0 l399 925 l398 -925 l233 0 l526 1097 l-218 0 l-422 -913 Z" /><glyph glyph-name="" unicode="&#x1e80;" d="M1123 1482 l-238 0 l251 -251 l156 0 l-169 251 ZM1694 184 l-389 913 l-256 0 l-389 -912 l-422 912 l-218 0 l526 -1097 l232 0 l399 925 l398 -925 l233 0 l526 1097 l-218 0 l-422 -913 Z" /><glyph glyph-name="" unicode="x" d="M994 560 l666 537 l-270 0 l-531 -428 l-530 428 l-265 0 l662 -535 l-696 -562 l270 0 l561 453 l560 -453 l265 0 l-692 560 Z" /><glyph glyph-name="" unicode="y" d="M863 634 l-571 463 l-272 0 l751 -611 l0 -486 l184 0 l0 486 l749 611 l-272 0 l-569 -463 Z" /><glyph glyph-name="" unicode="ý" d="M932 1482 l-169 -251 l156 0 l251 251 l-238 0 ZM863 634 l-571 463 l-272 0 l751 -611 l0 -486 l184 0 l0 486 l749 611 l-272 0 l-569 -463 Z" /><glyph glyph-name="" unicode="&#x176;" d="M1114 1231 l186 0 l-334 251 l-203 0 l-336 -251 l186 0 l251 148 l250 -148 ZM863 634 l-571 463 l-272 0 l751 -611 l0 -486 l184 0 l0 486 l749 611 l-272 0 l-569 -463 Z" /><glyph glyph-name="" unicode="&#x178;" d="M668 1232 q62 -1 88 23 q26 23 25 79 q1 56 -25 80 q-26 24 -88 23 q-63 1 -89 -23 q-26 -24 -25 -80 q-1 -56 25 -79 q26 -24 89 -23 l0 0 ZM1061 1232 q62 -1 88 23 q26 23 25 79 q1 56 -25 80 q-26 24 -88 23 q-63 1 -89 -23 q-26 -24 -25 -80 q-1 -56 25 -79 q26 -24 89 -23 l0 0 ZM863 634 l-571 463 l-272 0 l751 -611 l0 -486 l184 0 l0 486 l749 611 l-272 0 l-569 -463 Z" /><glyph glyph-name="" unicode="&#x1ef2;" d="M809 1482 l-238 0 l251 -251 l156 0 l-169 251 ZM863 634 l-571 463 l-272 0 l751 -611 l0 -486 l184 0 l0 486 l749 611 l-272 0 l-569 -463 Z" /><glyph glyph-name="" unicode="z" d="M134 1097 l0 -170 l642 0 q72 0 159 3 q88 2 167 9 l-1039 -766 l0 -173 l1285 0 l0 173 l-746 0 q-53 0 -129 -2 q-76 -3 -146 -11 l1042 767 l0 170 l-1235 0 Z" /><glyph glyph-name="" unicode="&#x179;" d="M784 1482 l-169 -251 l156 0 l251 251 l-238 0 ZM134 1097 l0 -170 l642 0 q72 0 159 3 q88 2 167 9 l-1039 -766 l0 -173 l1285 0 l0 173 l-746 0 q-53 0 -129 -2 q-76 -3 -146 -11 l1042 767 l0 170 l-1235 0 Z" /><glyph glyph-name="" unicode="&#x17d;" d="M1156 1480 l-186 0 l-250 -148 l-251 148 l-186 0 l336 -251 l203 0 l334 251 ZM134 1097 l0 -170 l642 0 q72 0 159 3 q88 2 167 9 l-1039 -766 l0 -173 l1285 0 l0 173 l-746 0 q-53 0 -129 -2 q-76 -3 -146 -11 l1042 767 l0 170 l-1235 0 Z" /><glyph glyph-name="" unicode="&#x17b;" d="M716 1232 q62 -1 88 23 q26 23 25 79 q1 56 -25 80 q-26 24 -88 23 q-63 1 -89 -23 q-26 -24 -25 -80 q-1 -56 25 -79 q26 -24 89 -23 l0 0 ZM134 1097 l0 -170 l642 0 q72 0 159 3 q88 2 167 9 l-1039 -766 l0 -173 l1285 0 l0 173 l-746 0 q-53 0 -129 -2 q-76 -3 -146 -11 l1042 767 l0 170 l-1235 0 Z" /><glyph glyph-name="" unicode="a" d="M1429 459 q9 232 -121 340 q-130 108 -529 107 q-326 2 -461 -50 q-134 -52 -189 -184 l190 0 q33 46 137 60 q105 13 323 12 q301 2 390 -61 q90 -63 84 -216 q-60 58 -190 82 q-131 24 -346 23 q-367 1 -506 -71 q-140 -72 -133 -224 q-7 -164 133 -231 q139 -67 506 -65 q248 0 384 35 q136 36 185 113 q34 -76 113 -103 q80 -28 215 -26 l0 162 q-126 -7 -157 48 q-31 54 -28 249 l0 0 ZM717 138 q-279 -2 -374 29 q-96 30 -89 110 q-7 69 88 105 q95 36 375 36 q319 1 431 -30 q111 -31 104 -106 q7 -73 -104 -108 q-112 -36 -431 -36 l0 0 Z" /><glyph glyph-name="" unicode="á" d="M871 1252 l-169 -251 l156 0 l251 251 l-238 0 ZM1429 459 q9 232 -121 340 q-130 108 -529 107 q-326 2 -461 -50 q-134 -52 -189 -184 l190 0 q33 46 137 60 q105 13 323 12 q301 2 390 -61 q90 -63 84 -216 q-60 58 -190 82 q-131 24 -346 23 q-367 1 -506 -71 q-140 -72 -133 -224 q-7 -164 133 -231 q139 -67 506 -65 q248 0 384 35 q136 36 185 113 q34 -76 113 -103 q80 -28 215 -26 l0 162 q-126 -7 -157 48 q-31 54 -28 249 l0 0 ZM717 138 q-279 -2 -374 29 q-96 30 -89 110 q-7 69 88 105 q95 36 375 36 q319 1 431 -30 q111 -31 104 -106 q7 -73 -104 -108 q-112 -36 -431 -36 l0 0 Z" /><glyph glyph-name="" unicode="&#x103;" d="M801 1002 q128 -2 221 49 q93 51 136 175 l-161 0 q-21 -41 -70 -65 q-49 -24 -126 -25 q-76 1 -124 25 q-48 24 -69 65 l-161 0 q42 -124 134 -175 q93 -51 220 -49 l0 0 ZM1429 459 q9 232 -121 340 q-130 108 -529 107 q-326 2 -461 -50 q-134 -52 -189 -184 l190 0 q33 46 137 60 q105 13 323 12 q301 2 390 -61 q90 -63 84 -216 q-60 58 -190 82 q-131 24 -346 23 q-367 1 -506 -71 q-140 -72 -133 -224 q-7 -164 133 -231 q139 -67 506 -65 q248 0 384 35 q136 36 185 113 q34 -76 113 -103 q80 -28 215 -26 l0 162 q-126 -7 -157 48 q-31 54 -28 249 l0 0 ZM717 138 q-279 -2 -374 29 q-96 30 -89 110 q-7 69 88 105 q95 36 375 36 q319 1 431 -30 q111 -31 104 -106 q7 -73 -104 -108 q-112 -36 -431 -36 l0 0 Z" /><glyph glyph-name="" unicode="â" d="M1053 1001 l186 0 l-334 251 l-203 0 l-336 -251 l186 0 l251 148 l250 -148 ZM1429 459 q9 232 -121 340 q-130 108 -529 107 q-326 2 -461 -50 q-134 -52 -189 -184 l190 0 q33 46 137 60 q105 13 323 12 q301 2 390 -61 q90 -63 84 -216 q-60 58 -190 82 q-131 24 -346 23 q-367 1 -506 -71 q-140 -72 -133 -224 q-7 -164 133 -231 q139 -67 506 -65 q248 0 384 35 q136 36 185 113 q34 -76 113 -103 q80 -28 215 -26 l0 162 q-126 -7 -157 48 q-31 54 -28 249 l0 0 ZM717 138 q-279 -2 -374 29 q-96 30 -89 110 q-7 69 88 105 q95 36 375 36 q319 1 431 -30 q111 -31 104 -106 q7 -73 -104 -108 q-112 -36 -431 -36 l0 0 Z" /><glyph glyph-name="" unicode="ä" d="M607 1002 q62 -1 88 23 q26 23 25 79 q1 56 -25 80 q-26 24 -88 23 q-63 1 -89 -23 q-26 -24 -25 -80 q-1 -56 25 -79 q26 -24 89 -23 l0 0 ZM1000 1002 q62 -1 88 23 q26 23 25 79 q1 56 -25 80 q-26 24 -88 23 q-63 1 -89 -23 q-26 -24 -25 -80 q-1 -56 25 -79 q26 -24 89 -23 l0 0 ZM1429 459 q9 232 -121 340 q-130 108 -529 107 q-326 2 -461 -50 q-134 -52 -189 -184 l190 0 q33 46 137 60 q105 13 323 12 q301 2 390 -61 q90 -63 84 -216 q-60 58 -190 82 q-131 24 -346 23 q-367 1 -506 -71 q-140 -72 -133 -224 q-7 -164 133 -231 q139 -67 506 -65 q248 0 384 35 q136 36 185 113 q34 -76 113 -103 q80 -28 215 -26 l0 162 q-126 -7 -157 48 q-31 54 -28 249 l0 0 ZM717 138 q-279 -2 -374 29 q-96 30 -89 110 q-7 69 88 105 q95 36 375 36 q319 1 431 -30 q111 -31 104 -106 q7 -73 -104 -108 q-112 -36 -431 -36 l0 0 Z" /><glyph glyph-name="" unicode="à" d="M748 1252 l-238 0 l251 -251 l156 0 l-169 251 ZM1429 459 q9 232 -121 340 q-130 108 -529 107 q-326 2 -461 -50 q-134 -52 -189 -184 l190 0 q33 46 137 60 q105 13 323 12 q301 2 390 -61 q90 -63 84 -216 q-60 58 -190 82 q-131 24 -346 23 q-367 1 -506 -71 q-140 -72 -133 -224 q-7 -164 133 -231 q139 -67 506 -65 q248 0 384 35 q136 36 185 113 q34 -76 113 -103 q80 -28 215 -26 l0 162 q-126 -7 -157 48 q-31 54 -28 249 l0 0 ZM717 138 q-279 -2 -374 29 q-96 30 -89 110 q-7 69 88 105 q95 36 375 36 q319 1 431 -30 q111 -31 104 -106 q7 -73 -104 -108 q-112 -36 -431 -36 l0 0 Z" /><glyph glyph-name="" unicode="&#x101;" d="M511 1147 l0 -145 l583 0 l0 145 l-583 0 ZM1429 459 q9 232 -121 340 q-130 108 -529 107 q-326 2 -461 -50 q-134 -52 -189 -184 l190 0 q33 46 137 60 q105 13 323 12 q301 2 390 -61 q90 -63 84 -216 q-60 58 -190 82 q-131 24 -346 23 q-367 1 -506 -71 q-140 -72 -133 -224 q-7 -164 133 -231 q139 -67 506 -65 q248 0 384 35 q136 36 185 113 q34 -76 113 -103 q80 -28 215 -26 l0 162 q-126 -7 -157 48 q-31 54 -28 249 l0 0 ZM717 138 q-279 -2 -374 29 q-96 30 -89 110 q-7 69 88 105 q95 36 375 36 q319 1 431 -30 q111 -31 104 -106 q7 -73 -104 -108 q-112 -36 -431 -36 l0 0 Z" /><glyph glyph-name="" unicode="&#x105;" d="M1480 -209 q-2 32 27 84 q29 51 108 125 l-1 0 l0 162 q-126 -7 -157 48 q-31 54 -28 249 q9 232 -121 340 q-130 108 -529 107 q-326 2 -461 -50 q-134 -52 -189 -184 l190 0 q33 46 137 60 q105 13 323 12 q301 2 390 -61 q90 -63 84 -216 q-60 58 -190 82 q-131 24 -346 23 q-367 1 -506 -71 q-140 -72 -133 -224 q-7 -164 133 -231 q139 -67 506 -65 q248 0 384 35 q136 36 185 113 q24 -53 69 -82 q46 -28 117 -39 q-73 -60 -119 -129 q-46 -70 -48 -145 q-3 -78 57 -123 q61 -46 225 -41 l0 141 q-53 -6 -80 15 q-27 21 -27 65 l0 0 ZM717 138 q-279 -2 -374 29 q-96 30 -89 110 q-7 69 88 105 q95 36 375 36 q319 1 431 -30 q111 -31 104 -106 q7 -73 -104 -108 q-112 -36 -431 -36 l0 0 Z" /><glyph glyph-name="" unicode="å" d="M804 1002 q149 -2 224 33 q76 35 76 132 q4 74 -60 120 q-64 47 -240 48 q-149 2 -225 -34 q-76 -36 -76 -134 q-4 -72 60 -118 q64 -45 241 -47 l0 0 ZM804 1223 q108 1 144 -11 q36 -12 33 -44 q4 -23 -28 -38 q-32 -14 -149 -15 q-109 -1 -145 11 q-37 11 -34 42 q-4 24 28 39 q33 15 151 16 l0 0 ZM1429 459 q9 232 -121 340 q-130 108 -529 107 q-326 2 -461 -50 q-134 -52 -189 -184 l190 0 q33 46 137 60 q105 13 323 12 q301 2 390 -61 q90 -63 84 -216 q-60 58 -190 82 q-131 24 -346 23 q-367 1 -506 -71 q-140 -72 -133 -224 q-7 -164 133 -231 q139 -67 506 -65 q248 0 384 35 q136 36 185 113 q34 -76 113 -103 q80 -28 215 -26 l0 162 q-126 -7 -157 48 q-31 54 -28 249 l0 0 ZM717 138 q-279 -2 -374 29 q-96 30 -89 110 q-7 69 88 105 q95 36 375 36 q319 1 431 -30 q111 -31 104 -106 q7 -73 -104 -108 q-112 -36 -431 -36 l0 0 Z" /><glyph glyph-name="" unicode="ã" d="M652 1075 q72 -5 136 -37 q64 -32 147 -37 q112 2 177 60 q65 58 95 146 l-130 0 q-18 -27 -47 -49 q-29 -22 -75 -23 q-78 5 -140 37 q-61 31 -143 36 q-115 -2 -182 -59 q-66 -58 -92 -147 l131 0 q18 28 47 50 q29 22 76 23 l0 0 ZM1429 459 q9 232 -121 340 q-130 108 -529 107 q-326 2 -461 -50 q-134 -52 -189 -184 l190 0 q33 46 137 60 q105 13 323 12 q301 2 390 -61 q90 -63 84 -216 q-60 58 -190 82 q-131 24 -346 23 q-367 1 -506 -71 q-140 -72 -133 -224 q-7 -164 133 -231 q139 -67 506 -65 q248 0 384 35 q136 36 185 113 q34 -76 113 -103 q80 -28 215 -26 l0 162 q-126 -7 -157 48 q-31 54 -28 249 l0 0 ZM717 138 q-279 -2 -374 29 q-96 30 -89 110 q-7 69 88 105 q95 36 375 36 q319 1 431 -30 q111 -31 104 -106 q7 -73 -104 -108 q-112 -36 -431 -36 l0 0 Z" /><glyph glyph-name="" unicode="æ" d="M2651 534 q6 178 -147 275 q-153 97 -538 98 q-262 0 -406 -48 q-145 -48 -203 -143 q-42 98 -177 145 q-135 46 -407 46 q-333 2 -469 -48 q-137 -51 -191 -183 l190 0 q32 46 139 58 q106 13 331 11 q307 2 398 -57 q92 -60 86 -201 q-69 52 -202 76 q-134 24 -344 24 q-374 1 -515 -69 q-141 -71 -134 -222 q-7 -164 134 -237 q141 -72 515 -71 q281 -1 440 40 q160 40 213 129 q60 -87 203 -128 q143 -40 399 -40 q332 -2 472 50 q139 53 193 184 l-190 0 q-32 -46 -142 -60 q-110 -13 -333 -12 q-283 -1 -400 51 q-117 51 -129 170 l1214 0 l0 162 ZM1440 534 q18 115 136 164 q118 48 390 47 q299 2 407 -47 q108 -48 103 -164 l-1036 0 ZM711 151 q-286 -1 -383 32 q-97 32 -90 113 q-7 68 90 98 q96 31 383 30 q326 1 439 -30 q114 -30 106 -105 q8 -74 -106 -106 q-113 -33 -439 -32 l0 0 Z" /><glyph glyph-name="" unicode="b" d="M832 906 q-233 -1 -360 -48 q-127 -46 -179 -124 l0 363 l-176 0 l0 -1097 l176 0 l0 152 q51 -79 178 -125 q127 -46 361 -47 q408 -2 565 110 q158 112 151 356 q7 243 -151 353 q-158 109 -565 107 l0 0 ZM832 142 q-321 1 -432 80 q-112 79 -104 228 q-6 144 110 219 q116 75 426 75 q321 2 434 -67 q113 -69 106 -231 q7 -163 -106 -234 q-113 -72 -434 -70 l0 0 Z" /><glyph glyph-name="" unicode="c" d="M804 142 q-328 -1 -443 68 q-115 70 -107 228 q-8 167 107 238 q115 71 443 69 q298 2 400 -48 q101 -50 94 -170 l176 0 q7 209 -138 296 q-146 87 -532 84 q-417 3 -576 -105 q-158 -108 -150 -364 q-8 -248 150 -354 q159 -107 576 -104 q386 -2 532 90 q145 92 138 302 l-176 0 q7 -120 -94 -175 q-102 -56 -400 -55 l0 0 Z" /><glyph glyph-name="" unicode="&#x107;" d="M865 1252 l-169 -251 l156 0 l251 251 l-238 0 ZM804 142 q-328 -1 -443 68 q-115 70 -107 228 q-8 167 107 238 q115 71 443 69 q298 2 400 -48 q101 -50 94 -170 l176 0 q7 209 -138 296 q-146 87 -532 84 q-417 3 -576 -105 q-158 -108 -150 -364 q-8 -248 150 -354 q159 -107 576 -104 q386 -2 532 90 q145 92 138 302 l-176 0 q7 -120 -94 -175 q-102 -56 -400 -55 l0 0 Z" /><glyph glyph-name="" unicode="&#x10d;" d="M1237 1250 l-186 0 l-250 -148 l-251 148 l-186 0 l336 -251 l203 0 l334 251 ZM804 142 q-328 -1 -443 68 q-115 70 -107 228 q-8 167 107 238 q115 71 443 69 q298 2 400 -48 q101 -50 94 -170 l176 0 q7 209 -138 296 q-146 87 -532 84 q-417 3 -576 -105 q-158 -108 -150 -364 q-8 -248 150 -354 q159 -107 576 -104 q386 -2 532 90 q145 92 138 302 l-176 0 q7 -120 -94 -175 q-102 -56 -400 -55 l0 0 Z" /><glyph glyph-name="" unicode="ç" d="M804 142 q-328 -1 -443 68 q-115 70 -107 228 q-8 167 107 238 q115 71 443 69 q298 2 400 -48 q101 -50 94 -170 l176 0 q7 209 -138 296 q-146 87 -532 84 q-417 3 -576 -105 q-158 -108 -150 -364 q-7 -238 138 -345 q144 -108 522 -112 l0 -162 q2 1 25 1 q23 0 82 0 q41 1 61 -11 q20 -11 20 -42 q1 -20 -14 -31 q-15 -10 -57 -10 q-32 0 -75 6 q-44 6 -117 21 l0 -90 q68 -17 115 -26 q47 -8 82 -8 q97 -2 144 29 q47 30 47 113 q1 78 -40 108 q-42 31 -136 30 l-17 0 l0 71 q354 4 488 97 q135 93 128 295 l-176 0 q7 -120 -94 -175 q-102 -56 -400 -55 l0 0 Z" /><glyph glyph-name="" unicode="&#x10b;" d="M797 1002 q62 -1 88 23 q26 23 25 79 q1 56 -25 80 q-26 24 -88 23 q-63 1 -89 -23 q-26 -24 -25 -80 q-1 -56 25 -79 q26 -24 89 -23 l0 0 ZM804 142 q-328 -1 -443 68 q-115 70 -107 228 q-8 167 107 238 q115 71 443 69 q298 2 400 -48 q101 -50 94 -170 l176 0 q7 209 -138 296 q-146 87 -532 84 q-417 3 -576 -105 q-158 -108 -150 -364 q-8 -248 150 -354 q159 -107 576 -104 q386 -2 532 90 q145 92 138 302 l-176 0 q7 -120 -94 -175 q-102 -56 -400 -55 l0 0 Z" /><glyph glyph-name="" unicode="d" d="M1333 734 q-52 78 -179 124 q-127 47 -359 48 q-408 2 -566 -107 q-158 -110 -151 -353 q-7 -244 151 -356 q158 -112 566 -110 q232 1 359 47 q127 45 179 124 l0 -151 l176 0 l0 1097 l-176 0 l0 -363 ZM795 142 q-321 -2 -434 70 q-113 71 -106 234 q-7 162 105 231 q113 69 435 67 q310 0 426 -75 q116 -75 110 -219 q7 -149 -104 -228 q-112 -79 -432 -80 l0 0 Z" /><glyph glyph-name="" unicode="ð" d="M888 1123 l-162 46 l-28 -101 q-96 14 -203 22 q-107 7 -224 7 l-110 -146 q140 0 265 -7 q125 -7 233 -23 l-31 -112 l161 -46 l35 126 q171 -42 271 -121 q100 -80 119 -203 q-46 40 -152 71 q-107 31 -330 33 q-393 -3 -534 -100 q-141 -98 -133 -248 q-10 -154 127 -242 q137 -88 539 -90 q414 -1 547 117 q132 118 121 360 q-2 224 -142 364 q-139 140 -394 204 l25 89 ZM731 159 q-279 -1 -391 35 q-112 35 -108 119 q-5 95 106 141 q111 45 394 45 q291 1 394 -36 q104 -37 97 -120 q3 -111 -112 -149 q-115 -38 -380 -35 l0 0 Z" /><glyph glyph-name="" unicode="&#x10f;" d="M1549 847 l156 0 l101 251 l-195 0 l-62 -251 ZM1333 734 q-52 78 -179 124 q-127 47 -359 48 q-408 2 -566 -107 q-158 -110 -151 -353 q-7 -244 151 -356 q158 -112 566 -110 q232 1 359 47 q127 45 179 124 l0 -151 l176 0 l0 1097 l-176 0 l0 -363 ZM795 142 q-321 -2 -434 70 q-113 71 -106 234 q-7 162 105 231 q113 69 435 67 q310 0 426 -75 q116 -75 110 -219 q7 -149 -104 -228 q-112 -79 -432 -80 l0 0 Z" /><glyph glyph-name="" unicode="&#x111;" d="M1509 549 l0 548 l-176 0 l0 -363 q-52 78 -179 124 q-127 47 -359 48 q-408 2 -566 -107 q-158 -110 -151 -353 q-7 -244 151 -356 q158 -112 566 -110 q232 1 359 47 q127 45 179 124 l0 -151 l176 0 l0 391 l135 0 l0 158 l-135 0 ZM795 142 q-321 -2 -434 70 q-113 71 -106 234 q-7 162 105 231 q113 69 435 67 q253 0 374 -49 q121 -50 149 -146 l-163 0 l0 -158 l172 0 q-10 -121 -127 -184 q-117 -64 -405 -65 l0 0 Z" /><glyph glyph-name="" unicode="e" d="M1474 526 q6 177 -146 278 q-152 100 -539 102 q-386 0 -551 -112 q-164 -113 -160 -344 q-7 -240 149 -355 q155 -116 562 -115 q329 -2 469 54 q141 56 195 189 l-189 0 q-33 -46 -143 -64 q-109 -18 -332 -17 q-278 -2 -395 48 q-118 49 -132 174 l1212 0 l0 162 ZM262 526 q11 127 124 174 q114 47 403 44 q300 1 408 -51 q108 -52 101 -167 l-1036 0 Z" /><glyph glyph-name="" unicode="é" d="M874 1252 l-169 -251 l156 0 l251 251 l-238 0 ZM1474 526 q6 177 -146 278 q-152 100 -539 102 q-386 0 -551 -112 q-164 -113 -160 -344 q-7 -240 149 -355 q155 -116 562 -115 q329 -2 469 54 q141 56 195 189 l-189 0 q-33 -46 -143 -64 q-109 -18 -332 -17 q-278 -2 -395 48 q-118 49 -132 174 l1212 0 l0 162 ZM262 526 q11 127 124 174 q114 47 403 44 q300 1 408 -51 q108 -52 101 -167 l-1036 0 Z" /><glyph glyph-name="" unicode="&#x11b;" d="M1246 1250 l-186 0 l-250 -148 l-251 148 l-186 0 l336 -251 l203 0 l334 251 ZM1474 526 q6 177 -146 278 q-152 100 -539 102 q-386 0 -551 -112 q-164 -113 -160 -344 q-7 -240 149 -355 q155 -116 562 -115 q329 -2 469 54 q141 56 195 189 l-189 0 q-33 -46 -143 -64 q-109 -18 -332 -17 q-278 -2 -395 48 q-118 49 -132 174 l1212 0 l0 162 ZM262 526 q11 127 124 174 q114 47 403 44 q300 1 408 -51 q108 -52 101 -167 l-1036 0 Z" /><glyph glyph-name="" unicode="ê" d="M1057 1001 l186 0 l-334 251 l-203 0 l-336 -251 l186 0 l251 148 l250 -148 ZM1474 526 q6 177 -146 278 q-152 100 -539 102 q-386 0 -551 -112 q-164 -113 -160 -344 q-7 -240 149 -355 q155 -116 562 -115 q329 -2 469 54 q141 56 195 189 l-189 0 q-33 -46 -143 -64 q-109 -18 -332 -17 q-278 -2 -395 48 q-118 49 -132 174 l1212 0 l0 162 ZM262 526 q11 127 124 174 q114 47 403 44 q300 1 408 -51 q108 -52 101 -167 l-1036 0 Z" /><glyph glyph-name="" unicode="ë" d="M610 1002 q62 -1 88 23 q26 23 25 79 q1 56 -25 80 q-26 24 -88 23 q-63 1 -89 -23 q-26 -24 -25 -80 q-1 -56 25 -79 q26 -24 89 -23 l0 0 ZM1003 1002 q62 -1 88 23 q26 23 25 79 q1 56 -25 80 q-26 24 -88 23 q-63 1 -89 -23 q-26 -24 -25 -80 q-1 -56 25 -79 q26 -24 89 -23 l0 0 ZM1474 526 q6 177 -146 278 q-152 100 -539 102 q-386 0 -551 -112 q-164 -113 -160 -344 q-7 -240 149 -355 q155 -116 562 -115 q329 -2 469 54 q141 56 195 189 l-189 0 q-33 -46 -143 -64 q-109 -18 -332 -17 q-278 -2 -395 48 q-118 49 -132 174 l1212 0 l0 162 ZM262 526 q11 127 124 174 q114 47 403 44 q300 1 408 -51 q108 -52 101 -167 l-1036 0 Z" /><glyph glyph-name="" unicode="&#x117;" d="M806 1002 q62 -1 88 23 q26 23 25 79 q1 56 -25 80 q-26 24 -88 23 q-63 1 -89 -23 q-26 -24 -25 -80 q-1 -56 25 -79 q26 -24 89 -23 l0 0 ZM1474 526 q6 177 -146 278 q-152 100 -539 102 q-386 0 -551 -112 q-164 -113 -160 -344 q-7 -240 149 -355 q155 -116 562 -115 q329 -2 469 54 q141 56 195 189 l-189 0 q-33 -46 -143 -64 q-109 -18 -332 -17 q-278 -2 -395 48 q-118 49 -132 174 l1212 0 l0 162 ZM262 526 q11 127 124 174 q114 47 403 44 q300 1 408 -51 q108 -52 101 -167 l-1036 0 Z" /><glyph glyph-name="" unicode="è" d="M751 1252 l-238 0 l251 -251 l156 0 l-169 251 ZM1474 526 q6 177 -146 278 q-152 100 -539 102 q-386 0 -551 -112 q-164 -113 -160 -344 q-7 -240 149 -355 q155 -116 562 -115 q329 -2 469 54 q141 56 195 189 l-189 0 q-33 -46 -143 -64 q-109 -18 -332 -17 q-278 -2 -395 48 q-118 49 -132 174 l1212 0 l0 162 ZM262 526 q11 127 124 174 q114 47 403 44 q300 1 408 -51 q108 -52 101 -167 l-1036 0 Z" /><glyph glyph-name="" unicode="&#x113;" d="M515 1147 l0 -145 l583 0 l0 145 l-583 0 ZM1474 526 q6 177 -146 278 q-152 100 -539 102 q-386 0 -551 -112 q-164 -113 -160 -344 q-7 -240 149 -355 q155 -116 562 -115 q329 -2 469 54 q141 56 195 189 l-189 0 q-33 -46 -143 -64 q-109 -18 -332 -17 q-278 -2 -395 48 q-118 49 -132 174 l1212 0 l0 162 ZM262 526 q11 127 124 174 q114 47 403 44 q300 1 408 -51 q108 -52 101 -167 l-1036 0 Z" /><glyph glyph-name="" unicode="&#x119;" d="M1474 526 q6 177 -146 278 q-152 100 -539 102 q-386 0 -551 -112 q-164 -113 -160 -344 q-7 -240 149 -355 q155 -116 562 -115 q104 0 187 5 q83 5 147 15 q-25 -36 -38 -74 q-14 -38 -14 -77 q-3 -78 57 -123 q61 -46 225 -41 l0 141 q-53 -6 -80 15 q-27 21 -27 65 q-1 28 21 73 q22 44 82 105 q34 26 59 61 q25 35 45 78 l-189 0 q-33 -46 -143 -64 q-109 -18 -332 -17 q-278 -2 -395 48 q-118 49 -132 174 l1212 0 l0 162 ZM262 526 q11 127 124 174 q114 47 403 44 q300 1 408 -51 q108 -52 101 -167 l-1036 0 Z" /><glyph glyph-name="" unicode="&#x259;" d="M763 906 q-329 2 -469 -54 q-141 -56 -195 -189 l189 0 q33 46 143 64 q109 18 332 17 q278 2 396 -48 q117 -49 131 -174 l-1212 0 l0 -162 q-6 -177 146 -278 q152 -100 539 -102 q386 0 551 112 q164 113 160 344 q7 240 -148 355 q-156 116 -563 115 l0 0 ZM763 142 q-300 -1 -408 51 q-108 52 -101 167 l1036 0 q-11 -126 -124 -173 q-114 -47 -403 -45 l0 0 Z" /><glyph glyph-name="" unicode="f" d="M454 655 q-8 165 69 231 q77 65 343 62 q188 1 271 -18 q82 -20 91 -76 l188 0 q-23 139 -145 198 q-122 60 -405 58 q-337 3 -464 -100 q-127 -104 -123 -356 l0 -3 l-229 0 l0 -162 l229 0 l0 -489 l176 0 l-1 489 l785 0 l0 162 l-785 0 l0 4 Z" /><glyph glyph-name="" unicode="g" d="M1289 795 q-59 59 -192 86 q-133 26 -362 26 q-380 1 -522 -66 q-142 -68 -135 -219 q-7 -165 135 -238 q143 -73 522 -72 q229 0 362 27 q133 27 192 85 l0 -101 q9 -95 -94 -138 q-103 -44 -429 -43 q-229 -1 -330 12 q-102 14 -133 60 l-213 0 q53 -130 193 -183 q140 -53 483 -51 q414 -1 561 81 q147 82 138 262 l0 547 l-176 0 l0 -75 ZM735 474 q-293 -1 -390 33 q-98 34 -91 115 q-7 67 91 96 q98 28 390 27 q331 1 446 -30 q114 -30 106 -105 q8 -75 -106 -106 q-115 -31 -446 -30 l0 0 Z" /><glyph glyph-name="" unicode="&#x11f;" d="M809 1002 q128 -2 221 49 q93 51 136 175 l-161 0 q-21 -41 -70 -65 q-49 -24 -126 -25 q-76 1 -124 25 q-48 24 -69 65 l-161 0 q42 -124 134 -175 q93 -51 220 -49 l0 0 ZM1289 795 q-59 59 -192 86 q-133 26 -362 26 q-380 1 -522 -66 q-142 -68 -135 -219 q-7 -165 135 -238 q143 -73 522 -72 q229 0 362 27 q133 27 192 85 l0 -101 q9 -95 -94 -138 q-103 -44 -429 -43 q-229 -1 -330 12 q-102 14 -133 60 l-213 0 q53 -130 193 -183 q140 -53 483 -51 q414 -1 561 81 q147 82 138 262 l0 547 l-176 0 l0 -75 ZM735 474 q-293 -1 -390 33 q-98 34 -91 115 q-7 67 91 96 q98 28 390 27 q331 1 446 -30 q114 -30 106 -105 q8 -75 -106 -106 q-115 -31 -446 -30 l0 0 Z" /><glyph glyph-name="" unicode="&#x123;" d="M918 1250 l-251 -251 l238 0 l169 251 l-156 0 ZM1289 795 q-59 59 -192 86 q-133 26 -362 26 q-380 1 -522 -66 q-142 -68 -135 -219 q-7 -165 135 -238 q143 -73 522 -72 q229 0 362 27 q133 27 192 85 l0 -101 q9 -95 -94 -138 q-103 -44 -429 -43 q-229 -1 -330 12 q-102 14 -133 60 l-213 0 q53 -130 193 -183 q140 -53 483 -51 q414 -1 561 81 q147 82 138 262 l0 547 l-176 0 l0 -75 ZM735 474 q-293 -1 -390 33 q-98 34 -91 115 q-7 67 91 96 q98 28 390 27 q331 1 446 -30 q114 -30 106 -105 q8 -75 -106 -106 q-115 -31 -446 -30 l0 0 Z" /><glyph glyph-name="" unicode="&#x121;" d="M811 1002 q62 -1 88 23 q26 23 25 79 q1 56 -25 80 q-26 24 -88 23 q-63 1 -89 -23 q-26 -24 -25 -80 q-1 -56 25 -79 q26 -24 89 -23 l0 0 ZM1289 795 q-59 59 -192 86 q-133 26 -362 26 q-380 1 -522 -66 q-142 -68 -135 -219 q-7 -165 135 -238 q143 -73 522 -72 q229 0 362 27 q133 27 192 85 l0 -101 q9 -95 -94 -138 q-103 -44 -429 -43 q-229 -1 -330 12 q-102 14 -133 60 l-213 0 q53 -130 193 -183 q140 -53 483 -51 q414 -1 561 81 q147 82 138 262 l0 547 l-176 0 l0 -75 ZM735 474 q-293 -1 -390 33 q-98 34 -91 115 q-7 67 91 96 q98 28 390 27 q331 1 446 -30 q114 -30 106 -105 q8 -75 -106 -106 q-115 -31 -446 -30 l0 0 Z" /><glyph glyph-name="" unicode="h" d="M846 907 q-223 1 -357 -47 q-134 -47 -196 -150 l0 387 l-176 0 l0 -1097 l176 0 l0 441 q-5 154 115 229 q120 75 424 75 q290 1 385 -68 q95 -70 87 -227 l0 -450 l176 0 l0 450 q9 243 -121 351 q-130 108 -513 106 l0 0 Z" /><glyph glyph-name="" unicode="&#x127;" d="M866 907 q-223 1 -357 -47 q-134 -47 -196 -150 l0 387 l-176 0 l0 -548 l-139 0 l0 -159 l139 0 l0 -390 l176 0 l0 390 l180 0 l0 159 l-164 0 q30 99 154 148 q123 48 369 48 q289 1 384 -68 q95 -70 87 -227 l0 -450 l176 0 l0 450 q9 243 -121 351 q-130 108 -512 106 l0 0 Z" /><glyph glyph-name="" unicode="i" d="M205 1002 q62 -1 88 23 q26 23 25 79 q1 56 -25 80 q-26 24 -88 23 q-63 1 -89 -23 q-26 -24 -25 -80 q-1 -56 25 -79 q26 -24 89 -23 l0 0 ZM293 0 l0 870 l-176 0 l0 -870 l176 0 Z" /><glyph glyph-name="" unicode="&#x131;" d="M293 0 l0 870 l-176 0 l0 -870 l176 0 Z" /><glyph glyph-name="" unicode="í" d="M261 1001 l251 251 l-238 0 l-169 -251 l156 0 ZM293 0 l0 870 l-176 0 l0 -870 l176 0 Z" /><glyph glyph-name="" unicode="î" d="M126 1252 l-239 -251 l166 0 l152 140 l152 -140 l166 0 l-239 251 l-158 0 ZM293 0 l0 870 l-176 0 l0 -870 l176 0 Z" /><glyph glyph-name="" unicode="ï" d="M49 1002 q62 -1 88 23 q26 23 25 79 q1 56 -25 80 q-26 24 -88 23 q-64 1 -90 -23 q-26 -24 -25 -80 q-1 -56 25 -79 q26 -24 90 -23 l0 0 ZM360 1002 q62 -1 88 23 q26 23 25 79 q1 56 -25 80 q-26 24 -88 23 q-63 1 -89 -23 q-26 -24 -25 -80 q-1 -56 25 -79 q26 -24 89 -23 l0 0 ZM293 0 l0 870 l-176 0 l0 -870 l176 0 Z" /><glyph glyph-name="" unicode="ì" d="M319 1001 l-169 251 l-239 0 l252 -251 l156 0 ZM293 0 l0 870 l-176 0 l0 -870 l176 0 Z" /><glyph glyph-name="" unicode="&#x133;" d="M206 1002 q62 -1 88 23 q26 23 25 79 q1 56 -25 80 q-26 24 -88 23 q-63 1 -89 -23 q-26 -24 -25 -80 q-1 -56 25 -79 q26 -24 89 -23 l0 0 ZM919 1002 q62 -1 88 23 q26 23 25 79 q1 56 -25 80 q-26 24 -88 23 q-63 1 -89 -23 q-26 -24 -25 -80 q-1 -56 25 -79 q26 -24 89 -23 l0 0 ZM293 260 l0 610 l-176 0 l0 -610 l176 0 ZM117 0 l412 0 q281 -5 383 86 q103 90 97 331 l0 453 l-179 0 l0 -448 q7 -137 -48 -199 q-56 -62 -253 -61 l-412 0 l0 -162 Z" /><glyph glyph-name="" unicode="&#x12b;" d="M466 1002 l0 145 l-521 0 l0 -145 l521 0 ZM293 0 l0 870 l-176 0 l0 -870 l176 0 Z" /><glyph glyph-name="" unicode="&#x12f;" d="M293 870 l-176 0 l0 -870 l23 0 q-69 -58 -113 -126 q-44 -68 -45 -140 q-3 -78 58 -123 q61 -46 225 -41 l0 141 q-53 -6 -80 15 q-27 21 -27 65 q-2 32 27 84 q29 51 108 125 l0 870 Z" /><glyph glyph-name="" unicode="j" d="M882 1002 q62 -1 88 23 q26 23 25 79 q1 56 -25 80 q-26 24 -88 23 q-63 1 -89 -23 q-26 -24 -25 -80 q-1 -56 25 -79 q26 -24 89 -23 l0 0 ZM478 -19 q293 -2 396 87 q103 89 96 292 l0 510 l-184 0 l1 -487 q6 -129 -54 -185 q-60 -56 -255 -55 q-178 -2 -234 24 q-57 25 -61 98 l-183 0 q9 -159 110 -223 q100 -63 368 -61 l0 0 Z" /><glyph glyph-name="" unicode="&#x237;" d="M478 -19 q293 -2 396 87 q103 89 96 292 l0 510 l-184 0 l1 -487 q6 -129 -54 -185 q-60 -56 -255 -55 q-178 -2 -234 24 q-57 25 -61 98 l-183 0 q9 -159 110 -223 q100 -63 368 -61 l0 0 Z" /><glyph glyph-name="" unicode="k" d="M1457 0 l-709 503 l702 367 l-326 0 l-831 -423 l0 650 l-176 0 l0 -1097 l176 0 l0 265 l278 145 l582 -410 l304 0 Z" /><glyph glyph-name="" unicode="&#x137;" d="M1450 870 l-326 0 l-831 -423 l0 650 l-176 0 l0 -1097 l176 0 l0 265 l278 145 l582 -410 l304 0 l-709 503 l702 367 ZM607 -342 l251 251 l-238 0 l-169 -251 l156 0 Z" /><glyph glyph-name="" unicode="l" d="M293 0 l0 1097 l-176 0 l0 -1097 l176 0 Z" /><glyph glyph-name="" unicode="&#x13a;" d="M261 1198 l251 251 l-238 0 l-169 -251 l156 0 ZM293 0 l0 1097 l-176 0 l0 -1097 l176 0 Z" /><glyph glyph-name="" unicode="&#x13e;" d="M293 0 l0 1097 l-176 0 l0 -1097 l176 0 ZM497 846 l101 251 l-196 0 l-61 -251 l156 0 Z" /><glyph glyph-name="" unicode="&#x13c;" d="M293 0 l0 1097 l-176 0 l0 -1097 l176 0 ZM85 -342 l251 251 l-238 0 l-169 -251 l156 0 Z" /><glyph glyph-name="" unicode="&#x140;" d="M293 0 l0 1097 l-176 0 l0 -1097 l176 0 ZM488 438 q62 -1 88 28 q26 28 25 97 q1 69 -25 97 q-26 29 -88 28 q-62 1 -87 -28 q-26 -28 -25 -97 q-1 -69 25 -97 q25 -29 87 -28 l0 0 Z" /><glyph glyph-name="" unicode="&#x142;" d="M398 795 l-105 -73 l0 375 l-176 0 l0 -498 l-194 -136 l92 -129 l102 71 l0 -405 l176 0 l0 528 l196 137 l-91 130 Z" /><glyph glyph-name="" unicode="m" d="M1675 906 q-175 1 -292 -47 q-116 -48 -176 -152 q-46 104 -163 152 q-117 48 -325 47 q-165 1 -270 -42 q-104 -43 -156 -136 l0 142 l-176 0 l0 -870 l176 0 l0 441 q-3 161 94 233 q96 71 328 70 q211 1 288 -68 q76 -69 71 -226 l0 -450 l176 0 l0 464 q-2 149 97 215 q98 66 324 65 q211 1 288 -68 q76 -69 71 -226 l0 -450 l176 0 l0 450 q6 243 -111 351 q-116 107 -420 105 l0 0 Z" /><glyph glyph-name="" unicode="n" d="M846 906 q-223 1 -357 -46 q-134 -47 -196 -150 l0 160 l-176 0 l0 -870 l176 0 l0 441 q-5 153 115 228 q120 75 424 75 q290 1 385 -68 q95 -69 87 -226 l0 -450 l176 0 l0 450 q9 243 -121 351 q-130 107 -513 105 l0 0 Z" /><glyph glyph-name="" unicode="&#x144;" d="M855 1252 l-169 -251 l156 0 l251 251 l-238 0 ZM846 906 q-223 1 -357 -46 q-134 -47 -196 -150 l0 160 l-176 0 l0 -870 l176 0 l0 441 q-5 153 115 228 q120 75 424 75 q290 1 385 -68 q95 -69 87 -226 l0 -450 l176 0 l0 450 q9 243 -121 351 q-130 107 -513 105 l0 0 Z" /><glyph glyph-name="" unicode="&#x148;" d="M1227 1250 l-186 0 l-250 -148 l-251 148 l-186 0 l336 -251 l203 0 l334 251 ZM846 906 q-223 1 -357 -46 q-134 -47 -196 -150 l0 160 l-176 0 l0 -870 l176 0 l0 441 q-5 153 115 228 q120 75 424 75 q290 1 385 -68 q95 -69 87 -226 l0 -450 l176 0 l0 450 q9 243 -121 351 q-130 107 -513 105 l0 0 Z" /><glyph glyph-name="" unicode="&#x146;" d="M846 906 q-223 1 -357 -46 q-134 -47 -196 -150 l0 160 l-176 0 l0 -870 l176 0 l0 441 q-5 153 115 228 q120 75 424 75 q290 1 385 -68 q95 -69 87 -226 l0 -450 l176 0 l0 450 q9 243 -121 351 q-130 107 -513 105 l0 0 ZM665 -342 l251 251 l-238 0 l-169 -251 l156 0 Z" /><glyph glyph-name="" unicode="&#x14b;" d="M1304 699 q-44 118 -160 164 q-115 46 -319 44 q-210 1 -340 -47 q-130 -48 -192 -152 l0 160 l-176 0 l0 -868 l176 0 l0 441 q-3 154 119 229 q123 75 409 75 q275 2 381 -71 q106 -73 101 -248 l1 0 l0 -52 q2 -117 -31 -166 q-32 -49 -119 -48 l-456 0 l0 -162 l456 0 q165 -6 246 70 q81 75 81 306 l0 496 l-177 0 l0 -171 Z" /><glyph glyph-name="" unicode="ñ" d="M637 1075 q72 -5 136 -37 q64 -32 147 -37 q112 2 177 60 q65 58 95 146 l-130 0 q-18 -27 -47 -49 q-29 -22 -75 -23 q-78 5 -140 37 q-61 31 -143 36 q-115 -2 -182 -59 q-66 -58 -92 -147 l131 0 q18 28 47 50 q29 22 76 23 l0 0 ZM846 906 q-223 1 -357 -46 q-134 -47 -196 -150 l0 160 l-176 0 l0 -870 l176 0 l0 441 q-5 153 115 228 q120 75 424 75 q290 1 385 -68 q95 -69 87 -226 l0 -450 l176 0 l0 450 q9 243 -121 351 q-130 107 -513 105 l0 0 Z" /><glyph glyph-name="" unicode="o" d="M814 906 q-421 2 -582 -108 q-162 -110 -154 -353 q-8 -243 153 -355 q161 -111 583 -110 q421 -2 582 110 q161 111 153 355 q8 243 -153 353 q-161 110 -582 108 l0 0 ZM814 142 q-336 -2 -452 69 q-116 71 -108 234 q-8 162 108 232 q116 69 452 67 q335 2 451 -67 q116 -70 108 -232 q8 -163 -108 -234 q-116 -71 -451 -69 l0 0 Z" /><glyph glyph-name="" unicode="ó" d="M882 1252 l-169 -251 l156 0 l251 251 l-238 0 ZM814 906 q-421 2 -582 -108 q-162 -110 -154 -353 q-8 -243 153 -355 q161 -111 583 -110 q421 -2 582 110 q161 111 153 355 q8 243 -153 353 q-161 110 -582 108 l0 0 ZM814 142 q-336 -2 -452 69 q-116 71 -108 234 q-8 162 108 232 q116 69 452 67 q335 2 451 -67 q116 -70 108 -232 q8 -163 -108 -234 q-116 -71 -451 -69 l0 0 Z" /><glyph glyph-name="" unicode="ô" d="M1064 1001 l186 0 l-334 251 l-203 0 l-336 -251 l186 0 l251 148 l250 -148 ZM814 906 q-421 2 -582 -108 q-162 -110 -154 -353 q-8 -243 153 -355 q161 -111 583 -110 q421 -2 582 110 q161 111 153 355 q8 243 -153 353 q-161 110 -582 108 l0 0 ZM814 142 q-336 -2 -452 69 q-116 71 -108 234 q-8 162 108 232 q116 69 452 67 q335 2 451 -67 q116 -70 108 -232 q8 -163 -108 -234 q-116 -71 -451 -69 l0 0 Z" /><glyph glyph-name="" unicode="ö" d="M618 1002 q62 -1 88 23 q26 23 25 79 q1 56 -25 80 q-26 24 -88 23 q-63 1 -89 -23 q-26 -24 -25 -80 q-1 -56 25 -79 q26 -24 89 -23 l0 0 ZM1011 1002 q62 -1 88 23 q26 23 25 79 q1 56 -25 80 q-26 24 -88 23 q-63 1 -89 -23 q-26 -24 -25 -80 q-1 -56 25 -79 q26 -24 89 -23 l0 0 ZM814 906 q-421 2 -582 -108 q-162 -110 -154 -353 q-8 -243 153 -355 q161 -111 583 -110 q421 -2 582 110 q161 111 153 355 q8 243 -153 353 q-161 110 -582 108 l0 0 ZM814 142 q-336 -2 -452 69 q-116 71 -108 234 q-8 162 108 232 q116 69 452 67 q335 2 451 -67 q116 -70 108 -232 q8 -163 -108 -234 q-116 -71 -451 -69 l0 0 Z" /><glyph glyph-name="" unicode="ò" d="M759 1252 l-238 0 l251 -251 l156 0 l-169 251 ZM814 906 q-421 2 -582 -108 q-162 -110 -154 -353 q-8 -243 153 -355 q161 -111 583 -110 q421 -2 582 110 q161 111 153 355 q8 243 -153 353 q-161 110 -582 108 l0 0 ZM814 142 q-336 -2 -452 69 q-116 71 -108 234 q-8 162 108 232 q116 69 452 67 q335 2 451 -67 q116 -70 108 -232 q8 -163 -108 -234 q-116 -71 -451 -69 l0 0 Z" /><glyph glyph-name="" unicode="&#x151;" d="M1120 1254 l-169 -251 l156 0 l251 251 l-238 0 ZM696 1252 l-169 -251 l156 0 l251 251 l-238 0 ZM814 906 q-421 2 -582 -108 q-162 -110 -154 -353 q-8 -243 153 -355 q161 -111 583 -110 q421 -2 582 110 q161 111 153 355 q8 243 -153 353 q-161 110 -582 108 l0 0 ZM814 142 q-336 -2 -452 69 q-116 71 -108 234 q-8 162 108 232 q116 69 452 67 q335 2 451 -67 q116 -70 108 -232 q8 -163 -108 -234 q-116 -71 -451 -69 l0 0 Z" /><glyph glyph-name="" unicode="&#x14d;" d="M522 1147 l0 -145 l583 0 l0 145 l-583 0 ZM814 906 q-421 2 -582 -108 q-162 -110 -154 -353 q-8 -243 153 -355 q161 -111 583 -110 q421 -2 582 110 q161 111 153 355 q8 243 -153 353 q-161 110 -582 108 l0 0 ZM814 142 q-336 -2 -452 69 q-116 71 -108 234 q-8 162 108 232 q116 69 452 67 q335 2 451 -67 q116 -70 108 -232 q8 -163 -108 -234 q-116 -71 -451 -69 l0 0 Z" /><glyph glyph-name="" unicode="ø" d="M814 906 q-421 2 -582 -108 q-162 -110 -154 -353 q-8 -243 153 -355 q161 -111 583 -110 q421 -2 582 110 q161 111 153 355 q8 243 -153 353 q-161 110 -582 108 l0 0 ZM254 445 q-8 162 108 232 q116 69 452 67 q69 0 128 -3 l-477 -569 q-122 30 -168 97 q-45 66 -43 176 l0 0 ZM814 142 q-68 0 -125 2 l479 570 q118 -30 163 -96 q44 -66 42 -173 q8 -163 -108 -234 q-116 -71 -451 -69 l0 0 Z" /><glyph glyph-name="" unicode="õ" d="M663 1075 q72 -5 136 -37 q64 -32 147 -37 q112 2 177 60 q65 58 95 146 l-130 0 q-18 -27 -47 -49 q-29 -22 -75 -23 q-78 5 -140 37 q-61 31 -143 36 q-115 -2 -182 -59 q-66 -58 -92 -147 l131 0 q18 28 47 50 q29 22 76 23 l0 0 ZM814 906 q-421 2 -582 -108 q-162 -110 -154 -353 q-8 -243 153 -355 q161 -111 583 -110 q421 -2 582 110 q161 111 153 355 q8 243 -153 353 q-161 110 -582 108 l0 0 ZM814 142 q-336 -2 -452 69 q-116 71 -108 234 q-8 162 108 232 q116 69 452 67 q335 2 451 -67 q116 -70 108 -232 q8 -163 -108 -234 q-116 -71 -451 -69 l0 0 Z" /><glyph glyph-name="" unicode="&#x153;" d="M2769 534 q6 178 -147 275 q-153 97 -538 98 q-281 0 -428 -55 q-146 -55 -197 -165 q-46 115 -195 168 q-150 53 -450 52 q-421 2 -582 -106 q-162 -108 -154 -351 q-8 -243 153 -351 q161 -109 583 -107 q294 -1 443 50 q149 51 198 161 q48 -111 196 -163 q147 -52 433 -51 q332 -2 472 50 q139 53 193 184 l-190 0 q-32 -46 -142 -60 q-110 -13 -333 -12 q-283 -1 -400 51 q-117 51 -129 170 l1214 0 l0 162 ZM814 154 q-336 -2 -452 66 q-116 67 -108 230 q-8 162 108 230 q116 67 452 65 q335 2 451 -65 q116 -68 108 -230 q8 -163 -108 -230 q-116 -68 -451 -66 l0 0 ZM1558 534 q18 115 136 164 q118 48 390 47 q299 2 407 -47 q108 -48 103 -164 l-1036 0 Z" /><glyph glyph-name="" unicode="p" d="M830 906 q-225 1 -354 -31 q-128 -32 -183 -103 l0 98 l-176 0 l0 -870 l176 0 l0 292 q55 -71 183 -104 q129 -32 354 -32 q352 -3 507 84 q154 87 151 301 q3 204 -152 286 q-154 82 -506 79 l0 0 ZM830 318 q-292 -3 -416 41 q-123 44 -120 173 q-3 129 120 172 q124 43 416 40 q265 3 375 -40 q110 -43 107 -163 q3 -131 -107 -178 q-111 -48 -375 -45 l0 0 Z" /><glyph glyph-name="" unicode="þ" d="M830 907 q-221 0 -350 -30 q-129 -31 -187 -99 l0 319 l-176 0 l0 -1097 l176 0 l0 285 q58 -68 187 -99 q129 -30 350 -30 q352 -3 507 84 q154 87 151 301 q3 204 -152 287 q-154 82 -506 79 l0 0 ZM830 318 q-261 -4 -398 37 q-137 42 -138 177 q-3 135 120 176 q124 41 416 37 q265 3 375 -39 q110 -43 107 -165 q3 -133 -107 -179 q-111 -47 -375 -44 l0 0 Z" /><glyph glyph-name="" unicode="q" d="M1273 772 q-55 71 -183 103 q-128 32 -353 31 q-352 3 -507 -79 q-154 -82 -151 -286 q-3 -214 151 -301 q155 -87 507 -84 q225 0 353 32 q128 33 183 104 l0 -292 l176 0 l0 870 l-176 0 l0 -98 ZM737 318 q-265 -3 -375 45 q-110 47 -107 178 q-4 120 106 163 q110 43 376 40 q292 3 415 -40 q124 -43 120 -172 q4 -129 -120 -173 q-123 -44 -415 -41 l0 0 Z" /><glyph glyph-name="" unicode="r" d="M829 906 q-219 0 -348 -57 q-130 -56 -188 -163 l0 184 l-176 0 l0 -870 l176 0 l0 341 q-9 175 93 287 q101 112 416 116 q247 -1 343 -56 q96 -56 92 -161 l175 0 q2 197 -139 289 q-141 91 -444 90 l0 0 Z" /><glyph glyph-name="" unicode="&#x155;" d="M833 1252 l-169 -251 l156 0 l251 251 l-238 0 ZM829 906 q-219 0 -348 -57 q-130 -56 -188 -163 l0 184 l-176 0 l0 -870 l176 0 l0 341 q-9 175 93 287 q101 112 416 116 q247 -1 343 -56 q96 -56 92 -161 l175 0 q2 197 -139 289 q-141 91 -444 90 l0 0 Z" /><glyph glyph-name="" unicode="&#x159;" d="M1232 1250 l-186 0 l-250 -148 l-251 148 l-186 0 l336 -251 l203 0 l334 251 ZM829 906 q-219 0 -348 -57 q-130 -56 -188 -163 l0 184 l-176 0 l0 -870 l176 0 l0 341 q-9 175 93 287 q101 112 416 116 q247 -1 343 -56 q96 -56 92 -161 l175 0 q2 197 -139 289 q-141 91 -444 90 l0 0 Z" /><glyph glyph-name="" unicode="&#x157;" d="M829 906 q-219 0 -348 -57 q-130 -56 -188 -163 l0 184 l-176 0 l0 -870 l176 0 l0 341 q-9 175 93 287 q101 112 416 116 q247 -1 343 -56 q96 -56 92 -161 l175 0 q2 197 -139 289 q-141 91 -444 90 l0 0 ZM76 -342 l251 251 l-238 0 l-169 -251 l156 0 Z" /><glyph glyph-name="" unicode="s" d="M735 -20 q345 -2 505 62 q159 63 157 209 q4 111 -70 186 q-75 76 -281 93 l-609 26 q-76 4 -119 25 q-42 21 -43 67 q-4 53 99 76 q103 22 358 21 q210 1 329 -34 q120 -35 122 -115 l184 0 q3 142 -146 226 q-149 83 -489 85 q-340 1 -492 -64 q-152 -64 -149 -202 q-1 -130 83 -189 q83 -59 266 -71 l611 -27 q80 -5 121 -29 q41 -24 41 -75 q6 -58 -96 -83 q-102 -26 -382 -25 q-223 -1 -352 35 q-130 35 -133 114 l-184 0 q-4 -142 150 -226 q154 -83 519 -85 l0 0 Z" /><glyph glyph-name="" unicode="&#x15b;" d="M785 1001 l251 251 l-238 0 l-169 -251 l156 0 ZM735 -20 q345 -2 505 62 q159 63 157 209 q4 111 -70 186 q-75 76 -281 93 l-609 26 q-76 4 -119 25 q-42 21 -43 67 q-4 53 99 76 q103 22 358 21 q210 1 329 -34 q120 -35 122 -115 l184 0 q3 142 -146 226 q-149 83 -489 85 q-340 1 -492 -64 q-152 -64 -149 -202 q-1 -130 83 -189 q83 -59 266 -71 l611 -27 q80 -5 121 -29 q41 -24 41 -75 q6 -58 -96 -83 q-102 -26 -382 -25 q-223 -1 -352 35 q-130 35 -133 114 l-184 0 q-4 -142 150 -226 q154 -83 519 -85 l0 0 Z" /><glyph glyph-name="" unicode="&#x161;" d="M1170 1250 l-186 0 l-250 -148 l-251 148 l-186 0 l336 -251 l203 0 l334 251 ZM437 556 q-76 4 -119 25 q-42 21 -43 67 q-4 53 99 76 q103 22 358 21 q210 1 329 -34 q120 -35 122 -115 l184 0 q3 142 -146 226 q-149 83 -489 85 q-340 1 -492 -64 q-152 -64 -149 -202 q-1 -130 83 -189 q83 -59 266 -71 l611 -27 q80 -5 121 -29 q41 -24 41 -75 q6 -58 -96 -83 q-102 -26 -382 -25 q-223 -1 -352 35 q-130 35 -133 114 l-184 0 q-4 -142 150 -226 q154 -83 519 -85 q345 -2 505 62 q159 63 157 209 q4 111 -70 186 q-75 76 -281 93 l-609 26 Z" /><glyph glyph-name="" unicode="&#x15f;" d="M1397 251 q4 111 -70 186 q-75 76 -281 93 l-609 26 q-76 4 -119 25 q-42 21 -43 67 q-4 53 99 76 q103 22 358 21 q210 1 329 -34 q120 -35 122 -115 l184 0 q3 142 -146 226 q-149 83 -489 85 q-340 1 -492 -64 q-152 -64 -149 -202 q-1 -130 83 -189 q83 -59 266 -71 l611 -27 q80 -5 121 -29 q41 -24 41 -75 q6 -58 -96 -83 q-102 -26 -382 -25 q-223 -1 -352 35 q-130 35 -133 114 l-184 0 q-4 -135 135 -218 q138 -82 463 -92 l0 -175 q2 1 25 1 q23 0 82 0 q41 1 61 -11 q20 -11 20 -42 q1 -20 -14 -31 q-15 -10 -57 -10 q-32 0 -75 6 q-44 6 -117 21 l0 -90 q68 -17 115 -26 q47 -8 82 -8 q97 -2 144 29 q47 30 47 113 q1 78 -40 108 q-42 31 -136 30 l-17 0 l0 84 q319 2 467 66 q148 64 146 205 l0 0 Z" /><glyph glyph-name="" unicode="&#x219;" d="M735 -20 q345 -2 505 62 q159 63 157 209 q4 111 -70 186 q-75 76 -281 93 l-609 26 q-76 4 -119 25 q-42 21 -43 67 q-4 53 99 76 q103 22 358 21 q210 1 329 -34 q120 -35 122 -115 l184 0 q3 142 -146 226 q-149 83 -489 85 q-340 1 -492 -64 q-152 -64 -149 -202 q-1 -130 83 -189 q83 -59 266 -71 l611 -27 q80 -5 121 -29 q41 -24 41 -75 q6 -58 -96 -83 q-102 -26 -382 -25 q-223 -1 -352 35 q-130 35 -133 114 l-184 0 q-4 -142 150 -226 q154 -83 519 -85 l0 0 ZM608 -342 l251 251 l-238 0 l-169 -251 l156 0 Z" /><glyph glyph-name="" unicode="ß" d="M1322 566 q56 36 81 87 q25 51 25 123 q6 156 -138 242 q-144 86 -508 87 q-380 -2 -526 -123 q-146 -121 -139 -342 l0 -640 l176 0 l0 640 q-7 148 93 228 q100 80 396 81 q277 0 376 -45 q100 -44 94 -128 q2 -81 -45 -123 q-48 -43 -172 -43 l-333 0 l0 -150 l408 0 q124 0 179 -41 q55 -41 54 -127 q6 -77 -79 -114 q-86 -36 -334 -36 q-193 0 -260 16 q-67 17 -71 53 l-183 0 q9 -123 114 -178 q106 -54 390 -53 q329 0 466 74 q137 74 133 240 q0 100 -48 167 q-48 68 -149 105 l0 0 Z" /><glyph glyph-name="" unicode="t" d="M760 -19 q268 -1 368 58 q101 60 110 193 l-183 0 q-4 -46 -60 -68 q-57 -21 -235 -21 q-195 -1 -255 53 q-60 55 -54 184 l0 328 l698 0 l0 162 l-697 0 l0 227 l-184 0 l0 -227 l-228 0 l0 -162 l228 0 l0 -351 q-7 -203 96 -290 q103 -88 396 -86 l0 0 Z" /><glyph glyph-name="" unicode="&#x167;" d="M1055 232 q-4 -46 -60 -68 q-57 -21 -235 -21 q-195 -1 -255 53 q-60 55 -54 184 l0 63 l698 0 l0 162 l-698 0 l0 103 l698 0 l0 162 l-697 0 l0 227 l-184 0 l0 -227 l-228 0 l0 -162 l228 0 l0 -103 l-229 0 l0 -162 l229 0 l0 -86 q-7 -203 96 -290 q103 -88 396 -86 q268 -1 368 58 q101 60 110 193 l-183 0 Z" /><glyph glyph-name="" unicode="&#x165;" d="M760 -19 q268 -1 368 58 q101 60 110 193 l-183 0 q-4 -46 -60 -68 q-57 -21 -235 -21 q-195 -1 -255 53 q-60 55 -54 184 l0 328 l698 0 l0 162 l-697 0 l0 227 l-184 0 l0 -227 l-228 0 l0 -162 l228 0 l0 -351 q-7 -203 96 -290 q103 -88 396 -86 l0 0 ZM810 913 l101 181 l-195 0 l-62 -181 l156 0 Z" /><glyph glyph-name="" unicode="&#x163;" d="M1055 232 q-4 -46 -60 -68 q-57 -21 -235 -21 q-195 -1 -255 53 q-60 55 -54 184 l0 328 l698 0 l0 162 l-697 0 l0 227 l-184 0 l0 -227 l-228 0 l0 -162 l228 0 l0 -351 q-6 -191 84 -280 q90 -88 342 -95 l0 -176 q2 1 25 1 q23 0 82 0 q41 1 61 -11 q20 -11 20 -42 q1 -20 -14 -31 q-15 -10 -57 -10 q-32 0 -75 6 q-44 6 -117 21 l0 -90 q68 -17 115 -26 q47 -8 82 -8 q97 -2 144 29 q47 30 47 113 q1 78 -40 108 q-42 31 -136 30 l-17 0 l0 86 q235 4 325 64 q89 59 99 186 l-183 0 Z" /><glyph glyph-name="" unicode="&#x21b;" d="M760 -19 q268 -1 368 58 q101 60 110 193 l-183 0 q-4 -46 -60 -68 q-57 -21 -235 -21 q-195 -1 -255 53 q-60 55 -54 184 l0 328 l698 0 l0 162 l-697 0 l0 227 l-184 0 l0 -227 l-228 0 l0 -162 l228 0 l0 -351 q-7 -203 96 -290 q103 -88 396 -86 l0 0 ZM638 -342 l251 251 l-238 0 l-169 -251 l156 0 Z" /><glyph glyph-name="" unicode="u" d="M1245 455 q4 -153 -118 -233 q-121 -80 -413 -80 q-276 -1 -364 69 q-88 70 -80 226 l0 433 l-176 0 l0 -433 q-8 -243 124 -351 q132 -108 503 -106 q211 0 338 48 q127 47 186 149 l0 -177 l176 0 l0 870 l-176 0 l0 -415 Z" /><glyph glyph-name="" unicode="ú" d="M826 1252 l-169 -251 l156 0 l251 251 l-238 0 ZM1245 455 q4 -153 -118 -233 q-121 -80 -413 -80 q-276 -1 -364 69 q-88 70 -80 226 l0 433 l-176 0 l0 -433 q-8 -243 124 -351 q132 -108 503 -106 q211 0 338 48 q127 47 186 149 l0 -177 l176 0 l0 870 l-176 0 l0 -415 Z" /><glyph glyph-name="" unicode="û" d="M1008 1001 l186 0 l-334 251 l-203 0 l-336 -251 l186 0 l251 148 l250 -148 ZM1245 455 q4 -153 -118 -233 q-121 -80 -413 -80 q-276 -1 -364 69 q-88 70 -80 226 l0 433 l-176 0 l0 -433 q-8 -243 124 -351 q132 -108 503 -106 q211 0 338 48 q127 47 186 149 l0 -177 l176 0 l0 870 l-176 0 l0 -415 Z" /><glyph glyph-name="" unicode="ü" d="M562 1002 q62 -1 88 23 q26 23 25 79 q1 56 -25 80 q-26 24 -88 23 q-63 1 -89 -23 q-26 -24 -25 -80 q-1 -56 25 -79 q26 -24 89 -23 l0 0 ZM955 1002 q62 -1 88 23 q26 23 25 79 q1 56 -25 80 q-26 24 -88 23 q-63 1 -89 -23 q-26 -24 -25 -80 q-1 -56 25 -79 q26 -24 89 -23 l0 0 ZM1245 455 q4 -153 -118 -233 q-121 -80 -413 -80 q-276 -1 -364 69 q-88 70 -80 226 l0 433 l-176 0 l0 -433 q-8 -243 124 -351 q132 -108 503 -106 q211 0 338 48 q127 47 186 149 l0 -177 l176 0 l0 870 l-176 0 l0 -415 Z" /><glyph glyph-name="" unicode="ù" d="M703 1252 l-238 0 l251 -251 l156 0 l-169 251 ZM1245 455 q4 -153 -118 -233 q-121 -80 -413 -80 q-276 -1 -364 69 q-88 70 -80 226 l0 433 l-176 0 l0 -433 q-8 -243 124 -351 q132 -108 503 -106 q211 0 338 48 q127 47 186 149 l0 -177 l176 0 l0 870 l-176 0 l0 -415 Z" /><glyph glyph-name="" unicode="&#x171;" d="M1065 1254 l-169 -251 l156 0 l251 251 l-238 0 ZM641 1252 l-169 -251 l156 0 l251 251 l-238 0 ZM1245 455 q4 -153 -118 -233 q-121 -80 -413 -80 q-276 -1 -364 69 q-88 70 -80 226 l0 433 l-176 0 l0 -433 q-8 -243 124 -351 q132 -108 503 -106 q211 0 338 48 q127 47 186 149 l0 -177 l176 0 l0 870 l-176 0 l0 -415 Z" /><glyph glyph-name="" unicode="&#x16b;" d="M466 1147 l0 -145 l583 0 l0 145 l-583 0 ZM1245 455 q4 -153 -118 -233 q-121 -80 -413 -80 q-276 -1 -364 69 q-88 70 -80 226 l0 433 l-176 0 l0 -433 q-8 -243 124 -351 q132 -108 503 -106 q211 0 338 48 q127 47 186 149 l0 -177 l176 0 l0 870 l-176 0 l0 -415 Z" /><glyph glyph-name="" unicode="&#x173;" d="M1287 -209 q-2 32 27 84 q29 51 108 125 l-1 0 l0 870 l-176 0 l0 -415 q4 -153 -118 -233 q-121 -80 -413 -80 q-276 -1 -364 69 q-88 70 -80 226 l0 433 l-176 0 l0 -433 q-8 -243 124 -351 q132 -108 503 -106 q211 0 338 48 q127 47 186 149 l0 -177 l24 0 q-69 -58 -112 -126 q-44 -68 -45 -140 q-3 -78 57 -123 q61 -46 225 -41 l0 141 q-53 -6 -80 15 q-27 21 -27 65 l0 0 Z" /><glyph glyph-name="" unicode="&#x16f;" d="M759 1002 q149 -2 224 33 q76 35 76 132 q4 74 -60 120 q-64 47 -240 48 q-149 2 -225 -34 q-76 -36 -76 -134 q-4 -72 60 -118 q64 -45 241 -47 l0 0 ZM759 1223 q108 1 144 -11 q36 -12 33 -44 q4 -23 -28 -38 q-32 -14 -149 -15 q-109 -1 -145 11 q-37 11 -34 42 q-4 24 28 39 q33 15 151 16 l0 0 ZM1245 455 q4 -153 -118 -233 q-121 -80 -413 -80 q-276 -1 -364 69 q-88 70 -80 226 l0 433 l-176 0 l0 -433 q-8 -243 124 -351 q132 -108 503 -106 q211 0 338 48 q127 47 186 149 l0 -177 l176 0 l0 870 l-176 0 l0 -415 Z" /><glyph glyph-name="" unicode="v" d="M771 139 l-511 731 l-226 0 l616 -870 l237 0 l620 870 l-226 0 l-510 -731 Z" /><glyph glyph-name="" unicode="w" d="M1683 158 l-393 712 l-247 0 l-390 -712 l-399 712 l-220 0 l501 -870 l236 0 l395 728 l395 -728 l236 0 l501 870 l-219 0 l-396 -712 Z" /><glyph glyph-name="" unicode="&#x1e83;" d="M1236 1252 l-169 -251 l156 0 l251 251 l-238 0 ZM1683 158 l-393 712 l-247 0 l-390 -712 l-399 712 l-220 0 l501 -870 l236 0 l395 728 l395 -728 l236 0 l501 870 l-219 0 l-396 -712 Z" /><glyph glyph-name="" unicode="&#x175;" d="M1418 1001 l186 0 l-334 251 l-203 0 l-336 -251 l186 0 l251 148 l250 -148 ZM1683 158 l-393 712 l-247 0 l-390 -712 l-399 712 l-220 0 l501 -870 l236 0 l395 728 l395 -728 l236 0 l501 870 l-219 0 l-396 -712 Z" /><glyph glyph-name="" unicode="&#x1e85;" d="M972 1002 q62 -1 88 23 q26 23 25 79 q1 56 -25 80 q-26 24 -88 23 q-63 1 -89 -23 q-26 -24 -25 -80 q-1 -56 25 -79 q26 -24 89 -23 l0 0 ZM1365 1002 q62 -1 88 23 q26 23 25 79 q1 56 -25 80 q-26 24 -88 23 q-63 1 -89 -23 q-26 -24 -25 -80 q-1 -56 25 -79 q26 -24 89 -23 l0 0 ZM1683 158 l-393 712 l-247 0 l-390 -712 l-399 712 l-220 0 l501 -870 l236 0 l395 728 l395 -728 l236 0 l501 870 l-219 0 l-396 -712 Z" /><glyph glyph-name="" unicode="&#x1e81;" d="M1113 1252 l-238 0 l251 -251 l156 0 l-169 251 ZM1683 158 l-393 712 l-247 0 l-390 -712 l-399 712 l-220 0 l501 -870 l236 0 l395 728 l395 -728 l236 0 l501 870 l-219 0 l-396 -712 Z" /><glyph glyph-name="" unicode="x" d="M888 448 l558 422 l-275 0 l-422 -319 l-429 319 l-266 0 l561 -420 l-595 -450 l275 0 l458 346 l463 -346 l275 0 l-603 448 Z" /><glyph glyph-name="" unicode="y" d="M1211 474 l-725 0 q-113 -1 -159 35 q-47 36 -46 121 l0 240 l-176 0 l0 -240 q-3 -175 88 -247 q90 -73 307 -71 l711 0 q10 -90 -66 -130 q-75 -41 -366 -40 q-208 -2 -333 11 q-126 12 -163 58 l-213 0 q59 -131 225 -182 q166 -51 484 -49 q385 -1 502 79 q118 81 106 261 l0 550 l-176 0 l0 -396 Z" /><glyph glyph-name="" unicode="ý" d="M809 1252 l-169 -251 l156 0 l251 251 l-238 0 ZM1211 474 l-725 0 q-113 -1 -159 35 q-47 36 -46 121 l0 240 l-176 0 l0 -240 q-3 -175 88 -247 q90 -73 307 -71 l711 0 q10 -90 -66 -130 q-75 -41 -366 -40 q-208 -2 -333 11 q-126 12 -163 58 l-213 0 q59 -131 225 -182 q166 -51 484 -49 q385 -1 502 79 q118 81 106 261 l0 550 l-176 0 l0 -396 Z" /><glyph glyph-name="" unicode="&#x177;" d="M992 1001 l186 0 l-334 251 l-203 0 l-336 -251 l186 0 l251 148 l250 -148 ZM1211 474 l-725 0 q-113 -1 -159 35 q-47 36 -46 121 l0 240 l-176 0 l0 -240 q-3 -175 88 -247 q90 -73 307 -71 l711 0 q10 -90 -66 -130 q-75 -41 -366 -40 q-208 -2 -333 11 q-126 12 -163 58 l-213 0 q59 -131 225 -182 q166 -51 484 -49 q385 -1 502 79 q118 81 106 261 l0 550 l-176 0 l0 -396 Z" /><glyph glyph-name="" unicode="ÿ" d="M545 1002 q62 -1 88 23 q26 23 25 79 q1 56 -25 80 q-26 24 -88 23 q-63 1 -89 -23 q-26 -24 -25 -80 q-1 -56 25 -79 q26 -24 89 -23 l0 0 ZM938 1002 q62 -1 88 23 q26 23 25 79 q1 56 -25 80 q-26 24 -88 23 q-63 1 -89 -23 q-26 -24 -25 -80 q-1 -56 25 -79 q26 -24 89 -23 l0 0 ZM1211 474 l-725 0 q-113 -1 -159 35 q-47 36 -46 121 l0 240 l-176 0 l0 -240 q-3 -175 88 -247 q90 -73 307 -71 l711 0 q10 -90 -66 -130 q-75 -41 -366 -40 q-208 -2 -333 11 q-126 12 -163 58 l-213 0 q59 -131 225 -182 q166 -51 484 -49 q385 -1 502 79 q118 81 106 261 l0 550 l-176 0 l0 -396 Z" /><glyph glyph-name="" unicode="&#x1ef3;" d="M686 1252 l-238 0 l251 -251 l156 0 l-169 251 ZM1211 474 l-725 0 q-113 -1 -159 35 q-47 36 -46 121 l0 240 l-176 0 l0 -240 q-3 -175 88 -247 q90 -73 307 -71 l711 0 q10 -90 -66 -130 q-75 -41 -366 -40 q-208 -2 -333 11 q-126 12 -163 58 l-213 0 q59 -131 225 -182 q166 -51 484 -49 q385 -1 502 79 q118 81 106 261 l0 550 l-176 0 l0 -396 Z" /><glyph glyph-name="" unicode="z" d="M121 870 l0 -162 l590 0 l340 9 l-973 -551 l0 -166 l1253 0 l0 162 l-630 0 l-338 -8 l971 550 l0 166 l-1213 0 Z" /><glyph glyph-name="" unicode="&#x17a;" d="M754 1252 l-169 -251 l156 0 l251 251 l-238 0 ZM121 870 l0 -162 l590 0 l340 9 l-973 -551 l0 -166 l1253 0 l0 162 l-630 0 l-338 -8 l971 550 l0 166 l-1213 0 Z" /><glyph glyph-name="" unicode="&#x17e;" d="M1153 1250 l-186 0 l-250 -148 l-251 148 l-186 0 l336 -251 l203 0 l334 251 ZM121 870 l0 -162 l590 0 l340 9 l-973 -551 l0 -166 l1253 0 l0 162 l-630 0 l-338 -8 l971 550 l0 166 l-1213 0 Z" /><glyph glyph-name="" unicode="&#x17c;" d="M713 1002 q62 -1 88 23 q26 23 25 79 q1 56 -25 80 q-26 24 -88 23 q-63 1 -89 -23 q-26 -24 -25 -80 q-1 -56 25 -79 q26 -24 89 -23 l0 0 ZM121 870 l0 -162 l590 0 l340 9 l-973 -551 l0 -166 l1253 0 l0 162 l-630 0 l-338 -8 l971 550 l0 166 l-1213 0 Z" /><glyph glyph-name="" unicode="&#xfb01;" d="M1483 936 l0 172 l-547 0 q-363 3 -508 -94 q-145 -97 -148 -332 l-230 0 l0 -162 l229 0 l0 -520 l176 0 l-1 520 l853 0 l0 -520 l176 0 l0 682 l-1028 0 q5 141 109 199 q103 57 366 55 l553 0 Z" /><glyph glyph-name="" unicode="&#xfb02;" d="M1614 1097 l-678 0 q-363 4 -509 -89 q-145 -93 -147 -327 l-230 1 l0 -162 l229 0 l0 -520 l176 0 l-1 520 l779 0 l0 157 l-778 3 q5 149 110 203 q105 55 371 52 l503 0 l0 -593 q0 -190 88 -267 q89 -78 273 -75 l0 162 q-125 -2 -157 68 q-33 70 -28 232 l-1 635 Z" /><glyph glyph-name="" unicode="ª" d="M619 444 q225 0 332 29 q106 28 136 86 q26 -55 81 -82 q54 -27 136 -27 l0 120 q-80 -1 -96 58 q-16 59 -12 185 q6 165 -108 238 q-114 73 -423 72 q-274 1 -381 -47 q-107 -47 -146 -146 l141 0 q15 28 93 38 q77 9 293 8 q253 3 327 -32 q74 -35 68 -146 q-41 45 -145 66 q-104 21 -296 21 q-305 1 -415 -50 q-111 -50 -104 -162 q-7 -121 104 -175 q110 -55 415 -54 l0 0 ZM635 579 q-228 -1 -301 20 q-73 20 -67 73 q-6 45 66 62 q73 16 302 16 q256 1 344 -17 q88 -19 81 -68 q7 -50 -82 -68 q-88 -19 -343 -18 l0 0 Z" /><glyph glyph-name="" unicode="º" d="M685 444 q343 -2 469 79 q125 80 118 261 q7 180 -119 260 q-125 81 -468 79 q-342 1 -467 -79 q-125 -81 -118 -260 q-7 -180 118 -260 q125 -81 467 -80 l0 0 ZM685 581 q-261 -1 -344 43 q-83 44 -76 160 q-7 116 76 160 q83 44 344 43 q261 3 345 -42 q83 -45 76 -161 q7 -116 -76 -161 q-84 -45 -345 -42 l0 0 Z" /><glyph glyph-name="" unicode="&#x410;" d="M1747 0 l-753 1097 l-220 0 l-754 -1097 l214 0 l166 248 l968 0 l165 -248 l214 0 ZM884 973 l370 -555 l-741 0 l371 555 Z" /><glyph glyph-name="" unicode="&#x411;" d="M301 647 l0 280 l1152 0 l0 170 l-1336 0 l0 -1097 l1024 0 q207 -3 310 67 q103 70 103 255 q1 179 -99 253 q-100 74 -314 72 l-840 0 ZM301 170 l0 307 l881 0 q87 2 137 -29 q50 -32 51 -126 q-1 -91 -51 -122 q-50 -32 -137 -30 l-881 0 Z" /><glyph glyph-name="" unicode="&#x412;" d="M1394 559 q68 42 99 104 q30 62 29 142 q-2 161 -112 228 q-111 66 -307 64 l-986 0 l0 -1097 l1027 0 q196 -2 307 64 q111 66 113 229 q1 91 -39 159 q-40 68 -131 107 l0 0 ZM1143 927 q96 2 145 -30 q50 -32 50 -116 q0 -88 -50 -120 q-49 -33 -145 -31 l-842 0 l0 297 l842 0 ZM301 170 l0 297 l883 0 q96 2 146 -31 q50 -33 50 -119 q-1 -87 -52 -118 q-51 -31 -144 -29 l-883 0 Z" /><glyph glyph-name="" unicode="&#x413;" d="M1394 1097 l-1277 0 l0 -1097 l184 0 l0 927 l1093 0 l0 170 Z" /><glyph glyph-name="" unicode="&#x403;" d="M813 1445 l-169 -251 l156 0 l251 251 l-238 0 ZM1394 1097 l-1277 0 l0 -1097 l184 0 l0 927 l1093 0 l0 170 Z" /><glyph glyph-name="" unicode="&#x490;" d="M1237 1097 l-1120 0 l0 -1097 l184 0 l0 927 l1118 0 l0 386 l-182 0 l0 -216 Z" /><glyph glyph-name="" unicode="&#x414;" d="M1618 1097 l-1281 0 l-62 -511 q-20 -168 -49 -265 q-28 -96 -65 -151 l-141 0 l0 -405 l183 0 l0 235 l1407 0 l0 -235 l182 0 l0 405 l-174 0 l0 927 ZM493 927 l941 0 l0 -757 l-1077 0 q24 39 45 117 q21 78 38 212 l53 428 Z" /><glyph glyph-name="" unicode="&#x415;" d="M1458 0 l0 170 l-1157 0 l0 318 l1088 0 l0 170 l-1088 0 l0 269 l1143 0 l0 170 l-1327 0 l0 -1097 l1341 0 Z" /><glyph glyph-name="" unicode="&#x400;" d="M935 1231 l-169 251 l-238 0 l251 -251 l156 0 ZM1458 0 l0 170 l-1157 0 l0 318 l1088 0 l0 170 l-1088 0 l0 269 l1143 0 l0 170 l-1327 0 l0 -1097 l1341 0 Z" /><glyph glyph-name="" unicode="&#x401;" d="M623 1232 q62 -1 88 23 q26 23 25 79 q1 56 -25 80 q-26 24 -88 23 q-63 1 -89 -23 q-26 -24 -25 -80 q-1 -56 25 -79 q26 -24 89 -23 l0 0 ZM974 1232 q62 -1 88 23 q26 23 25 79 q1 56 -25 80 q-26 24 -88 23 q-63 1 -89 -23 q-26 -24 -25 -80 q-1 -56 25 -79 q26 -24 89 -23 l0 0 ZM1458 0 l0 170 l-1157 0 l0 318 l1088 0 l0 170 l-1088 0 l0 269 l1143 0 l0 170 l-1327 0 l0 -1097 l1341 0 Z" /><glyph glyph-name="" unicode="&#x416;" d="M1743 580 l644 517 l-274 0 l-544 -440 l-264 0 l0 440 l-184 0 l0 -440 l-264 0 l-544 440 l-274 0 l645 -517 l-686 -580 l287 0 l571 487 l265 0 l0 -487 l184 0 l0 487 l265 0 l571 -487 l287 0 l-685 580 Z" /><glyph glyph-name="" unicode="&#x417;" d="M1419 581 q75 36 111 87 q35 51 35 116 q8 180 -149 260 q-158 81 -579 79 q-387 -1 -568 -99 q-181 -99 -179 -286 l183 0 q3 119 153 168 q151 49 411 47 q323 1 437 -39 q114 -41 107 -130 q1 -74 -55 -112 q-55 -39 -181 -39 l-533 0 l0 -150 l596 0 q114 1 165 -37 q50 -37 49 -120 q8 -92 -119 -134 q-127 -43 -485 -43 q-268 -1 -420 48 q-152 50 -155 168 l-183 0 q-2 -187 181 -286 q183 -99 577 -100 q455 0 626 82 q171 82 162 265 q0 96 -45 158 q-46 62 -142 97 l0 0 Z" /><glyph glyph-name="" unicode="&#x418;" d="M301 168 l0 929 l-184 0 l0 -1097 l244 0 l1091 930 l0 -930 l184 0 l0 1097 l-244 0 l-1091 -929 Z" /><glyph glyph-name="" unicode="&#x419;" d="M875 1232 q128 -1 222 51 q94 53 135 173 l-164 0 q-22 -44 -69 -71 q-48 -26 -124 -27 q-75 1 -121 27 q-47 27 -69 71 l-164 0 q38 -120 132 -173 q94 -52 222 -51 l0 0 ZM301 168 l0 929 l-184 0 l0 -1097 l244 0 l1091 930 l0 -930 l184 0 l0 1097 l-244 0 l-1091 -929 Z" /><glyph glyph-name="" unicode="&#x40d;" d="M845 1482 l-238 0 l251 -251 l156 0 l-169 251 ZM301 168 l0 929 l-184 0 l0 -1097 l244 0 l1091 930 l0 -930 l184 0 l0 1097 l-244 0 l-1091 -929 Z" /><glyph glyph-name="" unicode="&#x41a;" d="M852 578 l759 519 l-282 0 l-636 -439 l-392 0 l0 439 l-184 0 l0 -1097 l184 0 l0 487 l376 0 l680 -487 l295 0 l-800 578 Z" /><glyph glyph-name="" unicode="&#x40c;" d="M838 1482 l-169 -251 l156 0 l251 251 l-238 0 ZM852 578 l759 519 l-282 0 l-636 -439 l-392 0 l0 439 l-184 0 l0 -1097 l184 0 l0 487 l376 0 l680 -487 l295 0 l-800 578 Z" /><glyph glyph-name="" unicode="&#x41b;" d="M30 0 q182 -2 277 80 q94 82 117 269 l72 578 l942 0 l0 -927 l184 0 l0 1097 l-1283 0 l-82 -678 q-14 -137 -63 -198 q-49 -60 -164 -59 l0 -162 Z" /><glyph glyph-name="" unicode="&#x41c;" d="M955 432 l-578 665 l-260 0 l0 -1097 l184 0 l0 908 l535 -614 l237 0 l537 632 l0 -926 l184 0 l0 1097 l-269 0 l-570 -665 Z" /><glyph glyph-name="" unicode="&#x41d;" d="M301 0 l0 489 l1137 0 l0 -489 l185 0 l0 1097 l-185 0 l0 -438 l-1137 0 l0 438 l-184 0 l0 -1097 l184 0 Z" /><glyph glyph-name="" unicode="&#x41e;" d="M916 1120 q-474 -1 -660 -145 q-186 -145 -178 -424 q-8 -278 178 -424 q186 -146 660 -147 q472 1 658 147 q186 146 178 424 q8 279 -178 424 q-186 144 -658 145 l0 0 ZM916 151 q-360 -2 -509 92 q-150 93 -145 308 q-5 215 145 308 q149 93 509 91 q358 2 508 -91 q149 -93 144 -308 q5 -215 -144 -308 q-150 -94 -508 -92 l0 0 Z" /><glyph glyph-name="" unicode="&#x41f;" d="M301 0 l0 927 l1097 0 l0 -927 l183 0 l0 1097 l-1464 0 l0 -1097 l184 0 Z" /><glyph glyph-name="" unicode="&#x420;" d="M1027 1097 l-910 0 l0 -1097 l184 0 l0 338 l723 0 q265 -2 385 88 q120 90 118 292 q2 200 -117 290 q-119 90 -383 89 l0 0 ZM301 508 l0 419 l765 0 q150 1 214 -49 q65 -49 63 -160 q2 -112 -63 -161 q-64 -50 -214 -49 l-765 0 Z" /><glyph glyph-name="" unicode="&#x421;" d="M955 149 q-382 -2 -540 93 q-158 94 -153 309 q-5 218 155 311 q159 93 538 91 q260 2 406 -47 q146 -49 149 -168 l183 0 q3 187 -174 286 q-177 98 -564 99 q-487 -1 -686 -147 q-198 -146 -191 -425 q-7 -279 191 -425 q199 -146 686 -147 q386 1 563 100 q177 99 175 286 l-183 0 q-2 -118 -148 -168 q-146 -49 -407 -48 l0 0 Z" /><glyph glyph-name="" unicode="&#x422;" d="M857 0 l0 927 l656 0 l0 170 l-1494 0 l0 -170 l654 0 l0 -927 l184 0 Z" /><glyph glyph-name="" unicode="&#x423;" d="M1408 591 l-883 0 q-122 -1 -175 42 q-53 43 -52 142 l0 322 l-184 0 l0 -330 q-2 -186 96 -267 q98 -81 322 -79 l876 0 l0 -76 q16 -99 -80 -143 q-95 -44 -494 -43 q-250 -2 -378 9 q-128 10 -165 60 l-213 0 q58 -134 224 -188 q167 -53 532 -51 q480 -1 626 81 q146 83 132 267 l0 760 l-184 0 l0 -506 Z" /><glyph glyph-name="" unicode="&#x40e;" d="M717 1232 q128 -1 222 51 q94 53 135 173 l-164 0 q-22 -44 -69 -71 q-48 -26 -124 -27 q-75 1 -121 27 q-47 27 -69 71 l-164 0 q38 -120 132 -173 q94 -52 222 -51 l0 0 ZM1408 591 l-883 0 q-122 -1 -175 42 q-53 43 -52 142 l0 322 l-184 0 l0 -330 q-2 -186 96 -267 q98 -81 322 -79 l876 0 l0 -76 q16 -99 -80 -143 q-95 -44 -494 -43 q-250 -2 -378 9 q-128 10 -165 60 l-213 0 q58 -134 224 -188 q167 -53 532 -51 q480 -1 626 81 q146 83 132 267 l0 760 l-184 0 l0 -506 Z" /><glyph glyph-name="" unicode="&#x424;" d="M2142 567 q9 231 -199 324 q-208 93 -741 89 l0 137 l-184 0 l0 -137 q-533 4 -741 -89 q-208 -93 -199 -324 q-9 -236 199 -331 q208 -95 741 -91 l0 -165 l184 0 l0 165 q533 -4 741 91 q208 95 199 331 l0 0 ZM262 567 q-9 143 151 194 q161 52 605 49 l0 -495 q-444 -3 -605 50 q-160 54 -151 202 l0 0 ZM1202 810 q444 3 605 -49 q160 -51 151 -194 q9 -148 -151 -202 q-161 -53 -605 -50 l0 495 Z" /><glyph glyph-name="" unicode="&#x425;" d="M994 560 l666 537 l-270 0 l-531 -428 l-530 428 l-265 0 l662 -535 l-696 -562 l270 0 l561 453 l560 -453 l265 0 l-692 560 Z" /><glyph glyph-name="" unicode="&#x427;" d="M1355 560 l-849 0 q-125 -1 -178 45 q-53 45 -51 148 l0 344 l-183 0 l0 -346 q-2 -189 99 -273 q101 -84 327 -82 l835 0 l0 -396 l184 0 l0 1097 l-184 0 l0 -537 Z" /><glyph glyph-name="" unicode="&#x426;" d="M1714 -235 l0 405 l-173 0 l0 927 l-184 0 l0 -927 l-1056 0 l0 927 l-184 0 l0 -1097 l1415 0 l0 -235 l182 0 Z" /><glyph glyph-name="" unicode="&#x428;" d="M2181 0 l0 1097 l-184 0 l0 -927 l-756 0 l0 927 l-184 0 l0 -927 l-756 0 l0 927 l-184 0 l0 -1097 l2064 0 Z" /><glyph glyph-name="" unicode="&#x429;" d="M2355 -235 l0 405 l-174 0 l0 927 l-184 0 l0 -927 l-756 0 l0 927 l-184 0 l0 -927 l-756 0 l0 927 l-184 0 l0 -1097 l2056 0 l0 -235 l182 0 Z" /><glyph glyph-name="" unicode="&#x40f;" d="M929 -235 l0 235 l629 0 l0 1097 l-184 0 l0 -927 l-1073 0 l0 927 l-184 0 l0 -1097 l630 0 l0 -235 l182 0 Z" /><glyph glyph-name="" unicode="&#x42c;" d="M1542 362 q2 194 -118 279 q-120 85 -385 83 l-738 0 l0 373 l-184 0 l0 -1097 l925 0 q264 -1 383 84 q119 86 117 278 l0 0 ZM301 170 l0 384 l780 0 q150 1 214 -44 q65 -45 63 -148 q2 -103 -63 -148 q-64 -45 -214 -44 l-780 0 Z" /><glyph glyph-name="" unicode="&#x42a;" d="M1857 362 q2 194 -118 279 q-120 85 -385 83 l-738 0 l0 373 l-597 0 l0 -170 l413 0 l0 -927 l925 0 q263 -1 382 84 q120 86 118 278 l0 0 ZM616 170 l0 384 l780 0 q150 1 214 -44 q65 -45 63 -148 q2 -103 -63 -148 q-64 -45 -214 -44 l-780 0 Z" /><glyph glyph-name="" unicode="&#x42b;" d="M301 724 l0 373 l-184 0 l0 -1097 l925 0 q264 -1 383 84 q119 86 117 278 q2 194 -118 279 q-120 85 -385 83 l-738 0 ZM1680 0 l184 0 l0 1097 l-184 0 l0 -1097 ZM301 170 l0 384 l780 0 q150 1 214 -44 q65 -45 63 -148 q2 -103 -63 -148 q-64 -45 -214 -44 l-780 0 Z" /><glyph glyph-name="" unicode="&#x409;" d="M2431 362 q2 194 -118 279 q-120 85 -385 83 l-588 0 l0 373 l-1001 0 l-74 -616 q-14 -162 -56 -240 q-41 -79 -179 -79 l0 -162 q174 -2 272 79 q98 81 121 265 l73 583 l660 0 l0 -927 l775 0 q264 -1 383 84 q119 86 117 278 l0 0 ZM1340 170 l0 384 l630 0 q150 1 214 -44 q65 -45 63 -148 q2 -103 -63 -148 q-64 -45 -214 -44 l-630 0 Z" /><glyph glyph-name="" unicode="&#x40a;" d="M1315 672 l0 425 l-184 0 l0 -425 l-830 0 l0 425 l-184 0 l0 -1097 l184 0 l0 501 l830 0 l0 -501 l780 0 q211 -4 317 67 q106 70 106 267 q3 183 -94 262 q-98 78 -329 76 l-596 0 ZM1315 170 l0 331 l652 0 q90 2 136 -34 q47 -36 47 -133 q0 -96 -46 -131 q-47 -35 -137 -33 l-652 0 Z" /><glyph glyph-name="" unicode="&#x405;" d="M811 -20 q349 -6 546 56 q197 63 200 266 q4 143 -69 229 q-73 85 -277 99 l-762 33 q-78 3 -120 33 q-42 30 -42 99 q-6 77 108 117 q114 40 423 40 q224 4 372 -38 q148 -43 153 -176 l184 0 q-3 212 -189 300 q-186 87 -520 84 q-329 5 -520 -62 q-191 -67 -195 -263 q-3 -147 76 -226 q78 -80 270 -92 l762 -33 q73 -2 118 -30 q44 -28 45 -99 q0 -102 -143 -135 q-142 -34 -420 -31 q-228 -4 -385 38 q-157 41 -164 174 l-184 0 q3 -213 194 -299 q191 -87 539 -84 l0 0 Z" /><glyph glyph-name="" unicode="&#x404;" d="M947 149 q-348 -1 -509 76 q-161 78 -180 252 l900 0 l0 170 l-896 0 q26 165 188 236 q162 72 497 70 q260 2 407 -47 q146 -49 148 -168 l183 0 q3 187 -174 286 q-177 98 -564 99 q-487 -1 -686 -147 q-198 -146 -191 -425 q-7 -279 191 -425 q199 -146 686 -147 q387 1 564 100 q177 99 174 286 l-183 0 q-2 -118 -148 -168 q-146 -49 -407 -48 l0 0 Z" /><glyph glyph-name="" unicode="&#x42d;" d="M808 1123 q-387 -1 -564 -99 q-177 -99 -174 -286 l183 0 q3 119 149 168 q146 49 406 47 q335 2 497 -70 q162 -71 188 -236 l-896 0 l0 -170 l900 0 q-19 -174 -180 -252 q-161 -77 -509 -76 q-261 -1 -407 48 q-146 50 -148 168 l-183 0 q-2 -187 175 -286 q177 -99 563 -100 q487 1 686 147 q198 146 191 425 q7 279 -191 425 q-199 146 -686 147 l0 0 Z" /><glyph glyph-name="" unicode="&#x406;" d="M301 0 l0 1097 l-184 0 l0 -1097 l184 0 Z" /><glyph glyph-name="" unicode="&#x407;" d="M34 1232 q62 -1 88 23 q26 23 25 79 q1 56 -25 80 q-26 24 -88 23 q-63 1 -89 -23 q-26 -24 -25 -80 q-1 -56 25 -79 q26 -24 89 -23 l0 0 ZM385 1232 q62 -1 88 23 q26 23 25 79 q1 56 -25 80 q-26 24 -88 23 q-63 1 -89 -23 q-26 -24 -25 -80 q-1 -56 25 -79 q26 -24 89 -23 l0 0 ZM301 0 l0 1097 l-184 0 l0 -1097 l184 0 Z" /><glyph glyph-name="" unicode="&#x408;" d="M1460 1097 l-810 0 l0 -171 l627 0 l0 -479 q8 -152 -98 -225 q-106 -73 -416 -72 q-280 -2 -401 62 q-120 64 -117 224 l-184 0 q-4 -249 161 -354 q165 -105 541 -102 q386 -1 545 113 q158 113 153 349 l-1 655 Z" /><glyph glyph-name="" unicode="&#x40b;" d="M1399 738 l-337 0 q-141 1 -237 -43 q-97 -44 -150 -139 l0 371 l650 0 l0 170 l-1286 0 l0 -170 l454 0 l0 -927 l182 0 l0 270 q1 153 103 228 q102 75 298 75 l333 0 q166 -2 226 -72 q60 -70 56 -223 l0 -278 l182 0 l0 278 q4 238 -104 348 q-108 110 -370 112 l0 0 Z" /><glyph glyph-name="" unicode="&#x42e;" d="M1477 1117 q-412 -1 -591 -123 q-180 -123 -195 -361 l-390 0 l0 464 l-184 0 l0 -1098 l184 0 l0 463 l390 0 q15 -237 195 -361 q180 -123 591 -124 q445 1 620 147 q175 146 168 424 q7 279 -168 424 q-176 144 -620 145 l0 0 ZM1477 148 q-334 -2 -472 92 q-138 93 -134 308 q-4 215 134 308 q138 93 472 91 q332 2 470 -91 q138 -93 134 -308 q4 -215 -134 -308 q-138 -94 -470 -92 l0 0 Z" /><glyph glyph-name="" unicode="&#x42f;" d="M563 1097 q-252 2 -362 -77 q-110 -78 -108 -267 q-1 -104 42 -165 q43 -62 136 -91 q-92 -25 -131 -90 q-40 -65 -39 -182 q0 -72 -7 -127 q-7 -56 -23 -98 l193 0 q12 42 16 98 q4 55 4 127 q-2 98 57 137 q59 39 202 37 l798 0 l0 -399 l184 0 l0 1097 l-962 0 ZM525 570 q-137 -1 -194 41 q-57 41 -55 142 q-2 96 55 136 q57 39 194 38 l816 0 l0 -357 l-816 0 Z" /><glyph glyph-name="" unicode="&#x402;" d="M1401 743 l-330 0 q-143 0 -242 -47 q-99 -47 -154 -145 l0 376 l644 0 l0 170 l-1280 0 l0 -170 l454 0 l0 -927 l182 0 l0 270 q1 153 102 228 q100 75 293 75 l328 0 q149 -1 215 -52 q65 -51 64 -161 q1 -109 -32 -158 q-34 -49 -108 -48 q-50 -1 -79 15 q-29 16 -34 60 l-189 0 q11 -120 84 -179 q73 -58 218 -58 q171 -2 247 86 q76 88 75 285 q0 195 -113 288 q-114 93 -345 92 l0 0 Z" /><glyph glyph-name="" unicode="&#x430;" d="M1429 459 q9 232 -121 340 q-130 108 -529 107 q-326 2 -461 -50 q-134 -52 -189 -184 l190 0 q33 46 137 60 q105 13 323 12 q301 2 390 -61 q90 -63 84 -216 q-60 58 -190 82 q-131 24 -346 23 q-367 1 -506 -71 q-140 -72 -133 -224 q-7 -164 133 -231 q139 -67 506 -65 q248 0 384 35 q136 36 185 113 q34 -76 113 -103 q80 -28 215 -26 l0 162 q-126 -7 -157 48 q-31 54 -28 249 l0 0 ZM717 138 q-279 -2 -374 29 q-96 30 -89 110 q-7 69 88 105 q95 36 375 36 q319 1 431 -30 q111 -31 104 -106 q7 -73 -104 -108 q-112 -36 -431 -36 l0 0 Z" /><glyph glyph-name="" unicode="&#x431;" d="M1515 351 q9 174 -141 265 q-150 90 -570 91 q-233 -1 -367 -37 q-134 -37 -183 -95 q-1 164 108 229 q110 65 438 62 q365 -1 507 53 q141 54 158 178 l-189 0 q2 -36 -96 -52 q-99 -16 -371 -16 q-418 2 -578 -131 q-161 -134 -153 -430 q-8 -260 149 -375 q157 -115 577 -113 q392 0 554 90 q163 90 157 281 l0 0 ZM804 144 q-323 -1 -440 51 q-117 52 -110 162 q-6 101 114 144 q120 43 435 42 q315 -1 430 -47 q115 -47 108 -147 q8 -103 -102 -154 q-110 -50 -435 -51 l0 0 Z" /><glyph glyph-name="" unicode="&#x432;" d="M1321 444 q56 24 81 71 q25 47 25 109 q-1 143 -92 196 q-91 53 -266 50 l-952 0 l0 -870 l994 0 q179 -1 268 62 q89 62 89 199 q1 62 -32 112 q-33 50 -115 71 l0 0 ZM1110 708 q72 1 107 -22 q34 -23 34 -78 q0 -53 -35 -72 q-35 -20 -106 -19 l-817 1 l0 190 l817 0 ZM293 162 l0 212 l858 -1 q71 0 106 -29 q35 -28 35 -80 q0 -58 -37 -81 q-37 -22 -107 -21 l-855 0 Z" /><glyph glyph-name="" unicode="&#x433;" d="M293 0 l0 708 l1003 0 l0 162 l-1179 0 l0 -870 l176 0 Z" /><glyph glyph-name="" unicode="&#x453;" d="M762 991 l251 251 l-238 0 l-169 -251 l156 0 ZM293 0 l0 708 l1003 0 l0 162 l-1179 0 l0 -870 l176 0 Z" /><glyph glyph-name="" unicode="&#x491;" d="M292 0 l0 708 l1004 0 l0 389 l-170 0 l0 -227 l-1009 0 l0 -870 l175 0 Z" /><glyph glyph-name="" unicode="&#x434;" d="M200 0 l0 165 l1328 0 l0 -165 l170 0 l0 327 l-158 0 l0 543 l-1196 0 l-42 -270 q-15 -100 -42 -166 q-27 -66 -62 -107 l-168 0 l0 -327 l170 0 ZM396 327 q22 32 43 92 q20 61 33 147 l22 142 l869 0 l0 -381 l-967 0 Z" /><glyph glyph-name="" unicode="&#x435;" d="M1474 526 q6 177 -146 278 q-152 100 -539 102 q-386 0 -551 -112 q-164 -113 -160 -344 q-7 -240 149 -355 q155 -116 562 -115 q329 -2 469 54 q141 56 195 189 l-189 0 q-33 -46 -143 -64 q-109 -18 -332 -17 q-278 -2 -395 48 q-118 49 -132 174 l1212 0 l0 162 ZM262 526 q11 127 124 174 q114 47 403 44 q300 1 408 -51 q108 -52 101 -167 l-1036 0 Z" /><glyph glyph-name="" unicode="&#x450;" d="M774 1252 l-238 0 l251 -251 l156 0 l-169 251 ZM1474 526 q6 177 -146 278 q-152 100 -539 102 q-386 0 -551 -112 q-164 -113 -160 -344 q-7 -240 149 -355 q155 -116 562 -115 q329 -2 469 54 q141 56 195 189 l-189 0 q-33 -46 -143 -64 q-109 -18 -332 -17 q-278 -2 -395 48 q-118 49 -132 174 l1212 0 l0 162 ZM262 526 q11 127 124 174 q114 47 403 44 q300 1 408 -51 q108 -52 101 -167 l-1036 0 Z" /><glyph glyph-name="" unicode="&#x451;" d="M631 1002 q62 -1 88 23 q26 23 25 79 q1 56 -25 80 q-26 24 -88 23 q-63 1 -89 -23 q-26 -24 -25 -80 q-1 -56 25 -79 q26 -24 89 -23 l0 0 ZM982 1002 q62 -1 88 23 q26 23 25 79 q1 56 -25 80 q-26 24 -88 23 q-63 1 -89 -23 q-26 -24 -25 -80 q-1 -56 25 -79 q26 -24 89 -23 l0 0 ZM1474 526 q6 177 -146 278 q-152 100 -539 102 q-386 0 -551 -112 q-164 -113 -160 -344 q-7 -240 149 -355 q155 -116 562 -115 q329 -2 469 54 q141 56 195 189 l-189 0 q-33 -46 -143 -64 q-109 -18 -332 -17 q-278 -2 -395 48 q-118 49 -132 174 l1212 0 l0 162 ZM262 526 q11 127 124 174 q114 47 403 44 q300 1 408 -51 q108 -52 101 -167 l-1036 0 Z" /><glyph glyph-name="" unicode="&#x436;" d="M2095 870 l-259 0 l-430 -344 l-266 0 l0 344 l-175 0 l0 -344 l-266 0 l-430 344 l-259 0 l543 -421 l-557 -449 l257 0 l444 365 l268 0 l0 -365 l175 0 l0 365 l268 0 l444 -365 l257 0 l-557 449 l543 421 Z" /><glyph glyph-name="" unicode="&#x437;" d="M1274 454 q77 29 112 77 q34 47 33 112 q8 138 -131 201 q-139 64 -520 63 q-386 3 -532 -84 q-146 -87 -139 -296 l176 0 q-7 120 95 170 q102 50 400 48 q280 0 380 -26 q99 -27 93 -83 q2 -56 -47 -82 q-48 -25 -165 -25 l-509 0 l0 -162 l476 0 q150 2 218 -18 q69 -20 68 -80 q8 -66 -101 -96 q-108 -31 -431 -31 q-301 -1 -406 55 q-104 55 -97 175 l-176 0 q-7 -210 141 -302 q148 -92 538 -90 q414 2 566 72 q152 71 144 209 q1 82 -43 128 q-45 47 -143 65 l0 0 Z" /><glyph glyph-name="" unicode="&#x438;" d="M293 156 l0 714 l-176 0 l0 -870 l234 0 l948 715 l0 -715 l176 0 l0 870 l-234 0 l-948 -714 Z" /><glyph glyph-name="" unicode="&#x439;" d="M806 981 q128 -2 221 49 q93 51 136 175 l-161 0 q-21 -41 -70 -65 q-49 -24 -126 -25 q-76 1 -124 25 q-48 24 -69 65 l-161 0 q42 -124 134 -175 q93 -51 220 -49 l0 0 ZM293 156 l0 714 l-176 0 l0 -870 l234 0 l948 715 l0 -715 l176 0 l0 870 l-234 0 l-948 -714 Z" /><glyph glyph-name="" unicode="&#x45d;" d="M775 1231 l-238 0 l251 -251 l156 0 l-169 251 ZM293 156 l0 714 l-176 0 l0 -870 l234 0 l948 715 l0 -715 l176 0 l0 870 l-234 0 l-948 -714 Z" /><glyph glyph-name="" unicode="&#x43a;" d="M1549 0 l-768 454 l738 416 l-306 0 l-603 -344 l-318 0 l0 344 l-175 0 l0 -870 l175 0 l0 365 l321 0 l616 -365 l320 0 Z" /><glyph glyph-name="" unicode="&#x45c;" d="M789 1239 l-169 -251 l156 0 l251 251 l-238 0 ZM1549 0 l-768 454 l738 416 l-306 0 l-603 -344 l-318 0 l0 344 l-175 0 l0 -870 l175 0 l0 365 l321 0 l616 -365 l320 0 Z" /><glyph glyph-name="" unicode="&#x43b;" d="M1461 870 l-1137 0 l-66 -487 q-14 -117 -65 -169 q-51 -53 -163 -52 l0 -162 q174 -3 273 80 q99 82 126 280 l48 348 l808 0 l0 -708 l176 0 l0 870 Z" /><glyph glyph-name="" unicode="&#x43c;" d="M960 213 l-584 657 l-259 0 l0 -870 l176 0 l0 737 l551 -660 l222 0 l552 671 l0 -748 l176 0 l0 870 l-257 0 l-577 -657 Z" /><glyph glyph-name="" unicode="&#x43d;" d="M293 0 l0 361 l984 0 l0 -361 l176 0 l0 870 l-176 0 l0 -347 l-984 0 l0 347 l-176 0 l0 -870 l176 0 Z" /><glyph glyph-name="" unicode="&#x43e;" d="M814 906 q-421 2 -582 -108 q-162 -110 -154 -353 q-8 -243 153 -355 q161 -111 583 -110 q421 -2 582 110 q161 111 153 355 q8 243 -153 353 q-161 110 -582 108 l0 0 ZM814 142 q-336 -2 -452 69 q-116 71 -108 234 q-8 162 108 232 q116 69 452 67 q335 2 451 -67 q116 -70 108 -232 q8 -163 -108 -234 q-116 -71 -451 -69 l0 0 Z" /><glyph glyph-name="" unicode="&#x43f;" d="M293 0 l0 708 l931 0 l0 -708 l176 0 l0 870 l-1283 0 l0 -870 l176 0 Z" /><glyph glyph-name="" unicode="&#x440;" d="M830 906 q-225 1 -354 -31 q-128 -32 -183 -103 l0 98 l-176 0 l0 -870 l176 0 l0 292 q55 -71 183 -104 q129 -32 354 -32 q352 -3 507 84 q154 87 151 301 q3 204 -152 286 q-154 82 -506 79 l0 0 ZM830 318 q-292 -3 -416 41 q-123 44 -120 173 q-3 129 120 172 q124 43 416 40 q265 3 375 -40 q110 -43 107 -163 q3 -131 -107 -178 q-111 -48 -375 -45 l0 0 Z" /><glyph glyph-name="" unicode="&#x441;" d="M804 142 q-328 -1 -443 68 q-115 70 -107 228 q-8 167 107 238 q115 71 443 69 q298 2 400 -48 q101 -50 94 -170 l176 0 q7 209 -138 296 q-146 87 -532 84 q-417 3 -576 -105 q-158 -108 -150 -364 q-8 -248 150 -354 q159 -107 576 -104 q386 -2 532 90 q145 92 138 302 l-176 0 q7 -120 -94 -175 q-102 -56 -400 -55 l0 0 Z" /><glyph glyph-name="" unicode="&#x442;" d="M792 0 l0 708 l586 0 l0 162 l-1348 0 l0 -162 l586 0 l0 -708 l176 0 Z" /><glyph glyph-name="" unicode="&#x443;" d="M1211 474 l-725 0 q-113 -1 -159 35 q-47 36 -46 121 l0 240 l-176 0 l0 -240 q-3 -175 88 -247 q90 -73 307 -71 l711 0 q10 -90 -66 -130 q-75 -41 -366 -40 q-208 -2 -333 11 q-126 12 -163 58 l-213 0 q59 -131 225 -182 q166 -51 484 -49 q385 -1 502 79 q118 81 106 261 l0 550 l-176 0 l0 -396 Z" /><glyph glyph-name="" unicode="&#x45e;" d="M742 1002 q128 -1 222 51 q94 53 135 173 l-164 0 q-22 -44 -69 -71 q-48 -26 -124 -27 q-75 1 -121 27 q-47 27 -69 71 l-164 0 q38 -120 132 -173 q94 -52 222 -51 l0 0 ZM1211 474 l-725 0 q-113 -1 -159 35 q-47 36 -46 121 l0 240 l-176 0 l0 -240 q-3 -175 88 -247 q90 -73 307 -71 l711 0 q10 -90 -66 -130 q-75 -41 -366 -40 q-208 -2 -333 11 q-126 12 -163 58 l-213 0 q59 -131 225 -182 q166 -51 484 -49 q385 -1 502 79 q118 81 106 261 l0 550 l-176 0 l0 -396 Z" /><glyph glyph-name="" unicode="&#x444;" d="M1903 436 q4 208 -190 271 q-194 63 -634 57 l0 126 l-175 0 l0 -126 q-441 6 -636 -57 q-194 -63 -190 -271 q-4 -206 190 -271 q195 -65 636 -59 l0 -126 l175 0 l0 126 q440 -6 634 59 q194 65 190 271 l0 0 ZM255 436 q-5 107 140 138 q146 31 509 28 l0 -334 q-363 -3 -509 30 q-145 32 -140 138 l0 0 ZM1079 602 q363 3 508 -28 q146 -31 140 -138 q6 -106 -140 -138 q-145 -33 -508 -30 l0 334 Z" /><glyph glyph-name="" unicode="&#x445;" d="M888 448 l558 422 l-275 0 l-422 -319 l-429 319 l-266 0 l561 -420 l-595 -450 l275 0 l458 346 l463 -346 l275 0 l-603 448 Z" /><glyph glyph-name="" unicode="&#x447;" d="M1200 460 l-698 0 q-126 0 -181 42 q-56 41 -55 124 l0 244 l-176 0 l0 -244 q-2 -169 99 -249 q101 -80 327 -79 l684 0 l0 -298 l176 0 l0 870 l-176 0 l0 -410 Z" /><glyph glyph-name="" unicode="&#x446;" d="M1395 870 l-176 0 l0 -543 l-946 0 l0 543 l-176 0 l0 -705 l1288 0 l0 -165 l172 0 l0 327 l-162 0 l0 543 Z" /><glyph glyph-name="" unicode="&#x448;" d="M2053 0 l0 870 l-176 0 l0 -708 l-704 0 l0 708 l-176 0 l0 -708 l-704 0 l0 708 l-176 0 l0 -870 l1936 0 Z" /><glyph glyph-name="" unicode="&#x449;" d="M2063 870 l-176 0 l0 -543 l-719 0 l0 543 l-176 0 l0 -543 l-719 0 l0 543 l-176 0 l0 -705 l1956 0 l0 -165 l171 0 l0 327 l-161 0 l0 543 Z" /><glyph glyph-name="" unicode="&#x45f;" d="M852 0 l0 165 l563 0 l0 705 l-176 0 l0 -543 l-946 0 l0 543 l-176 0 l0 -705 l565 0 l0 -165 l170 0 Z" /><glyph glyph-name="" unicode="&#x44c;" d="M293 599 l0 271 l-176 0 l0 -870 l883 0 q223 -4 322 58 q99 62 97 239 q5 164 -85 234 q-91 70 -335 68 l-706 0 ZM293 162 l0 275 l754 0 q91 3 139 -25 q49 -27 49 -115 q0 -83 -47 -110 q-47 -27 -141 -25 l-754 0 Z" /><glyph glyph-name="" unicode="&#x44a;" d="M583 599 l0 271 l-553 0 l0 -162 l377 0 l0 -708 l883 0 q223 -4 322 58 q99 62 97 239 q5 164 -85 234 q-91 70 -335 68 l-706 0 ZM583 162 l0 275 l754 0 q91 3 139 -25 q49 -27 49 -115 q0 -83 -47 -110 q-47 -27 -141 -25 l-754 0 Z" /><glyph glyph-name="" unicode="&#x44b;" d="M293 599 l0 271 l-176 0 l0 -870 l883 0 q223 -4 322 58 q99 62 97 239 q5 164 -85 234 q-91 70 -335 68 l-706 0 ZM1571 0 l176 0 l0 870 l-176 0 l0 -870 ZM293 162 l0 275 l754 0 q91 3 139 -25 q49 -27 49 -115 q0 -83 -47 -110 q-47 -27 -141 -25 l-754 0 Z" /><glyph glyph-name="" unicode="&#x459;" d="M30 0 q174 -3 273 80 q99 82 126 280 l47 348 l602 0 l0 -708 l760 0 q223 -4 322 58 q99 62 97 239 q5 164 -85 234 q-91 70 -335 68 l-583 0 l0 271 l-930 0 l-66 -487 q-14 -117 -65 -169 q-51 -53 -163 -52 l0 -162 ZM1254 437 l631 0 q91 3 139 -25 q49 -27 49 -115 q0 -83 -47 -110 q-47 -27 -141 -25 l-631 0 l0 275 Z" /><glyph glyph-name="" unicode="&#x45a;" d="M1268 571 l0 299 l-176 0 l0 -299 l-799 0 l0 299 l-176 0 l0 -870 l176 0 l0 403 l799 0 l0 -403 l760 0 q223 -4 322 57 q99 60 97 230 q4 150 -87 218 q-92 67 -333 66 l-583 0 ZM1268 162 l0 247 l631 0 q91 2 139 -22 q49 -25 49 -103 q0 -75 -47 -100 q-47 -24 -141 -22 l-631 0 Z" /><glyph glyph-name="" unicode="&#x455;" d="M735 -20 q345 -2 505 62 q159 63 157 209 q4 111 -70 186 q-75 76 -281 93 l-609 26 q-76 4 -119 25 q-42 21 -43 67 q-4 53 99 76 q103 22 358 21 q210 1 329 -34 q120 -35 122 -115 l184 0 q3 142 -146 226 q-149 83 -489 85 q-340 1 -492 -64 q-152 -64 -149 -202 q-1 -130 83 -189 q83 -59 266 -71 l611 -27 q80 -5 121 -29 q41 -24 41 -75 q6 -58 -96 -83 q-102 -26 -382 -25 q-223 -1 -352 35 q-130 35 -133 114 l-184 0 q-4 -142 150 -226 q154 -83 519 -85 l0 0 Z" /><glyph glyph-name="" unicode="&#x454;" d="M804 142 q-290 -1 -411 52 q-121 53 -134 173 l766 0 l0 162 l-763 0 q18 117 139 167 q122 50 403 49 q298 2 400 -48 q101 -50 94 -170 l176 0 q7 209 -138 296 q-146 87 -532 84 q-417 3 -576 -105 q-158 -108 -150 -364 q-8 -248 150 -354 q159 -107 576 -104 q386 -2 532 90 q145 92 138 302 l-176 0 q7 -120 -94 -175 q-102 -56 -400 -55 l0 0 Z" /><glyph glyph-name="" unicode="&#x44d;" d="M742 907 q-386 3 -532 -84 q-145 -87 -138 -296 l176 0 q-7 120 94 170 q102 50 400 48 q281 1 403 -49 q121 -50 139 -167 l-763 0 l0 -162 l766 0 q-13 -120 -134 -173 q-121 -53 -411 -52 q-298 -1 -400 55 q-101 55 -94 175 l-176 0 q-7 -210 138 -302 q146 -92 532 -90 q417 -3 576 104 q158 106 150 354 q8 256 -150 364 q-159 108 -576 105 l0 0 Z" /><glyph glyph-name="" unicode="&#x456;" d="M205 1002 q62 -1 88 23 q26 23 25 79 q1 56 -25 80 q-26 24 -88 23 q-63 1 -89 -23 q-26 -24 -25 -80 q-1 -56 25 -79 q26 -24 89 -23 l0 0 ZM293 0 l0 870 l-176 0 l0 -870 l176 0 Z" /><glyph glyph-name="" unicode="&#x457;" d="M105 1002 q46 -1 65 23 q19 23 18 79 q1 56 -18 80 q-19 24 -65 23 q-47 1 -66 -23 q-19 -24 -18 -80 q-1 -56 18 -79 q19 -24 66 -23 l0 0 ZM307 1002 q46 -1 65 23 q19 23 18 79 q1 56 -18 80 q-19 24 -65 23 q-47 1 -66 -23 q-19 -24 -18 -80 q-1 -56 18 -79 q19 -24 66 -23 l0 0 ZM293 0 l0 870 l-176 0 l0 -870 l176 0 Z" /><glyph glyph-name="" unicode="&#x458;" d="M882 1002 q62 -1 88 23 q26 23 25 79 q1 56 -25 80 q-26 24 -88 23 q-63 1 -89 -23 q-26 -24 -25 -80 q-1 -56 25 -79 q26 -24 89 -23 l0 0 ZM478 -19 q293 -2 396 87 q103 89 96 292 l0 510 l-184 0 l1 -487 q6 -129 -54 -185 q-60 -56 -255 -55 q-178 -2 -234 24 q-57 25 -61 98 l-183 0 q9 -159 110 -223 q100 -63 368 -61 l0 0 Z" /><glyph glyph-name="" unicode="&#x45b;" d="M907 807 q-222 1 -356 -46 q-134 -47 -196 -149 l0 222 l455 0 l0 162 l-455 0 l0 101 l-176 0 l0 -101 l-139 0 l0 -162 l139 0 l0 -834 l176 0 l0 341 q-5 154 115 229 q120 75 423 75 q290 1 385 -68 q95 -70 87 -227 l0 -350 l176 0 l0 350 q9 243 -121 351 q-130 108 -513 106 l0 0 Z" /><glyph glyph-name="" unicode="&#x44e;" d="M1343 906 q-367 1 -527 -87 q-160 -89 -176 -284 l-347 0 l0 335 l-176 0 l0 -870 l176 0 l0 373 l345 0 q11 -205 170 -300 q159 -94 535 -93 q405 -2 560 110 q155 111 148 355 q7 243 -148 353 q-155 110 -560 108 l0 0 ZM1343 142 q-319 -2 -429 69 q-111 71 -103 234 q-8 162 103 232 q110 69 429 67 q319 2 429 -67 q111 -70 103 -232 q8 -163 -103 -234 q-110 -71 -429 -69 l0 0 Z" /><glyph glyph-name="" unicode="&#x44f;" d="M1419 870 l-960 0 q-160 1 -262 -60 q-102 -62 -105 -201 q-1 -72 33 -128 q34 -55 111 -87 q-84 -23 -115 -82 q-31 -59 -29 -165 q1 -37 -3 -71 q-3 -34 -19 -76 l182 0 q9 33 12 68 q3 35 3 79 q-1 96 36 134 q36 38 120 36 l821 -1 l0 -316 l176 0 l-1 870 ZM445 464 q-111 0 -145 32 q-35 31 -32 100 q1 68 47 91 q46 23 130 21 l799 0 l0 -244 l-799 0 Z" /><glyph glyph-name="" unicode="&#x452;" d="M928 807 q-232 1 -371 -48 q-139 -48 -202 -152 l0 227 l455 0 l0 162 l-455 0 l0 101 l-176 0 l0 -101 l-139 0 l0 -162 l139 0 l0 -834 l176 0 l0 340 q-6 162 118 234 q124 72 455 71 q267 -2 361 -95 q94 -94 88 -260 q2 -160 -71 -257 q-74 -98 -240 -101 l-164 0 l0 -162 l161 0 q250 1 371 136 q120 134 119 388 q4 266 -141 390 q-145 124 -484 123 l0 0 Z" /><glyph glyph-name="" unicode="&#x394;" d="M776 1097 l-756 -1097 l1727 0 l-756 1097 l-215 0 ZM884 973 l536 -803 l-1073 0 l537 803 Z" /><glyph glyph-name="" unicode="&#x3a9;" d="M1747 551 q14 263 -153 410 q-167 147 -681 149 q-515 -2 -682 -149 q-167 -147 -153 -410 q-2 -107 42 -209 q43 -102 152 -175 l-194 0 l0 -170 l501 0 l0 171 q-171 16 -245 105 q-74 90 -72 278 q-10 214 123 303 q133 89 528 86 q394 3 527 -86 q133 -89 123 -303 q2 -186 -71 -276 q-73 -91 -246 -107 l0 -171 l501 0 l0 170 l-185 0 q103 74 145 176 q41 102 40 208 l0 0 Z" /><glyph glyph-name="" unicode="&#x3bc;" d="M1423 868 l-176 0 l2 -438 q-3 -139 -114 -207 q-111 -69 -378 -69 q-280 0 -386 76 q-106 75 -101 228 l0 410 l-176 0 l0 -868 l153 0 l19 173 q51 -94 168 -138 q116 -43 323 -43 q211 -1 331 46 q120 46 171 147 q22 -110 109 -149 q87 -38 242 -36 l0 162 q-131 -5 -159 49 q-29 53 -28 224 l0 433 Z" /><glyph glyph-name="" unicode="&#x3c0;" d="M1346 708 l129 0 l0 162 l-1370 0 l0 -162 l98 0 l0 -708 l176 0 l0 708 l792 0 l1 -411 l3 2 l-3 -33 q1 -172 84 -222 q83 -50 237 -44 l0 162 q-106 -5 -126 45 q-20 49 -21 212 l0 289 Z" /><glyph glyph-name="" unicode="0" d="M838 -11 q437 0 603 143 q165 143 157 424 q8 281 -157 424 q-166 143 -603 143 q-438 0 -603 -143 q-165 -143 -157 -424 q-8 -281 157 -424 q165 -143 603 -143 l0 0 ZM838 160 q-357 1 -471 102 q-115 101 -105 294 q-10 192 105 294 q114 102 471 103 q356 -1 471 -102 q114 -102 104 -295 q10 -193 -104 -294 q-115 -101 -471 -102 l0 0 Z" /><glyph glyph-name="" unicode="1" d="M1362 0 l0 170 l-479 0 l0 936 l-766 -71 l0 -133 l598 0 l0 -732 l-596 0 l0 -170 l1243 0 Z" /><glyph glyph-name="" unicode="2" d="M1554 0 l0 170 l-661 -2 q-89 -1 -216 -10 q-126 -9 -189 -10 q428 74 740 204 q311 129 326 363 q12 181 -137 293 q-149 112 -607 115 q-370 5 -544 -76 q-174 -81 -172 -304 l184 -21 q-11 105 91 167 q101 63 441 64 q307 2 436 -50 q129 -53 125 -188 q-19 -210 -392 -323 q-372 -113 -872 -211 l0 -181 l1447 0 Z" /><glyph glyph-name="" unicode="3" d="M808 -8 q452 0 620 75 q167 74 158 241 q1 95 -47 157 q-48 62 -151 97 q81 37 119 90 q38 53 38 124 q9 178 -142 257 q-151 79 -564 77 q-415 2 -566 -88 q-152 -90 -143 -292 l184 0 q-8 112 100 161 q107 50 425 49 q315 1 423 -38 q107 -39 99 -126 q1 -81 -55 -123 q-55 -43 -181 -43 l-540 0 l0 -150 l603 0 q114 1 165 -35 q50 -37 49 -117 q8 -76 -115 -111 q-124 -35 -479 -35 q-329 -1 -441 49 q-113 49 -105 161 l-184 0 q-9 -202 148 -292 q156 -90 582 -88 l0 0 Z" /><glyph glyph-name="" unicode="4" d="M1357 0 l0 260 l323 0 l0 168 l-323 0 l0 682 l-223 0 l-1095 -697 l0 -153 l1135 0 l0 -260 l183 0 ZM1174 930 l0 -502 l-511 0 q-88 0 -178 -6 q-90 -6 -171 -15 l860 523 Z" /><glyph glyph-name="" unicode="5" d="M864 -8 q441 2 592 105 q151 102 140 275 q10 189 -147 294 q-157 105 -606 107 q-183 0 -294 -23 q-111 -22 -171 -64 l65 244 l1115 0 l0 170 l-1263 0 l-166 -620 l194 0 q25 68 153 96 q128 28 367 27 q320 2 447 -48 q127 -51 122 -183 q5 -117 -116 -164 q-121 -48 -432 -46 q-306 -1 -434 30 q-128 31 -148 108 l-188 0 q6 -143 163 -224 q157 -82 607 -84 l0 0 Z" /><glyph glyph-name="" unicode="6" d="M825 -20 q399 -2 578 75 q178 78 175 265 q15 154 -123 250 q-139 96 -610 99 q-260 -1 -395 -38 q-134 -38 -180 -110 q5 237 114 336 q109 98 456 96 q324 2 441 -50 q117 -51 110 -173 l184 0 q13 184 -128 288 q-142 103 -597 105 q-418 8 -597 -132 q-180 -139 -175 -525 q-15 -254 127 -370 q142 -117 620 -116 l0 0 ZM825 150 q-334 1 -448 49 q-113 48 -104 144 q-8 82 105 119 q113 37 447 37 q342 1 460 -42 q117 -42 109 -137 q8 -85 -109 -127 q-117 -43 -460 -43 l0 0 Z" /><glyph glyph-name="" unicode="7" d="M481 0 l940 934 l0 163 l-1366 0 l0 -168 l824 0 q80 0 160 2 q81 2 161 6 q-58 -52 -113 -103 q-56 -51 -106 -103 l-762 -731 l262 0 Z" /><glyph glyph-name="" unicode="8" d="M832 -20 q419 -2 590 79 q170 80 164 261 q2 105 -73 171 q-74 66 -245 96 q126 30 181 87 q55 57 54 143 q5 167 -146 237 q-152 71 -525 69 q-374 2 -525 -69 q-151 -70 -146 -237 q-1 -86 54 -143 q55 -57 181 -87 q-171 -30 -245 -96 q-75 -66 -73 -171 q-6 -181 164 -261 q171 -81 590 -79 l0 0 ZM832 656 q-273 -1 -382 33 q-109 33 -105 111 q-4 83 105 119 q109 35 382 34 q273 1 382 -34 q109 -36 105 -119 q4 -78 -105 -111 q-109 -34 -382 -33 l0 0 ZM832 150 q-319 0 -447 43 q-128 42 -123 127 q-5 101 123 147 q129 46 447 45 q318 1 447 -45 q128 -46 123 -147 q5 -85 -123 -127 q-128 -43 -447 -43 l0 0 Z" /><glyph glyph-name="" unicode="9" d="M831 1121 q-399 2 -577 -75 q-178 -78 -175 -265 q-15 -154 123 -250 q138 -96 609 -99 q260 1 395 38 q134 38 180 110 q-5 -237 -114 -336 q-109 -98 -456 -96 q-324 -2 -440 50 q-117 51 -110 173 l-184 0 q-13 -184 128 -288 q141 -103 596 -105 q418 -8 598 132 q179 139 174 525 q15 254 -127 371 q-141 116 -620 115 l0 0 ZM831 951 q335 -1 448 -49 q113 -48 104 -144 q8 -82 -105 -119 q-113 -37 -447 -37 q-342 -1 -459 42 q-117 42 -109 137 q-8 85 108 127 q117 43 460 43 l0 0 Z" /><glyph glyph-name="" unicode="&#x2080;" d="M548 -171 q266 -2 379 85 q113 87 110 283 q3 196 -110 283 q-113 88 -379 86 q-267 2 -380 -85 q-113 -88 -110 -284 q-3 -196 110 -283 q113 -87 380 -85 l0 0 ZM548 -37 q-216 0 -284 59 q-68 59 -62 175 q-6 116 62 175 q69 59 284 59 q215 0 283 -58 q68 -59 62 -176 q6 -117 -62 -175 q-68 -59 -283 -59 l0 0 Z" /><glyph glyph-name="" unicode="&#x2081;" d="M865 -151 l0 134 l-300 0 l0 587 l-507 -47 l0 -110 l374 0 l0 -430 l-373 0 l0 -134 l806 0 Z" /><glyph glyph-name="" unicode="&#x2082;" d="M460 -25 q255 59 396 138 q141 79 143 197 q2 143 -110 207 q-113 63 -369 62 q-259 2 -364 -60 q-105 -61 -98 -204 l144 -17 q-9 80 60 114 q70 34 258 33 q185 1 262 -30 q76 -32 74 -105 q-11 -124 -243 -192 q-232 -68 -547 -131 l0 -138 l933 0 l0 134 l-428 -1 q-23 0 -52 -2 q-29 -2 -59 -5 l0 0 Z" /><glyph glyph-name="" unicode="&#x2083;" d="M528 -171 q279 0 393 49 q113 48 109 163 q0 57 -26 97 q-26 39 -79 64 q40 23 59 56 q20 32 20 75 q4 122 -99 173 q-103 52 -357 50 q-261 2 -363 -59 q-102 -61 -94 -206 l144 0 q-9 73 58 102 q66 30 255 29 q179 1 247 -20 q68 -21 65 -69 q1 -46 -31 -67 q-32 -22 -102 -22 l-277 0 l0 -122 l316 0 q65 0 93 -19 q28 -19 27 -62 q3 -42 -77 -59 q-80 -18 -281 -18 q-196 -1 -266 28 q-69 30 -60 103 l-144 0 q-8 -145 97 -206 q106 -62 373 -60 l0 0 Z" /><glyph glyph-name="" unicode="&#x2084;" d="M910 566 l-158 0 l-694 -443 l0 -116 l709 0 l0 -163 l143 0 l0 163 l203 0 l0 134 l-203 0 l0 425 ZM462 126 q-42 0 -88 -2 q-46 -3 -92 -8 l485 320 l0 -310 l-305 0 Z" /><glyph glyph-name="" unicode="&#x2085;" d="M554 -171 q251 -1 362 60 q112 60 110 191 q2 139 -112 203 q-114 63 -373 62 q-97 0 -162 -10 q-65 -10 -106 -29 l29 109 l701 0 l0 134 l-815 0 l-112 -415 l152 0 q3 38 79 57 q75 19 234 19 q196 1 270 -29 q75 -30 71 -101 q3 -63 -69 -90 q-72 -28 -259 -27 q-193 -1 -270 19 q-77 20 -82 67 l-144 0 q2 -111 108 -165 q105 -55 388 -55 l0 0 Z" /><glyph glyph-name="" unicode="&#x2086;" d="M540 -171 q261 -1 374 53 q113 54 110 173 q6 118 -93 175 q-99 57 -379 57 q-142 0 -223 -18 q-81 -17 -119 -48 q8 125 77 171 q69 47 261 45 q199 1 269 -31 q71 -31 62 -109 l143 0 q10 137 -85 206 q-96 68 -382 68 q-279 4 -390 -94 q-111 -97 -107 -331 q-6 -182 96 -251 q101 -69 386 -66 l0 0 ZM540 -37 q-186 0 -260 25 q-75 26 -71 82 q-3 44 69 63 q73 20 262 20 q193 1 268 -22 q76 -23 73 -76 q3 -48 -74 -70 q-76 -22 -267 -22 l0 0 Z" /><glyph glyph-name="" unicode="&#x2087;" d="M350 -151 l596 592 l0 122 l-882 0 l0 -133 l529 0 q36 0 73 1 q37 0 76 1 q-17 -13 -46 -47 q-29 -34 -49 -55 l-499 -481 l202 0 Z" /><glyph glyph-name="" unicode="&#x2088;" d="M873 225 q53 21 79 56 q25 35 25 85 q3 111 -95 159 q-98 47 -338 46 q-240 1 -339 -46 q-98 -48 -95 -159 q0 -50 26 -85 q25 -35 79 -56 q-81 -22 -119 -64 q-38 -42 -38 -106 q-3 -121 108 -174 q112 -53 378 -52 q266 -1 377 52 q111 52 108 174 q0 64 -38 106 q-38 42 -118 64 l0 0 ZM544 437 q160 1 226 -18 q66 -19 64 -64 q2 -40 -63 -58 q-65 -18 -227 -18 q-162 0 -227 18 q-65 18 -63 58 q-2 45 64 64 q65 19 226 18 l0 0 ZM544 -37 q-185 0 -265 22 q-79 23 -77 70 q-3 56 75 81 q77 25 267 25 q189 0 267 -25 q78 -25 75 -81 q2 -47 -78 -70 q-79 -22 -264 -22 l0 0 Z" /><glyph glyph-name="" unicode="&#x2089;" d="M528 -171 q278 -4 389 94 q111 97 107 331 q6 182 -95 251 q-102 69 -386 66 q-261 1 -374 -53 q-114 -54 -111 -173 q-6 -117 94 -174 q99 -58 379 -58 q141 0 222 18 q81 18 119 48 q-8 -124 -77 -171 q-69 -47 -261 -45 q-199 -1 -269 31 q-70 31 -61 109 l-144 0 q-10 -137 86 -206 q95 -68 382 -68 l0 0 ZM543 247 q-193 -1 -269 22 q-75 23 -72 76 q-3 48 73 70 q77 22 268 22 q185 0 260 -25 q74 -26 71 -82 q3 -44 -70 -63 q-72 -20 -261 -20 l0 0 Z" /><glyph glyph-name="" unicode="&#x2070;" d="M548 400 q266 -2 379 85 q113 87 110 283 q3 196 -110 284 q-113 87 -379 85 q-267 2 -380 -85 q-113 -87 -110 -284 q-3 -196 110 -283 q113 -87 380 -85 l0 0 ZM548 535 q-216 0 -284 59 q-68 58 -62 174 q-6 117 62 176 q69 59 284 59 q215 0 283 -59 q68 -59 62 -176 q6 -117 -62 -175 q-68 -58 -283 -58 l0 0 Z" /><glyph glyph-name="" unicode="¹" d="M865 401 l0 134 l-300 0 l0 587 l-507 -47 l0 -110 l374 0 l0 -430 l-373 0 l0 -134 l806 0 Z" /><glyph glyph-name="" unicode="²" d="M479 536 q246 58 382 137 q136 79 138 195 q2 143 -110 207 q-113 63 -369 62 q-259 2 -364 -60 q-105 -61 -98 -204 l144 -17 q-9 80 60 114 q70 34 258 33 q185 1 262 -30 q76 -32 74 -105 q-11 -124 -243 -192 q-232 -68 -547 -131 l0 -138 l933 0 l0 134 l-428 -1 q-19 0 -43 -1 q-23 -1 -49 -3 l0 0 Z" /><glyph glyph-name="" unicode="³" d="M528 397 q279 0 393 49 q113 48 109 163 q0 57 -26 97 q-26 39 -79 64 q40 23 59 56 q20 32 20 75 q4 122 -99 173 q-103 52 -357 50 q-261 2 -363 -59 q-102 -61 -94 -206 l144 0 q-9 73 58 102 q66 30 255 29 q179 1 247 -20 q68 -21 65 -69 q1 -46 -31 -67 q-32 -22 -102 -22 l-352 0 l0 -122 l391 0 q65 0 93 -19 q28 -19 27 -62 q3 -41 -77 -59 q-80 -18 -281 -18 q-196 -1 -266 28 q-69 30 -60 103 l-144 0 q-8 -145 97 -206 q106 -62 373 -60 l0 0 Z" /><glyph glyph-name="" unicode="&#x2074;" d="M910 1124 l-158 0 l-694 -443 l0 -116 l709 0 l0 -163 l143 0 l0 163 l203 0 l0 134 l-203 0 l0 425 ZM462 684 q-42 0 -88 -2 q-46 -3 -92 -8 l485 320 l0 -310 l-305 0 Z" /><glyph glyph-name="" unicode="&#x2075;" d="M554 394 q251 -1 362 60 q112 60 110 191 q2 139 -112 203 q-114 63 -373 62 q-97 0 -162 -10 q-65 -10 -106 -29 l29 109 l701 0 l0 134 l-815 0 l-112 -415 l152 0 q3 38 79 57 q75 19 234 19 q196 1 270 -29 q75 -30 71 -101 q3 -63 -69 -90 q-72 -28 -259 -27 q-193 0 -270 20 q-77 20 -82 66 l-144 0 q2 -111 108 -165 q105 -55 388 -55 l0 0 Z" /><glyph glyph-name="" unicode="&#x2076;" d="M540 395 q261 -1 374 53 q113 54 110 173 q6 118 -93 175 q-99 57 -379 57 q-142 0 -223 -18 q-81 -17 -119 -48 q8 125 77 171 q69 47 261 45 q199 1 269 -31 q71 -31 62 -109 l143 0 q10 137 -85 206 q-96 68 -382 68 q-279 4 -390 -94 q-111 -97 -107 -331 q-6 -182 96 -251 q101 -69 386 -66 l0 0 ZM540 529 q-186 0 -260 25 q-75 26 -71 82 q-3 44 69 63 q73 20 262 20 q193 1 268 -22 q76 -23 73 -76 q3 -48 -74 -70 q-76 -22 -267 -22 l0 0 Z" /><glyph glyph-name="" unicode="&#x2077;" d="M350 397 l596 592 l0 122 l-882 0 l0 -133 l529 0 q36 0 73 1 q37 0 76 1 q-17 -13 -46 -47 q-29 -34 -49 -55 l-499 -481 l202 0 Z" /><glyph glyph-name="" unicode="&#x2078;" d="M873 791 q53 21 79 56 q25 35 25 85 q3 111 -95 159 q-98 47 -338 46 q-240 1 -339 -46 q-98 -48 -95 -159 q0 -50 26 -85 q25 -35 79 -56 q-81 -22 -119 -64 q-38 -42 -38 -106 q-3 -121 108 -174 q112 -53 378 -52 q266 -1 377 52 q111 52 108 174 q0 64 -38 106 q-38 42 -118 64 l0 0 ZM544 1003 q160 1 226 -18 q66 -19 64 -64 q2 -40 -63 -58 q-65 -18 -227 -18 q-162 0 -227 18 q-65 18 -63 58 q-2 45 64 64 q65 19 226 18 l0 0 ZM544 529 q-185 0 -265 22 q-79 23 -77 70 q-3 56 75 81 q77 25 267 25 q189 0 267 -25 q78 -25 75 -81 q2 -47 -78 -70 q-79 -22 -264 -22 l0 0 Z" /><glyph glyph-name="" unicode="&#x2079;" d="M528 395 q278 -3 389 94 q111 97 107 331 q6 182 -95 251 q-102 69 -386 66 q-261 1 -374 -53 q-114 -54 -111 -173 q-6 -117 94 -174 q99 -58 379 -58 q141 0 222 18 q81 18 119 48 q-8 -124 -77 -171 q-69 -47 -261 -45 q-199 -1 -269 31 q-70 32 -61 109 l-144 0 q-10 -137 86 -206 q95 -68 382 -68 l0 0 ZM543 813 q-193 -1 -269 22 q-75 23 -72 76 q-3 48 73 70 q77 22 268 22 q185 0 260 -25 q74 -26 71 -82 q3 -44 -70 -63 q-72 -20 -261 -20 l0 0 Z" /><glyph glyph-name="" unicode="&#x2044;" d="M-154 -88 l1028 1291 l-171 0 l-1028 -1291 l171 0 Z" /><glyph glyph-name="" unicode="½" d="M688 -88 l171 0 l1028 1291 l-171 0 l-1028 -1291 ZM59 401 l806 0 l0 134 l-300 0 l0 587 l-507 -47 l0 -110 l374 0 l0 -430 l-373 0 l0 -134 ZM1990 127 q252 58 391 137 q140 78 142 196 q2 143 -110 207 q-113 63 -369 62 q-259 2 -364 -60 q-105 -61 -98 -204 l144 -17 q-9 80 60 114 q70 34 258 33 q185 1 262 -30 q76 -32 74 -105 q-11 -124 -243 -192 q-232 -68 -547 -131 l0 -138 l933 0 l0 134 l-428 -1 q-22 0 -49 -1 q-27 -2 -56 -4 l0 0 Z" /><glyph glyph-name="" unicode="¼" d="M688 -88 l171 0 l1028 1291 l-171 0 l-1028 -1291 ZM59 401 l806 0 l0 134 l-300 0 l0 587 l-507 -47 l0 -110 l374 0 l0 -430 l-373 0 l0 -134 ZM2274 716 l-158 0 l-694 -443 l0 -116 l709 0 l0 -163 l143 0 l0 163 l203 0 l0 134 l-203 0 l0 425 ZM1826 276 q-42 0 -88 -2 q-46 -3 -92 -8 l485 320 l0 -310 l-305 0 Z" /><glyph glyph-name="" unicode="¾" d="M763 -88 l171 0 l1028 1291 l-171 0 l-1028 -1291 ZM1030 609 q0 57 -26 97 q-26 39 -79 64 q40 23 59 56 q20 32 20 75 q4 122 -99 173 q-103 52 -357 50 q-261 2 -363 -59 q-102 -61 -94 -206 l144 0 q-9 73 58 102 q66 30 255 29 q179 1 247 -20 q68 -21 65 -69 q1 -46 -31 -67 q-32 -22 -102 -22 l-352 0 l0 -122 l391 0 q65 0 93 -19 q28 -19 27 -62 q3 -41 -77 -59 q-80 -18 -281 -18 q-196 -1 -266 28 q-69 30 -60 103 l-144 0 q-8 -145 97 -206 q106 -62 373 -60 q279 0 393 49 q113 48 109 163 l0 0 ZM2349 716 l-158 0 l-694 -443 l0 -116 l709 0 l0 -163 l143 0 l0 163 l203 0 l0 134 l-203 0 l0 425 ZM1901 276 q-42 0 -88 -2 q-46 -3 -92 -8 l485 320 l0 -310 l-305 0 Z" /><glyph glyph-name="" unicode="." d="M229 -10 q62 -1 88 27 q26 29 25 98 q1 69 -25 97 q-26 29 -88 28 q-62 1 -87 -28 q-26 -28 -25 -97 q-1 -69 25 -97 q25 -29 87 -28 l0 0 Z" /><glyph glyph-name="" unicode="," d="M367 122 l0 1 q0 67 -28 96 q-28 28 -90 27 q-62 1 -89 -28 q-28 -28 -27 -97 q0 -62 21 -90 q21 -29 68 -34 l-105 -197 l96 0 q37 36 86 109 q49 73 65 172 q3 18 3 40 l0 1 Z" /><glyph glyph-name="" unicode=":" d="M229 636 q62 -1 88 27 q26 28 25 97 q1 70 -25 98 q-26 29 -88 28 q-61 1 -87 -28 q-26 -28 -25 -98 q-1 -69 25 -97 q25 -28 87 -27 l0 0 ZM229 -10 q62 -1 88 27 q26 29 25 98 q1 69 -25 97 q-26 29 -88 28 q-62 1 -87 -28 q-26 -28 -25 -97 q-1 -69 25 -97 q25 -29 87 -28 l0 0 Z" /><glyph glyph-name="" unicode=";" d="M246 636 q62 -1 88 27 q26 28 25 97 q1 70 -25 98 q-26 29 -88 28 q-61 1 -87 -28 q-26 -28 -25 -98 q-1 -68 25 -96 q25 -29 87 -28 l0 0 ZM367 122 l0 1 q0 67 -28 96 q-28 28 -90 27 q-62 1 -89 -28 q-28 -28 -27 -97 q0 -62 21 -90 q21 -29 68 -34 l-105 -197 l96 0 q37 36 86 109 q49 73 65 172 q3 18 3 40 l0 1 Z" /><glyph glyph-name="" unicode="&#x2026;" d="M229 -10 q62 -1 88 27 q26 29 25 98 q1 69 -25 97 q-26 29 -88 28 q-62 1 -87 -28 q-26 -28 -25 -97 q-1 -69 25 -97 q25 -29 87 -28 l0 0 ZM688 -10 q62 -1 88 27 q26 29 25 98 q1 69 -25 97 q-26 29 -88 28 q-62 1 -87 -28 q-26 -28 -25 -97 q-1 -69 25 -97 q25 -29 87 -28 l0 0 ZM1147 -10 q62 -1 88 27 q26 29 25 98 q1 69 -25 97 q-26 29 -88 28 q-62 1 -87 -28 q-26 -28 -25 -97 q-1 -69 25 -97 q25 -29 87 -28 l0 0 Z" /><glyph glyph-name="" unicode="!" d="M281 342 l45 756 l-209 0 l46 -756 l118 0 ZM220 -10 q62 -1 88 27 q26 29 25 98 q1 69 -25 97 q-26 29 -88 28 q-62 1 -87 -28 q-26 -28 -25 -97 q-1 -69 25 -97 q25 -29 87 -28 l0 0 Z" /><glyph glyph-name="" unicode="¡" d="M220 1107 q-62 1 -87 -28 q-26 -28 -25 -97 q-1 -69 25 -97 q25 -29 87 -28 q62 -1 88 28 q26 28 25 97 q1 70 -25 98 q-26 28 -88 27 l0 0 ZM117 -1 l209 0 l-45 756 l-118 0 l-46 -756 Z" /><glyph glyph-name="" unicode="?" d="M847 1110 q-444 0 -611 -108 q-167 -107 -158 -315 l184 0 q-9 124 112 188 q121 65 473 65 q350 0 471 -57 q120 -56 112 -162 q8 -107 -86 -162 q-93 -55 -384 -55 l-553 0 l0 -170 l553 0 q386 -1 524 89 q138 90 130 298 q9 204 -155 297 q-164 93 -612 92 l0 0 ZM517 240 q-62 1 -87 -28 q-26 -28 -25 -97 q-1 -69 25 -97 q25 -29 87 -28 q62 -1 88 27 q26 29 25 98 q1 69 -25 97 q-26 29 -88 28 l0 0 Z" /><glyph glyph-name="" unicode="¿" d="M1175 857 q62 -1 88 28 q25 28 24 97 q1 69 -24 97 q-26 29 -88 28 q-62 1 -88 -27 q-26 -28 -25 -98 q-1 -69 25 -97 q26 -29 88 -28 l0 0 ZM1430 410 q9 -124 -112 -188 q-121 -64 -473 -64 q-350 0 -471 56 q-120 56 -112 162 q-8 107 86 162 q93 55 384 55 l553 0 l0 170 l-553 0 q-386 1 -524 -89 q-138 -90 -130 -298 q-9 -204 155 -297 q164 -93 612 -92 q445 1 611 108 q167 107 158 315 l-184 0 Z" /><glyph glyph-name="" unicode="·" d="M298 340 q62 -1 88 28 q26 28 25 97 q1 69 -25 97 q-26 29 -88 28 q-62 1 -87 -28 q-26 -28 -25 -97 q-1 -69 25 -97 q25 -29 87 -28 l0 0 Z" /><glyph glyph-name="" unicode="&#x2022;" d="M470 363 q127 -2 181 51 q53 53 51 180 q2 127 -51 179 q-53 53 -179 51 q-127 2 -180 -51 q-54 -52 -52 -179 q-2 -127 51 -180 q53 -53 179 -51 l0 0 Z" /><glyph glyph-name="" unicode="*" d="M341 735 l109 -158 l101 74 l-117 151 l175 56 l-37 113 l-180 -65 l6 191 l-119 0 l4 -193 l-179 67 l-39 -113 l186 -60 l-120 -147 l95 -74 l115 158 Z" /><glyph glyph-name="" unicode="#" d="M1766 853 l-356 0 l112 244 l-188 0 l-112 -244 l-396 0 l112 244 l-187 0 l-112 -244 l-414 0 l-86 -171 l421 0 l-111 -240 l-363 0 l-86 -171 l371 0 l-125 -271 l188 0 l125 271 l396 0 l-125 -271 l187 0 l125 271 l396 0 l93 171 l-411 0 l111 240 l349 0 l86 171 ZM637 442 l110 240 l396 0 l-110 -240 l-396 0 Z" /><glyph glyph-name="" unicode="/" d="M248 -88 l1020 1271 l-208 0 l-1020 -1271 l208 0 Z" /><glyph glyph-name="" unicode="\" d="M226 1183 l-208 0 l1021 -1271 l207 0 l-1020 1271 Z" /><glyph glyph-name="" unicode="(" d="M450 -195 q-94 139 -144 332 q-50 193 -50 350 q1 161 51 346 q50 184 143 321 l-166 0 q-88 -134 -146 -305 q-58 -171 -60 -362 q2 -193 60 -369 q58 -177 146 -313 l166 0 Z" /><glyph glyph-name="" unicode=")" d="M205 -195 q88 136 146 313 q58 176 60 369 q-2 191 -60 362 q-58 171 -146 305 l-166 0 q94 -137 144 -321 q50 -185 50 -346 q0 -157 -50 -350 q-50 -193 -144 -332 l166 0 Z" /><glyph glyph-name="" unicode="{" d="M533 -198 l99 0 l0 154 q-6 0 -18 -1 q-12 -1 -17 -1 q-95 -3 -132 39 q-38 41 -36 159 l0 55 q1 129 -34 189 q-35 59 -120 80 q85 22 120 81 q35 59 34 187 l0 56 q-2 118 36 159 q38 42 138 39 l29 0 l0 154 l-99 0 q-109 4 -184 -58 q-75 -61 -78 -231 l0 -80 q1 -119 -45 -169 q-46 -50 -152 -49 q-2 0 -6 0 q-5 0 -10 1 q-12 0 -19 0 l0 -178 q7 0 19 1 q11 0 16 0 q106 1 152 -49 q46 -50 45 -169 l0 -81 q3 -171 77 -231 q75 -61 185 -57 l0 0 Z" /><glyph glyph-name="" unicode="}" d="M34 -198 l99 0 q109 -4 184 57 q75 60 78 231 l0 81 q-1 119 45 169 q46 50 152 49 q5 0 17 0 q11 -1 18 -1 l0 178 q-7 0 -18 0 q-12 -1 -17 -1 q-107 -1 -152 49 q-46 51 -45 169 l0 80 q-3 170 -78 231 q-75 62 -184 58 l-99 0 l0 -154 l29 0 q100 3 138 -39 q38 -41 36 -159 l0 -56 q-1 -128 34 -187 q35 -59 119 -81 q-86 -22 -120 -82 q-34 -60 -33 -187 l0 -55 q2 -118 -36 -159 q-37 -42 -132 -39 q-5 0 -17 1 q-12 1 -18 1 l0 -154 Z" /><glyph glyph-name="" unicode="[" d="M548 -195 l0 162 l-255 0 l0 1023 l255 0 l0 162 l-431 0 l0 -1347 l431 0 Z" /><glyph glyph-name="" unicode="]" d="M470 -195 l0 1347 l-431 0 l0 -162 l255 0 l0 -1023 l-255 0 l0 -162 l431 0 Z" /><glyph glyph-name="" unicode="-" d="M954 380 l0 170 l-837 0 l0 -170 l837 0 Z" /><glyph glyph-name="" unicode="­" d="M954 380 l0 170 l-837 0 l0 -170 l837 0 Z" /><glyph glyph-name="" unicode="&#x2013;" d="M1142 380 l0 170 l-1025 0 l0 -170 l1025 0 Z" /><glyph glyph-name="" unicode="&#x2014;" d="M2034 383 l0 164 l-1917 0 l0 -164 l1917 0 Z" /><glyph glyph-name="" unicode="_" d="M1199 -162 l0 155 l-1199 0 l0 -155 l1199 0 Z" /><glyph glyph-name="" unicode="&#x201a;" d="M324 122 l0 1 q0 67 -29 96 q-28 28 -90 27 q-62 1 -90 -28 q-28 -28 -27 -97 q0 -62 21 -90 q22 -29 69 -34 l-105 -197 l96 0 q38 36 87 110 q50 73 66 173 q2 17 2 38 l0 1 Z" /><glyph glyph-name="" unicode="&#x201e;" d="M324 123 q0 67 -29 96 q-28 28 -90 27 q-62 1 -90 -28 q-28 -28 -27 -97 q0 -62 21 -90 q22 -29 69 -34 l-105 -197 l96 0 q38 36 87 110 q50 73 66 173 q2 17 2 38 q0 1 0 1 l0 1 ZM670 122 l0 1 q0 67 -29 96 q-28 28 -90 27 q-62 1 -90 -28 q-28 -28 -27 -97 q0 -62 21 -90 q22 -29 69 -34 l-105 -197 l96 0 q38 36 87 110 q50 73 66 173 q2 17 2 38 l0 1 Z" /><glyph glyph-name="" unicode="&#x201c;" d="M228 1097 q-38 -36 -87 -110 q-50 -73 -66 -173 q-2 -17 -2 -38 q0 0 0 -1 l0 -1 q0 -67 29 -96 q28 -28 90 -27 q62 -1 90 28 q28 28 27 97 q0 62 -21 91 q-22 28 -69 33 l105 197 l-96 0 ZM670 1097 l-96 0 q-38 -36 -87 -110 q-50 -73 -66 -173 q-2 -17 -2 -38 q0 0 0 -1 l0 -1 q0 -67 29 -96 q28 -28 90 -27 q62 -1 90 28 q28 28 27 97 q0 62 -21 91 q-22 28 -69 33 l105 197 Z" /><glyph glyph-name="" unicode="&#x201d;" d="M329 982 q0 67 -29 96 q-28 28 -90 27 q-62 1 -90 -28 q-28 -28 -27 -97 q0 -62 21 -90 q22 -29 69 -34 l-105 -197 l96 0 q38 36 87 110 q50 73 66 173 q2 17 2 38 q0 1 0 1 l0 1 ZM670 973 l0 1 q0 67 -29 96 q-28 28 -90 27 q-62 1 -90 -28 q-28 -28 -27 -97 q0 -62 21 -90 q22 -29 69 -34 l-105 -197 l96 0 q38 36 87 110 q50 73 66 173 q2 17 2 38 l0 1 Z" /><glyph glyph-name="" unicode="&#x2018;" d="M324 1097 l-96 0 q-38 -36 -87 -110 q-50 -73 -66 -173 q-2 -17 -2 -38 q0 0 0 -1 l0 -1 q0 -67 29 -96 q28 -28 90 -27 q62 -1 90 28 q28 28 27 97 q0 62 -21 91 q-22 28 -69 33 l105 197 Z" /><glyph glyph-name="" unicode="&#x2019;" d="M329 981 l0 1 q0 67 -29 96 q-28 28 -90 27 q-62 1 -90 -28 q-28 -28 -27 -97 q0 -62 21 -90 q22 -29 69 -34 l-105 -197 l96 0 q38 36 87 110 q50 73 66 173 q2 17 2 38 l0 1 Z" /><glyph glyph-name="" unicode="«" d="M573 47 l-338 394 l338 380 l-192 0 l-342 -380 l342 -394 l192 0 ZM993 47 l-338 394 l338 380 l-192 0 l-342 -380 l342 -394 l192 0 Z" /><glyph glyph-name="" unicode="»" d="M231 47 l342 394 l-342 380 l-192 0 l338 -380 l-338 -394 l192 0 ZM651 47 l342 394 l-342 380 l-192 0 l338 -380 l-338 -394 l192 0 Z" /><glyph glyph-name="" unicode="&#x2039;" d="M573 47 l-338 394 l338 380 l-192 0 l-342 -380 l342 -394 l192 0 Z" /><glyph glyph-name="" unicode="&#x203a;" d="M231 47 l342 394 l-342 380 l-192 0 l338 -380 l-338 -394 l192 0 Z" /><glyph glyph-name="" unicode="&quot;" d="M329 982 q0 67 -29 96 q-28 28 -90 27 q-62 1 -90 -28 q-28 -28 -27 -97 q0 -62 21 -90 q22 -29 69 -34 l-105 -197 l96 0 q38 36 87 110 q50 73 66 173 q2 17 2 38 q0 1 0 1 l0 1 ZM670 973 l0 1 q0 67 -29 96 q-28 28 -90 27 q-62 1 -90 -28 q-28 -28 -27 -97 q0 -62 21 -90 q22 -29 69 -34 l-105 -197 l96 0 q38 36 87 110 q50 73 66 173 q2 17 2 38 l0 1 Z" /><glyph glyph-name="" unicode="&#39;" d="M329 981 l0 1 q0 67 -29 96 q-28 28 -90 27 q-62 1 -90 -28 q-28 -28 -27 -97 q0 -62 21 -90 q22 -29 69 -34 l-105 -197 l96 0 q38 36 87 110 q50 73 66 173 q2 17 2 38 l0 1 Z" /><glyph glyph-name="" unicode=" " d="" /><glyph glyph-name="" unicode="&#x20bf;" d="M1394 559 q68 42 99 104 q30 62 29 142 q-2 161 -112 228 q-111 66 -307 64 l-87 0 l0 163 l-162 0 l0 -163 l-148 0 l0 163 l-162 0 l0 -163 l-427 0 l0 -1097 l427 0 l0 -177 l162 0 l0 177 l148 0 l0 -177 l162 0 l0 177 l128 0 q196 -2 307 64 q111 66 113 229 q1 91 -39 159 q-40 68 -131 107 l0 0 ZM1143 927 q96 2 145 -30 q50 -32 50 -116 q0 -88 -50 -120 q-49 -33 -145 -31 l-842 0 l0 297 l842 0 ZM301 170 l0 297 l883 0 q96 2 146 -31 q50 -33 50 -119 q-1 -87 -52 -118 q-51 -31 -144 -29 l-883 0 Z" /><glyph glyph-name="" unicode="¢" d="M892 814 q243 -6 328 -49 q84 -44 78 -128 l176 0 q6 170 -121 251 q-127 81 -461 88 l0 124 l-162 0 l0 -124 q-373 -7 -516 -109 q-143 -102 -136 -319 q-7 -210 136 -310 q143 -101 516 -107 l0 -127 l162 0 l0 127 q334 8 461 95 q127 86 121 256 l-176 0 q6 -84 -78 -133 q-85 -48 -328 -56 l0 521 ZM254 548 q-6 130 94 195 q100 65 382 71 l0 -521 q-282 7 -382 70 q-100 63 -94 185 l0 0 Z" /><glyph glyph-name="" unicode="¤" d="M353 264 q74 -14 174 -14 q49 0 93 4 q43 3 80 10 l149 -149 l124 124 l-103 103 q38 37 56 92 q18 54 18 126 q0 74 -18 128 q-19 55 -58 92 l105 105 l-124 125 l-154 -154 q-36 7 -78 10 q-43 3 -90 3 q-49 0 -91 -3 q-42 -3 -79 -10 l-154 154 l-125 -125 l106 -106 q-39 -37 -57 -91 q-19 -55 -19 -128 q0 -72 18 -126 q18 -55 55 -92 l-103 -103 l125 -124 l150 149 ZM527 385 q-138 -1 -199 41 q-62 41 -61 134 q-1 93 61 134 q61 41 199 40 q137 1 198 -40 q61 -41 60 -134 q1 -93 -60 -134 q-61 -42 -198 -41 l0 0 Z" /><glyph glyph-name="" unicode="$" d="M1557 302 q4 143 -69 229 q-73 85 -277 99 l-300 13 l0 308 q189 -3 309 -48 q119 -45 123 -165 l184 0 q-2 197 -163 286 q-161 89 -453 96 l0 100 l-162 0 l0 -99 q-299 0 -471 -69 q-172 -69 -175 -255 q-3 -147 76 -226 q78 -80 270 -92 l300 -13 l0 -315 q-206 1 -344 45 q-138 43 -143 167 l-184 0 q2 -204 177 -291 q175 -88 494 -91 l0 -92 l162 0 l0 92 q304 0 474 66 q169 66 172 255 l0 0 ZM449 663 q-78 3 -120 33 q-42 30 -42 99 q-5 73 95 113 q99 39 367 43 l0 -301 l-300 13 ZM911 459 l300 -13 q73 -2 118 -30 q44 -28 45 -99 q0 -93 -117 -128 q-117 -35 -346 -37 l0 307 Z" /><glyph glyph-name="" unicode="&#x20ac;" d="M1089 149 q-229 -1 -367 43 q-139 44 -199 139 l836 0 l0 171 l-888 0 q-2 24 -2 49 q0 18 1 34 l889 0 l0 162 l-850 0 q55 110 197 159 q142 48 383 47 q208 2 343 -47 q134 -49 139 -168 l183 0 q0 187 -165 286 q-165 98 -500 99 q-352 -1 -539 -96 q-187 -96 -239 -280 l-233 0 l0 -162 l208 0 q-1 -8 -1 -17 q0 -9 0 -17 q0 -25 1 -49 l-206 0 l0 -171 l238 0 q59 -172 245 -262 q186 -89 526 -90 q334 1 500 100 q165 99 165 286 l-183 0 q-5 -118 -139 -168 q-134 -49 -343 -48 l0 0 Z" /><glyph glyph-name="" unicode="&#x192;" d="M1395 1105 q-181 6 -298 -80 q-118 -87 -270 -341 l-512 0 l0 -162 l413 0 q-134 -218 -216 -292 q-82 -73 -178 -68 q-51 -1 -88 15 q-38 16 -40 60 l-190 0 q0 -109 66 -172 q65 -64 209 -65 q198 -9 326 96 q127 105 314 426 l514 0 l0 162 l-415 0 q96 153 165 208 q69 54 160 51 q50 1 86 -15 q37 -16 39 -60 l190 0 q-3 108 -78 172 q-75 64 -197 65 l0 0 Z" /><glyph glyph-name="" unicode="&#x20b4;" d="M1567 757 q2 19 2 40 q-5 192 -195 261 q-191 68 -510 64 q-324 2 -507 -64 q-184 -66 -187 -220 l184 0 q6 71 151 94 q145 22 359 20 q295 0 411 -40 q115 -40 110 -117 q0 -21 -4 -38 l-1303 0 l0 -162 l1562 0 l0 162 l-73 0 ZM141 341 q0 -19 -1 -39 q4 -200 199 -264 q194 -64 532 -58 q338 -2 529 64 q191 65 194 219 l-184 0 q-7 -70 -164 -92 q-158 -22 -375 -20 q-268 -3 -407 31 q-140 33 -141 135 q0 6 0 12 q1 7 2 12 l1315 0 l0 171 l-1560 0 l0 -171 l61 0 Z" /><glyph glyph-name="" unicode="&#x20bd;" d="M340 0 l0 197 l854 0 l0 170 l-854 0 l0 80 l735 0 q246 -1 356 76 q109 76 107 249 q2 172 -107 249 q-108 77 -353 76 l-922 0 l0 -480 l-150 0 l0 -170 l150 0 l0 -80 l-150 0 l0 -170 l150 0 l0 -197 l184 0 ZM340 927 l777 0 q130 1 184 -34 q54 -35 52 -121 q2 -85 -52 -121 q-54 -35 -184 -34 l-777 0 l0 310 Z" /><glyph glyph-name="" unicode="£" d="M452 243 q7 23 13 48 q5 25 10 50 q8 44 9 67 q2 24 0 66 l681 0 l0 162 l-692 0 q-3 39 -5 83 q-2 43 -2 71 q-10 78 77 124 q88 46 396 47 l0 70 q0 -47 0 -59 q0 -11 1 -11 q258 2 366 -49 q107 -51 104 -184 l185 0 q9 176 -129 284 q-137 108 -526 111 q-338 5 -499 -61 q-162 -65 -161 -260 q0 -25 3 -75 q2 -50 5 -91 l-177 0 l0 -162 l190 0 q2 -26 3 -40 q1 -15 1 -23 q2 -137 -48 -200 q-50 -63 -179 -75 l0 -156 l19 0 q74 -3 146 16 q72 20 138 103 q141 -46 328 -82 q187 -36 442 -38 l-12 170 q-226 1 -381 29 q-156 28 -306 65 l0 0 ZM1471 315 q7 -89 -56 -128 q-63 -39 -275 -38 l11 -170 q306 -1 411 81 q104 81 97 255 l-188 0 Z" /><glyph glyph-name="" unicode="&#x20b8;" d="M1463 935 l0 162 l-1444 0 l0 -162 l1444 0 ZM831 0 l0 682 l632 0 l0 170 l-1444 0 l0 -170 l629 0 l0 -682 l183 0 Z" /><glyph glyph-name="" unicode="¥" d="M1432 1097 l-569 -463 l-571 463 l-272 0 l747 -608 l-525 0 l0 -170 l529 0 l0 -319 l184 0 l0 319 l521 0 l0 170 l-517 0 l745 608 l-272 0 Z" /><glyph glyph-name="" unicode="+" d="M739 0 l0 355 l529 0 l0 171 l-529 0 l0 342 l-176 0 l0 -342 l-524 0 l0 -171 l524 0 l0 -355 l176 0 Z" /><glyph glyph-name="" unicode="&#x2212;" d="M1109 389 l0 170 l-1031 0 l0 -170 l1031 0 Z" /><glyph glyph-name="" unicode="×" d="M631 325 l430 -333 l125 130 l-410 323 l410 323 l-125 131 l-430 -333 l-432 333 l-121 -131 l409 -323 l-409 -323 l121 -130 l432 333 Z" /><glyph glyph-name="" unicode="÷" d="M593 626 q62 -1 88 28 q26 28 25 97 q1 69 -25 97 q-26 29 -88 28 q-62 1 -87 -28 q-26 -28 -25 -97 q-1 -69 25 -97 q25 -29 87 -28 l0 0 ZM1109 389 l0 169 l-1031 0 l0 -169 l1031 0 ZM593 6 q62 -1 88 28 q26 28 25 97 q1 69 -25 97 q-26 29 -88 28 q-62 1 -87 -28 q-26 -28 -25 -97 q-1 -69 25 -97 q25 -29 87 -28 l0 0 Z" /><glyph glyph-name="" unicode="=" d="M1109 531 l0 170 l-1031 0 l0 -170 l1031 0 ZM1109 205 l0 170 l-1031 0 l0 -170 l1031 0 Z" /><glyph glyph-name="" unicode="&#x2260;" d="M1109 701 l-289 0 l85 167 l-182 0 l-85 -167 l-560 0 l0 -170 l474 0 l-78 -155 l-396 0 l0 -170 l309 0 l-104 -206 l182 0 l104 206 l540 0 l0 170 l-453 0 l78 155 l375 0 l0 170 Z" /><glyph glyph-name="" unicode="&gt;" d="M78 699 l901 -223 l-901 -221 l0 -186 l1228 344 l0 126 l-1228 346 l0 -186 Z" /><glyph glyph-name="" unicode="&lt;" d="M78 539 l0 -126 l1228 -344 l0 186 l-900 221 l900 223 l0 186 l-1228 -346 Z" /><glyph glyph-name="" unicode="&#x2265;" d="M78 699 l935 -114 l-935 -119 l0 -187 l1228 219 l0 174 l-1228 213 l0 -186 ZM1306 0 l0 171 l-1228 0 l0 -171 l1228 0 Z" /><glyph glyph-name="" unicode="&#x2264;" d="M78 672 l0 -174 l1228 -219 l0 187 l-934 119 l934 114 l0 186 l-1228 -213 ZM1306 0 l0 171 l-1228 0 l0 -171 l1228 0 Z" /><glyph glyph-name="" unicode="±" d="M778 312 l0 199 l529 0 l0 171 l-529 0 l0 186 l-176 0 l0 -186 l-524 0 l0 -171 l524 0 l0 -199 l176 0 ZM1307 0 l0 171 l-1229 0 l0 -171 l1229 0 Z" /><glyph glyph-name="" unicode="&#x2248;" d="M832 539 q148 0 244 62 q96 61 142 181 l-224 0 q-23 -37 -60 -55 q-37 -18 -80 -18 q-47 0 -90 10 q-42 10 -84 24 q-44 15 -104 27 q-59 12 -122 13 q-153 -1 -246 -63 q-92 -62 -130 -180 l224 0 q24 39 54 57 q31 18 87 18 q41 0 82 -10 q41 -10 84 -24 q44 -15 102 -28 q57 -13 121 -14 l0 0 ZM832 159 q148 0 244 62 q96 61 142 181 l-224 0 q-23 -37 -60 -55 q-37 -18 -80 -18 q-47 0 -90 10 q-42 10 -84 24 q-44 15 -104 27 q-59 12 -122 13 q-153 -1 -246 -63 q-92 -62 -130 -180 l224 0 q24 39 54 57 q31 18 87 18 q41 0 82 -10 q41 -10 84 -24 q44 -15 102 -28 q57 -13 121 -14 l0 0 Z" /><glyph glyph-name="" unicode="~" d="M832 330 q148 0 244 62 q96 61 142 181 l-224 0 q-23 -37 -60 -55 q-37 -18 -80 -18 q-47 0 -90 10 q-42 10 -84 24 q-44 15 -104 27 q-59 12 -122 13 q-153 -1 -246 -63 q-92 -62 -130 -180 l224 0 q24 39 54 57 q31 18 87 18 q41 0 82 -10 q41 -10 84 -24 q44 -15 102 -28 q57 -13 121 -14 l0 0 Z" /><glyph glyph-name="" unicode="¬" d="M1156 562 l-1078 0 l0 -170 l894 0 l0 -392 l184 0 l0 562 Z" /><glyph glyph-name="" unicode="^" d="M603 1482 l-203 0 l-336 -251 l186 0 l251 148 l250 -148 l186 0 l-334 251 Z" /><glyph glyph-name="" unicode="&#x221e;" d="M555 68 q126 1 273 60 q147 59 286 163 q140 -104 286 -163 q147 -59 274 -60 q220 -2 347 89 q127 91 130 298 q-3 208 -130 299 q-127 91 -347 89 q-127 -1 -273 -58 q-147 -58 -286 -163 q-140 105 -286 163 q-147 57 -274 58 q-221 2 -348 -89 q-126 -91 -129 -299 q3 -208 130 -298 q127 -91 347 -89 l0 0 ZM555 220 q-117 -2 -205 52 q-88 54 -93 183 q5 130 93 184 q88 54 205 52 q139 -1 261 -63 q123 -62 202 -173 q-80 -112 -202 -173 q-123 -61 -261 -62 l0 0 ZM1674 220 q-139 1 -261 62 q-123 61 -202 173 q79 111 202 173 q122 62 261 63 q122 2 208 -52 q86 -54 90 -184 q-4 -129 -90 -183 q-86 -54 -208 -52 l0 0 Z" /><glyph glyph-name="" unicode="&#x2205;" d="M1598 556 q8 281 -157 424 q-166 143 -603 143 q-97 0 -179 -7 q-82 -6 -151 -20 l-70 87 l-207 0 l111 -138 q-146 -67 -206 -189 q-60 -123 -58 -300 q-8 -281 157 -424 q165 -143 603 -143 q193 0 329 27 l84 -104 l208 0 l-125 155 q146 67 206 189 q60 123 58 300 l0 0 ZM632 942 q44 5 96 8 q51 3 110 3 q356 -1 471 -102 q114 -102 104 -295 q3 -125 -38 -211 q-40 -87 -156 -134 l-587 731 ZM838 160 q-357 1 -471 102 q-115 101 -105 294 q-3 124 38 211 q40 87 157 134 l586 -730 q-88 -11 -205 -11 l0 0 Z" /><glyph glyph-name="" unicode="&#x222b;" d="M-1 0 q211 -9 329 105 q118 113 318 464 q130 225 204 302 q74 77 204 72 l0 162 q-194 8 -309 -100 q-114 -108 -298 -432 q-147 -250 -229 -334 q-81 -83 -219 -77 l0 -162 Z" /><glyph glyph-name="" unicode="&#x220f;" d="M431 -2 l0 929 l809 0 l0 -929 l183 0 l0 929 l180 0 l0 170 l-1535 0 l0 -170 l179 0 l0 -929 l184 0 Z" /><glyph glyph-name="" unicode="&#x2211;" d="M744 170 q-82 0 -176 -4 q-94 -3 -176 -8 l820 389 l0 92 l-756 298 q72 -4 145 -7 q73 -3 138 -3 l707 0 l0 170 l-1368 0 l0 -177 l810 -331 l-810 -411 l0 -178 l1398 0 l0 170 l-732 0 Z" /><glyph glyph-name="" unicode="&#x221a;" d="M956 0 l833 1097 l-218 0 l-735 -935 l-444 706 l-392 0 l0 -170 l284 0 l434 -698 l238 0 Z" /><glyph glyph-name="" unicode="µ" d="M1423 868 l-176 0 l2 -438 q-3 -139 -114 -207 q-111 -69 -378 -69 q-280 0 -386 76 q-106 75 -101 228 l0 410 l-176 0 l0 -868 l153 0 l19 173 q51 -94 168 -138 q116 -43 323 -43 q211 -1 331 46 q120 46 171 147 q22 -110 109 -149 q87 -38 242 -36 l0 162 q-131 -5 -159 49 q-29 53 -28 224 l0 433 Z" /><glyph glyph-name="" unicode="&#x2202;" d="M232 943 q457 3 729 -77 q272 -81 299 -287 q-46 36 -153 63 q-107 26 -319 27 q-413 -3 -554 -100 q-142 -98 -144 -248 q-21 -154 115 -242 q136 -88 523 -90 q394 -1 546 117 q152 118 164 360 q23 333 -266 484 q-289 150 -808 147 l-132 -154 ZM1251 343 q-10 -111 -136 -149 q-127 -38 -372 -35 q-264 -1 -379 35 q-116 35 -107 119 q4 95 119 141 q115 45 398 45 q291 1 391 -36 q100 -37 86 -120 l0 0 Z" /><glyph glyph-name="" unicode="%" d="M1051 805 q8 149 -89 233 q-97 84 -397 85 q-301 -1 -398 -85 q-97 -84 -89 -233 q-8 -150 89 -234 q97 -84 398 -85 q300 1 397 85 q97 84 89 234 l0 0 ZM409 -6 l233 0 l1280 1103 l-233 0 l-1280 -1103 ZM244 805 q-8 79 47 126 q54 46 274 47 q217 -1 272 -47 q55 -46 47 -126 q8 -79 -47 -125 q-55 -47 -272 -48 q-220 1 -274 48 q-55 47 -47 125 l0 0 ZM1786 617 q-301 -1 -398 -85 q-97 -84 -89 -233 q-8 -150 89 -234 q97 -84 398 -85 q300 1 397 85 q97 84 89 234 q8 149 -89 233 q-97 84 -397 85 l0 0 ZM1786 126 q-220 1 -274 48 q-55 47 -47 125 q-8 79 47 126 q54 46 274 47 q217 -1 272 -47 q55 -46 47 -126 q8 -79 -47 -125 q-55 -47 -272 -48 l0 0 Z" /><glyph glyph-name="" unicode="&#x2030;" d="M1051 805 q8 149 -89 233 q-97 84 -397 85 q-301 -1 -398 -85 q-97 -84 -89 -233 q-8 -150 89 -234 q97 -84 398 -85 q300 1 397 85 q97 84 89 234 l0 0 ZM409 -6 l223 0 l1290 1103 l-223 0 l-1290 -1103 ZM234 805 q-9 80 48 127 q57 48 283 49 q225 -1 281 -48 q57 -47 48 -128 q9 -80 -48 -127 q-56 -47 -281 -48 q-226 1 -283 48 q-57 47 -48 127 l0 0 ZM1786 617 q-301 -1 -398 -85 q-97 -84 -89 -233 q-8 -150 89 -234 q97 -84 398 -85 q300 1 397 85 q97 84 89 234 q8 149 -89 233 q-97 84 -397 85 l0 0 ZM2851 617 q-301 -1 -398 -85 q-97 -84 -89 -233 q-8 -150 89 -234 q97 -84 398 -85 q300 1 397 85 q97 84 89 234 q8 149 -89 233 q-97 84 -397 85 l0 0 ZM1786 124 q-226 1 -283 48 q-57 47 -48 127 q-9 80 48 127 q57 48 283 49 q225 -1 281 -48 q57 -47 48 -128 q9 -80 -48 -127 q-56 -47 -281 -48 l0 0 ZM2851 124 q-226 1 -283 48 q-57 47 -48 127 q-9 80 48 127 q57 48 283 49 q225 -1 281 -48 q57 -47 48 -128 q9 -80 -48 -127 q-56 -47 -281 -48 l0 0 Z" /><glyph glyph-name="" unicode="&#x2191;" d="M736 1072 l-619 -342 l0 -189 l527 291 l0 -817 l170 0 l0 824 l527 -298 l0 189 l-605 342 Z" /><glyph glyph-name="" unicode="&#x2197;" d="M397 881 l472 0 l-752 -678 l120 -120 l755 681 l0 -461 l165 0 l0 736 l-760 0 l0 -158 Z" /><glyph glyph-name="" unicode="&#x2192;" d="M988 976 l290 -324 l-1161 0 l0 -170 l1157 0 l-286 -330 l199 0 l367 419 l-367 405 l-199 0 Z" /><glyph glyph-name="" unicode="&#x2198;" d="M949 349 l-712 690 l-120 -120 l713 -691 l-493 0 l0 -145 l760 0 l0 735 l-148 0 l0 -469 Z" /><glyph glyph-name="" unicode="&#x2193;" d="M814 1072 l-170 0 l0 -816 l-527 291 l0 -190 l619 -342 l605 342 l0 190 l-527 -298 l0 823 Z" /><glyph glyph-name="" unicode="&#x2199;" d="M977 1039 l-712 -690 l0 469 l-148 0 l0 -735 l760 0 l0 145 l-493 0 l713 691 l-120 120 Z" /><glyph glyph-name="" unicode="&#x2190;" d="M373 652 l290 324 l-199 0 l-367 -405 l367 -419 l199 0 l-286 330 l1157 0 l0 170 l-1161 0 Z" /><glyph glyph-name="" unicode="&#x2196;" d="M384 894 l493 0 l0 145 l-760 0 l0 -736 l148 0 l0 470 l712 -690 l120 120 l-713 691 Z" /><glyph glyph-name="" unicode="&#x25ca;" d="M612 1097 l-534 -538 l534 -559 l253 0 l533 559 l-533 538 l-253 0 ZM301 559 l437 446 l437 -446 l-437 -458 l-437 458 Z" /><glyph glyph-name="" unicode="@" d="M130 971 l0 -162 l658 0 q286 6 415 -95 q128 -100 126 -377 q1 -122 -11 -162 q-13 -39 -53 -36 q-41 -3 -61 40 q-20 43 -20 173 q3 159 -81 244 q-83 84 -282 85 l-681 0 l0 -162 l631 0 q158 1 200 -41 q42 -41 37 -137 q-43 42 -141 62 q-99 19 -269 19 q-278 1 -382 -48 q-104 -49 -99 -158 q-5 -119 99 -172 q105 -53 385 -52 q181 0 291 23 q111 23 161 71 q29 -42 81 -65 q52 -23 130 -23 q128 -4 184 68 q55 72 57 271 q10 322 -142 479 q-151 156 -575 155 l-658 0 ZM631 140 q-203 -2 -273 11 q-70 13 -65 64 q-5 42 65 51 q71 10 275 8 q227 2 304 -9 q76 -11 70 -58 q6 -46 -71 -57 q-76 -12 -305 -10 l0 0 Z" /><glyph glyph-name="" unicode="&amp;" d="M1666 166 q-76 30 -148 60 q29 57 42 130 q12 74 12 166 l-184 0 q0 -72 -9 -127 q-9 -56 -29 -96 q-110 48 -218 97 q-108 48 -221 96 q-221 77 -313 136 q-93 58 -90 153 q-4 100 85 141 q89 40 320 39 q242 2 335 -50 q92 -52 88 -181 l184 0 q6 213 -128 298 q-135 85 -479 82 q-334 0 -464 -83 q-131 -84 -125 -246 q0 -37 6 -68 q6 -31 18 -58 q-146 -45 -209 -127 q-63 -82 -61 -186 q-6 -200 162 -277 q168 -77 589 -73 q208 0 349 24 q141 25 226 81 q126 -52 262 -108 l0 177 ZM829 142 q-318 -2 -445 41 q-127 43 -122 159 q-2 60 41 111 q42 51 154 80 q57 -41 144 -83 q86 -42 204 -93 q105 -45 205 -89 q99 -43 198 -86 q-64 -23 -158 -32 q-93 -8 -221 -8 l0 0 Z" /><glyph glyph-name="" unicode="¶" d="M1594 1097 l-1053 0 q-246 2 -356 -88 q-109 -90 -107 -291 q-2 -202 108 -292 q110 -90 355 -88 l0 -338 l177 0 l0 927 l552 0 l1 -606 l0 -32 q-6 -129 58 -208 q63 -79 263 -81 l0 162 q-84 -2 -115 32 q-30 33 -32 123 l0 610 l149 0 l0 170 Z" /><glyph glyph-name="" unicode="§" d="M816 -11 q381 -2 554 47 q173 48 170 176 q1 58 -26 106 q-28 49 -97 73 q65 20 94 61 q29 42 29 93 q4 97 -71 161 q-74 64 -275 77 l-716 23 q-69 4 -115 22 q-45 17 -47 60 q-8 34 93 59 q101 24 413 26 q249 0 377 -31 q127 -32 127 -101 l184 0 q5 123 -153 197 q-157 73 -535 75 q-367 0 -530 -53 q-163 -54 -160 -174 q-1 -61 30 -107 q31 -46 105 -68 q-73 -21 -105 -63 q-31 -43 -30 -94 q-3 -102 75 -158 q77 -56 271 -68 l698 -24 q78 -3 128 -19 q51 -16 53 -63 q8 -48 -102 -70 q-111 -22 -439 -22 q-250 0 -387 31 q-136 31 -138 100 l-184 0 q-6 -123 155 -196 q160 -74 554 -76 l0 0 ZM478 480 q-78 4 -120 21 q-42 18 -42 56 q-6 40 103 63 q109 23 400 24 q247 3 391 -11 q144 -14 147 -83 q1 -40 -53 -67 q-54 -28 -179 -22 l-647 19 Z" /><glyph glyph-name="" unicode="©" d="M879 1097 q-471 5 -641 -117 q-170 -123 -160 -429 q-10 -308 160 -441 q170 -133 641 -130 q464 -3 633 130 q168 133 158 441 q10 306 -158 429 q-169 122 -633 117 l0 0 ZM879 101 q-400 -2 -541 104 q-140 105 -131 346 q-9 240 131 334 q141 95 541 91 q392 4 531 -90 q139 -94 130 -335 q9 -241 -130 -347 q-139 -105 -531 -103 l0 0 ZM879 711 q240 2 310 -23 q71 -25 63 -100 l126 0 q12 126 -89 182 q-101 55 -410 54 q-319 3 -426 -58 q-107 -62 -99 -208 q-8 -141 101 -199 q108 -58 424 -58 q307 -2 409 50 q101 53 90 185 l-126 0 q8 -73 -61 -98 q-69 -26 -312 -24 q-259 0 -333 31 q-74 30 -66 113 q-8 89 66 121 q74 32 333 32 l0 0 Z" /><glyph glyph-name="" unicode="®" d="M665 1168 q-366 -2 -482 -100 q-115 -97 -105 -269 q-10 -173 105 -270 q116 -98 482 -100 q366 2 482 99 q116 98 106 271 q10 173 -106 270 q-116 97 -482 99 l0 0 ZM665 522 q-298 -1 -396 62 q-98 63 -90 215 q-8 150 90 214 q98 63 396 62 q298 2 397 -61 q98 -64 90 -215 q8 -152 -90 -216 q-99 -63 -397 -61 l0 0 ZM991 791 q21 5 36 22 q15 18 16 58 q0 59 -31 79 q-31 20 -90 18 l-628 0 l0 -341 l94 0 l0 111 l532 0 q20 -1 26 -12 q7 -11 6 -33 q0 -23 2 -37 q2 -13 7 -29 l97 0 q-11 24 -13 39 q-2 14 -2 27 q1 42 -8 65 q-9 22 -44 33 l0 0 ZM915 828 l-527 0 l0 51 l527 0 q18 0 28 -5 q9 -6 9 -21 q0 -15 -9 -20 q-10 -5 -28 -5 l0 0 Z" /><glyph glyph-name="" unicode="&#x2117;" d="M879 -20 q464 -3 633 130 q168 133 158 441 q10 306 -158 429 q-169 122 -633 117 q-471 5 -641 -117 q-170 -123 -160 -429 q-10 -308 160 -441 q170 -133 641 -130 l0 0 ZM879 101 q-400 -2 -541 104 q-140 105 -131 346 q-9 240 131 334 q141 95 541 91 q392 4 531 -90 q139 -94 130 -335 q9 -241 -130 -347 q-139 -105 -531 -103 l0 0 ZM546 310 l0 144 l579 0 q145 1 206 49 q61 47 59 135 q2 82 -59 127 q-61 45 -206 46 l-705 0 l0 -501 l126 0 ZM546 700 l582 0 q80 0 108 -18 q28 -17 26 -49 q2 -32 -26 -50 q-28 -18 -108 -18 l-582 0 l0 135 Z" /><glyph glyph-name="" unicode="&#x2122;" d="M374 976 l0 -470 l128 0 l0 470 l315 0 l0 121 l-757 0 l0 -121 l314 0 ZM1279 747 l-257 350 l-161 0 l0 -591 l128 0 l0 440 l214 -290 l153 0 l214 299 l0 -449 l129 0 l0 591 l-166 0 l-254 -350 Z" /><glyph glyph-name="" unicode="°" d="M499 1110 q-205 3 -312 -54 q-108 -57 -109 -215 q-5 -117 83 -190 q89 -74 338 -76 q248 2 337 76 q89 73 84 190 q-1 158 -108 215 q-108 57 -313 54 l0 0 ZM499 704 q-155 -1 -217 32 q-61 32 -59 106 q-6 55 46 95 q52 41 230 43 q178 -2 230 -43 q52 -40 46 -95 q2 -74 -59 -106 q-62 -33 -217 -32 l0 0 Z" /><glyph glyph-name="" unicode="|" d="M248 -236 l0 1450 l-131 0 l0 -1450 l131 0 Z" /><glyph glyph-name="" unicode="¦" d="M248 643 l0 571 l-131 0 l0 -571 l131 0 ZM248 -156 l0 552 l-131 0 l0 -552 l131 0 Z" /><glyph glyph-name="" unicode="&#x2020;" d="M430 995 l0 219 l-131 0 l0 -219 l-220 0 l0 -132 l220 0 l0 -345 l131 0 l0 345 l221 0 l0 132 l-221 0 Z" /><glyph glyph-name="" unicode="&#x2021;" d="M650 1041 l-221 0 l0 173 l-131 0 l0 -173 l-220 0 l0 -131 l220 0 l0 -71 l-220 0 l0 -132 l220 0 l0 -189 l131 0 l0 189 l221 0 l0 132 l-221 0 l0 71 l221 0 l0 131 Z" /><glyph glyph-name="" unicode="&#x2116;" d="M2078 486 q266 1 354 85 q88 84 81 234 q7 149 -81 233 q-88 84 -354 85 q-268 -1 -356 -85 q-88 -84 -81 -233 q-7 -150 81 -234 q88 -84 356 -85 l0 0 ZM359 1097 l-242 0 l0 -1097 l184 0 l0 904 l956 -904 l254 0 l0 1097 l-184 0 l0 -917 l-968 917 ZM2078 976 q182 -1 229 -47 q47 -46 40 -124 q7 -78 -40 -124 q-47 -45 -229 -46 q-184 1 -231 47 q-47 45 -40 123 q-7 78 40 124 q47 46 231 47 l0 0 ZM2486 241 l0 171 l-818 0 l0 -171 l818 0 Z" /><glyph glyph-name="" unicode="&#x2bc;" d="M329 981 l0 1 q0 67 -29 96 q-28 28 -90 27 q-62 1 -90 -28 q-28 -28 -27 -97 q0 -62 21 -90 q22 -29 69 -34 l-105 -197 l96 0 q38 36 87 110 q50 73 66 173 q2 17 2 38 l0 1 Z" /><glyph glyph-name="" unicode="&#x308;" d="M-533 1232 q62 -1 88 23 q26 23 25 79 q1 56 -25 80 q-26 24 -88 23 q-63 1 -89 -23 q-26 -24 -25 -80 q-1 -56 25 -79 q26 -24 89 -23 l0 0 ZM-182 1232 q62 -1 88 23 q26 23 25 79 q1 56 -25 80 q-26 24 -88 23 q-63 1 -89 -23 q-26 -24 -25 -80 q-1 -56 25 -79 q26 -24 89 -23 l0 0 Z" /><glyph glyph-name="" unicode="&#x307;" d="M-191 1232 q62 -1 88 23 q26 23 25 79 q1 56 -25 80 q-26 24 -88 23 q-63 1 -89 -23 q-26 -24 -25 -80 q-1 -56 25 -79 q26 -24 89 -23 l0 0 Z" /><glyph glyph-name="" unicode="&#x300;" d="M-93 1231 l-169 251 l-238 0 l251 -251 l156 0 Z" /><glyph glyph-name="" unicode="&#x301;" d="M-306 1231 l251 251 l-238 0 l-169 -251 l156 0 Z" /><glyph glyph-name="" unicode="&#x30b;" d="M-250 1233 l251 251 l-238 0 l-169 -251 l156 0 ZM-674 1231 l251 251 l-238 0 l-169 -251 l156 0 Z" /><glyph glyph-name="" unicode="&#x302;" d="M-395 1482 l-223 0 l-327 -251 l186 0 l252 164 l250 -164 l186 0 l-324 251 Z" /><glyph glyph-name="" unicode="&#x30c;" d="M-500 -282 l-251 148 l-186 0 l336 -251 l203 0 l334 251 l-186 0 l-250 -148 Z" /><glyph glyph-name="" unicode="&#x306;" d="M-418 1232 q128 -2 221 49 q93 51 136 175 l-161 0 q-21 -41 -70 -65 q-49 -24 -126 -25 q-76 1 -124 25 q-48 24 -69 65 l-161 0 q42 -124 134 -175 q93 -51 220 -49 l0 0 Z" /><glyph glyph-name="" unicode="&#x30a;" d="M-369 1565 q-149 2 -225 -34 q-76 -36 -76 -134 q-4 -72 61 -118 q64 -45 240 -47 q149 -2 224 33 q76 35 76 132 q4 74 -60 120 q-64 47 -240 48 l0 0 ZM-369 1345 q-108 -1 -145 11 q-37 11 -34 42 q-4 24 28 39 q33 15 151 16 q108 1 144 -11 q36 -12 33 -44 q4 -23 -28 -38 q-32 -14 -149 -15 l0 0 Z" /><glyph glyph-name="" unicode="&#x303;" d="M-346 1232 q115 3 182 63 q67 61 98 150 l-136 0 q-18 -27 -47 -47 q-30 -20 -76 -21 q-80 4 -143 35 q-63 30 -146 34 q-117 -2 -186 -63 q-69 -61 -96 -150 l137 0 q18 27 48 46 q29 18 76 19 q73 -4 139 -33 q65 -29 150 -33 l0 0 Z" /><glyph glyph-name="" unicode="&#x304;" d="M-71 1232 l0 165 l-774 0 l0 -165 l774 0 Z" /><glyph glyph-name="" unicode="&#x312;" d="M-242 1480 l-251 -251 l238 0 l169 251 l-156 0 Z" /><glyph glyph-name="" unicode="&#x326;" d="M-329 -271 l251 251 l-238 0 l-169 -251 l156 0 Z" /><glyph glyph-name="" unicode="&#x327;" d="M-260 -363 q97 -2 144 29 q47 30 47 113 q1 78 -40 108 q-42 31 -136 30 l-17 0 l0 114 l-120 0 l0 -204 q2 1 25 1 q23 0 82 0 q41 1 61 -11 q20 -11 20 -42 q1 -20 -14 -31 q-15 -10 -57 -10 q-32 0 -75 6 q-44 6 -117 21 l0 -90 q68 -17 115 -26 q47 -8 82 -8 l0 0 Z" /><glyph glyph-name="" unicode="&#x328;" d="M-157 -434 l0 169 l-80 0 q-45 -1 -70 14 q-26 15 -26 58 q-2 31 27 76 q29 44 108 117 l-149 0 q-85 -67 -132 -130 q-48 -63 -49 -140 q-4 -77 59 -120 q62 -43 234 -44 l78 0 Z" /><glyph glyph-name="" unicode="¨" d="M178 1232 q62 -1 88 23 q26 23 25 79 q1 56 -25 80 q-26 24 -88 23 q-63 1 -89 -23 q-26 -24 -25 -80 q-1 -56 25 -79 q26 -24 89 -23 l0 0 ZM571 1232 q62 -1 88 23 q26 23 25 79 q1 56 -25 80 q-26 24 -88 23 q-63 1 -89 -23 q-26 -24 -25 -80 q-1 -56 25 -79 q26 -24 89 -23 l0 0 Z" /><glyph glyph-name="" unicode="&#x2d9;" d="M178 1232 q62 -1 88 23 q26 23 25 79 q1 56 -25 80 q-26 24 -88 23 q-63 1 -89 -23 q-26 -24 -25 -80 q-1 -56 25 -79 q26 -24 89 -23 l0 0 Z" /><glyph glyph-name="" unicode="`" d="M471 1231 l-169 251 l-238 0 l251 -251 l156 0 Z" /><glyph glyph-name="" unicode="´" d="M242 1231 l251 251 l-238 0 l-169 -251 l156 0 Z" /><glyph glyph-name="" unicode="&#x2dd;" d="M666 1233 l251 251 l-238 0 l-169 -251 l156 0 ZM242 1231 l251 251 l-238 0 l-169 -251 l156 0 Z" /><glyph glyph-name="" unicode="&#x2c6;" d="M603 1482 l-203 0 l-336 -251 l186 0 l251 148 l250 -148 l186 0 l-334 251 Z" /><glyph glyph-name="" unicode="&#x2c7;" d="M501 1332 l-251 148 l-186 0 l336 -251 l203 0 l334 251 l-186 0 l-250 -148 Z" /><glyph glyph-name="" unicode="&#x2d8;" d="M415 1232 q128 -2 221 49 q93 51 136 175 l-161 0 q-21 -41 -70 -65 q-49 -24 -126 -25 q-76 1 -124 25 q-48 24 -69 65 l-161 0 q42 -124 134 -175 q93 -51 220 -49 l0 0 Z" /><glyph glyph-name="" unicode="&#x2da;" d="M365 1565 q-149 2 -225 -34 q-76 -36 -76 -134 q-4 -72 60 -118 q64 -45 241 -47 q149 -2 224 33 q76 35 76 132 q4 74 -60 120 q-64 47 -240 48 l0 0 ZM365 1345 q-109 -1 -145 11 q-37 11 -34 42 q-4 24 28 39 q33 15 151 16 q108 1 144 -11 q36 -12 33 -44 q4 -23 -28 -38 q-32 -14 -149 -15 l0 0 Z" /><glyph glyph-name="" unicode="&#x2dc;" d="M611 1231 q112 2 177 60 q65 58 95 146 l-130 0 q-18 -27 -47 -49 q-29 -22 -75 -23 q-78 5 -140 37 q-61 31 -143 36 q-115 -2 -182 -59 q-66 -58 -92 -147 l131 0 q18 28 47 50 q29 22 76 23 q72 -5 136 -37 q64 -32 147 -37 l0 0 Z" /><glyph glyph-name="" unicode="¯" d="M672 1232 l0 145 l-583 0 l0 -145 l583 0 Z" /><glyph glyph-name="" unicode="¸" d="M261 -363 q97 -2 144 29 q47 30 47 113 q1 78 -40 108 q-42 31 -136 30 l-17 0 l0 124 l-120 0 l0 -214 q2 1 25 1 q23 0 82 0 q41 1 61 -11 q20 -11 20 -42 q1 -20 -14 -31 q-15 -10 -57 -10 q-32 0 -75 6 q-44 6 -117 21 l0 -90 q68 -17 115 -26 q47 -8 82 -8 l0 0 Z" /><glyph glyph-name="" unicode="&#x2db;" d="M366 -289 q-53 -6 -80 15 q-27 21 -27 65 q-2 32 27 84 q29 51 108 125 l-129 20 q-78 -61 -129 -134 q-50 -73 -52 -152 q-3 -78 57 -123 q61 -46 225 -41 l0 141 Z" /></font>
</defs>
</svg>
